<svg xmlns="http://www.w3.org/2000/svg" width="150" height="150" viewBox="0 0 150 150">
  <g id="t4-ic6" transform="translate(-378 -1449)">
    <rect id="Rectangle_5226" data-name="Rectangle 5226" width="150" height="150" transform="translate(378 1449)" fill="none"/>
    <path id="Path_100570" data-name="Path 100570" d="M99.316-53.348a3.175,3.175,0,0,1,3.772,1.105,3.582,3.582,0,0,1-.409,4.436A3.233,3.233,0,0,1,98.26-47.9c-1.525-1.564-1.064-4.652,1.056-5.451M65.988-51.326c1.9-.047,3.811.054,5.711-.056a2.784,2.784,0,0,0-2.659-2.252,2.681,2.681,0,0,0-3.051,2.309m-.569-3.846a5.784,5.784,0,0,1,7.044.223,6.529,6.529,0,0,1,2.064,5.711c-2.858.012-5.718-.017-8.576.015a3.352,3.352,0,0,0,2.816,2.267,4.814,4.814,0,0,0,3.561-1.113c.485.721.971,1.444,1.444,2.174a7.255,7.255,0,0,1-4.953,1.6,6.007,6.007,0,0,1-5.059-3.154,6.161,6.161,0,0,1,1.659-7.721m-19.074.821A4.266,4.266,0,0,1,48.931-56.2a4,4,0,0,1,4.353,1.89,4.252,4.252,0,0,1,6.3-.988A4.4,4.4,0,0,1,60.9-52.047c.032,2.49,0,4.983.02,7.475-.968.025-1.936.012-2.9.012C58-46.89,58.051-49.223,58-51.551a1.9,1.9,0,0,0-1.451-1.978,2.514,2.514,0,0,0-2.806,1.471c-.037,2.5,0,5-.017,7.5-.963,0-1.926,0-2.89,0-.007-2.248.01-4.5-.007-6.74a2.218,2.218,0,0,0-.983-2.071,2.472,2.472,0,0,0-3.287,1.343c-.042,2.488,0,4.98-.017,7.468-.963,0-1.924,0-2.885,0-.025-3.8.01-7.6-.02-11.4.9-.056,1.806-.025,2.711-.029q0,.816,0,1.637M33.86-49.4a1.407,1.407,0,0,0-.044,2.434,3.476,3.476,0,0,0,4.037-.993c0-.419,0-.838,0-1.255A4.889,4.889,0,0,0,33.86-49.4m-2.824-5.838a9.941,9.941,0,0,1,6.86-.684,3.97,3.97,0,0,1,2.831,3.578c.059,2.6.015,5.194.022,7.792-.89,0-1.782,0-2.672,0,0-.473,0-.946,0-1.419a4.836,4.836,0,0,1-6.659.674,3.649,3.649,0,0,1-.159-5.287,5.776,5.776,0,0,1,6.615-.49,2.176,2.176,0,0,0-1.064-2.3c-1.578-.679-3.338-.078-4.841.527-.311-.8-.627-1.591-.936-2.385m-6.887.809a4.819,4.819,0,0,1,2.01-1.667,5.11,5.11,0,0,1,3.066.176q-.5,1.3-1.007,2.591A3.027,3.027,0,0,0,24.3-51.966c-.037,2.468,0,4.939-.015,7.407q-1.449,0-2.892,0,0-5.713,0-11.429c.917,0,1.831,0,2.748,0,0,.52,0,1.037.012,1.554M9-61.434c3.341-.01,6.684,0,10.025,0q0,1.375,0,2.748c-2.37,0-4.74,0-7.11,0,0,1.375-.01,2.748,0,4.123q3.312,0,6.623,0,0,1.371,0,2.748-3.313,0-6.63,0,0,3.629,0,7.255-1.456.007-2.912,0V-61.434M110.926-11.353q21.055-30.081,42.12-60.157l.172.051a39.064,39.064,0,0,1,5.63,18.549l.152-.64v4.463a13.345,13.345,0,0,0-.26,2.206,39.991,39.991,0,0,1-11.426,24.35,40.05,40.05,0,0,1-21.87,11.395c-1.218.243-2.468.267-3.681.527h-6.52c-1.419-.353-2.9-.36-4.316-.745m2.561-44.74a4.485,4.485,0,0,0-2.01,1.743c.01-.547.01-1.091.01-1.637q-1.375,0-2.748,0,0,5.713,0,11.429c.958,0,1.917,0,2.877.01.034-2.5.015-4.99.01-7.485a3.837,3.837,0,0,1,1.52-1.355,3.55,3.55,0,0,1,2.4.066c.37-.855.689-1.73,1.029-2.6a5.039,5.039,0,0,0-3.091-.174m-14.262-.044a6.048,6.048,0,0,0-3.137,1.721,6.023,6.023,0,0,0-.157,8.108,6.239,6.239,0,0,0,8.154.9,5.909,5.909,0,0,0,2.507-5.14,5.944,5.944,0,0,0-3-4.917,6.384,6.384,0,0,0-4.368-.672M78.784-55.7a39.767,39.767,0,0,1,8.748-20.527c20.745-.11,41.5.039,62.243-.074a.516.516,0,0,1,.047.056q-10.7,15.25-21.38,30.517c-1.434-1.623-2.877-3.238-4.311-4.86,1.659-1.806,3.343-3.591,5-5.4-1.243-.007-2.485,0-3.728,0-1.37,1.5-2.725,3-4.1,4.5q-.007-5.651,0-11.3c-.966,0-1.931,0-2.895,0,0,6.076-.007,12.152,0,18.23.963,0,1.926,0,2.89,0,0-1.659,0-3.321,0-4.98,1.461,1.627,2.853,3.324,4.346,4.924a11.053,11.053,0,0,0,1.975.059q-11.085,15.838-22.186,31.672c-.154-.039-.468-.118-.623-.154A40.355,40.355,0,0,1,83.745-30.89a39.184,39.184,0,0,1-5.181-17.919c.811,1.475,1.395,3.064,2.167,4.556l.191.059c1.206-2.62,2.316-5.287,3.539-7.9,1.23,2.681,2.424,5.38,3.637,8.071,1.914-3.953,3.686-7.978,5.539-11.963-.985-.007-1.968-.01-2.951.01-.8,1.949-1.63,3.89-2.441,5.833-.838-1.944-1.583-3.926-2.449-5.86-.814,0-1.625.007-2.439.049-.8,1.939-1.6,3.88-2.463,5.792-.674-1.855-1.61-3.625-2.11-5.537M114.865-91h6.819c.838.159,1.689.238,2.537.333a39.556,39.556,0,0,1,20.225,8.988c-5.439.132-10.885.02-16.326.056-11.74-.007-23.48.017-35.221-.012a39.683,39.683,0,0,1,22.252-9.248L114.865-91" transform="translate(369 1575)" fill="#ee350f"/>
  </g>
</svg>
