<svg xmlns="http://www.w3.org/2000/svg" width="150" height="150" viewBox="0 0 150 150">
  <g id="t4-ic4" transform="translate(-378 -819)">
    <rect id="Rectangle_5222" data-name="Rectangle 5222" width="150" height="150" transform="translate(378 819)" fill="none"/>
    <g id="Group_53828" data-name="Group 53828" transform="translate(281.5 6402)">
      <path id="Path_100538" data-name="Path 100538" d="M178.279,65.526a8.7,8.7,0,1,1-8.7-8.7A8.7,8.7,0,0,1,178.279,65.526ZM208.217,43.2a41.731,41.731,0,0,0-6.857-8.948L191.325,40.1A32.488,32.488,0,0,0,180.788,34a41.311,41.311,0,0,0-8.112,11.624A49.338,49.338,0,0,1,206.21,57.331l6.355-3.679A47.663,47.663,0,0,0,208.217,43.2Zm-38.634,66.983a46.246,46.246,0,0,0,11.206-1.422V97.052a33.449,33.449,0,0,0,10.453-6.021A39.888,39.888,0,0,0,185.3,78.237,49.338,49.338,0,0,1,158.377,101.4v7.275a42.557,42.557,0,0,0,11.206,1.505ZM130.948,43.2A43.877,43.877,0,0,0,126.6,53.652l10.035,5.854a33.451,33.451,0,0,0,0,12.042A40.763,40.763,0,0,0,150.767,72.8a49.338,49.338,0,0,1-6.69-34.871l-6.272-3.6A41.249,41.249,0,0,0,130.948,43.2Z" transform="translate(1.917 -5573.568)" fill="#050a14"/>
      <path id="Path_100539" data-name="Path 100539" d="M208.217,85.266A41.916,41.916,0,0,0,212.565,74.9L202.53,69.043a33.449,33.449,0,0,0,0-12.125A40.762,40.762,0,0,0,188.4,55.663a49.338,49.338,0,0,1,6.69,34.871l6.272,3.679A41.728,41.728,0,0,0,208.217,85.266Zm-77.268,0a39.764,39.764,0,0,0,6.857,8.948L147.84,88.36a33.45,33.45,0,0,0,10.537,6.1,43.706,43.706,0,0,0,8.111-11.54,49.338,49.338,0,0,1-33.449-11.707L126.6,74.9A46.966,46.966,0,0,0,130.948,85.266Zm38.634-66.9a42.461,42.461,0,0,0-11.206,1.422V31.413a33.449,33.449,0,0,0-10.453,6.021,42.18,42.18,0,0,0,5.937,12.878,49.338,49.338,0,0,1,26.927-23.164V19.705A44.572,44.572,0,0,0,169.583,18.2Z" transform="translate(1.917 -5570.981)" fill="#00b4ff"/>
      <path id="Path_100537" data-name="Path 100537" d="M166.25,7.693A52.348,52.348,0,1,1,113.86,60,52.348,52.348,0,0,1,166.25,7.693m0-7.693a60,60,0,1,0,60,60A60,60,0,0,0,166.25,0Z" transform="translate(5.25 -5568)" fill="#00b4ff"/>
    </g>
  </g>
</svg>
