<svg xmlns="http://www.w3.org/2000/svg" width="150" height="150" viewBox="0 0 150 150">
  <g id="t4-ic3" transform="translate(-378 -468)">
    <rect id="Rectangle_5220" data-name="Rectangle 5220" width="150" height="150" transform="translate(378 468)" fill="none"/>
    <g id="Group_55373" data-name="Group 55373" transform="translate(265 8.678)">
      <path id="Path_104260" data-name="Path 104260" d="M-599.888,600.489c1.666-.077,3.3-.411,4.971-.467,18.342-.014,36.691.021,55.034-.021,1.91-.021,3.785.4,5.689.488a29.543,29.543,0,0,1,25.418,19.729c1.813,5.1,1.91,10.583,1.868,15.937q0,25.788.007,51.576c-.167,5.661-.837,11.5-3.723,16.495A29.681,29.681,0,0,1-536.3,720q-31.059-.052-62.117-.014c-13.643-.3-26.116-11.343-27.942-24.875-.788-2.4-.474-4.936-.509-7.411q-.01-27.179,0-54.365c.021-2.816-.216-5.675.446-8.443a29.948,29.948,0,0,1,22.351-23.773c1.394-.174,2.8-.4,4.183-.627" transform="translate(754.902 -125.678)" fill="#3c5afd"/>
      <path id="Path_102967" data-name="Path 102967" d="M424.776,120.054a8.785,8.785,0,0,1,6.747-3.2c3.036.011,6.074-.029,9.108.021q17.185,23.572,34.433,47.083c.707.934,1.346,1.933,2.12,2.806q.018-24.933-.01-49.863c3.031-.111,6.067-.016,9.1-.05a8.873,8.873,0,0,1,7.176,3.74,10.61,10.61,0,0,1,2.011,6.322q-.007,9.883,0,19.768a10.6,10.6,0,0,0,2.366,6.876,9.063,9.063,0,0,0,6.075,3.286,8.991,8.991,0,0,0-5.718,2.88,10.453,10.453,0,0,0-2.718,7.005c-.014,6.768,0,13.536-.007,20.3a10.372,10.372,0,0,1-3.147,7.356,8.673,8.673,0,0,1-6.043,2.448c-3.036-.016-6.075.026-9.111-.024q-17.189-23.572-34.438-47.094c-.7-.936-1.353-1.917-2.108-2.806q-.025,24.941,0,49.881c-3.034.09-6.067.013-9.1.042a8.732,8.732,0,0,1-6.388-2.8,10.414,10.414,0,0,1-2.79-6.987c-.017-6.86.017-13.718-.017-20.576-.055-4.935-3.923-9.321-8.421-9.611a9.183,9.183,0,0,0,5.715-2.9,10.467,10.467,0,0,0,2.715-7.005c.012-6.684,0-13.37,0-20.053A10.515,10.515,0,0,1,424.776,120.054Z" transform="translate(-270.9 377.456)" fill="#fff"/>
    </g>
  </g>
</svg>
