<svg xmlns="http://www.w3.org/2000/svg" width="150" height="150" viewBox="0 0 150 150">
  <g id="t4-ic9" transform="translate(-378 -2397)">
    <rect id="Rectangle_5232" data-name="Rectangle 5232" width="150" height="150" transform="translate(378 2397)" fill="none"/>
    <path id="Logo" d="M76.625,56a9.542,9.542,0,0,0-8.045,4.6L43.2,104.188a9.39,9.39,0,0,0,0,9.2L68.58,156.977a9.539,9.539,0,0,0,8.045,4.6h50.751a9.541,9.541,0,0,0,8.045-4.6L160.8,113.391a9.391,9.391,0,0,0,0-9.2L135.42,60.6a9.54,9.54,0,0,0-8.045-4.6Zm.461,25.5a1.128,1.128,0,0,1,.213,0h8.754a1.156,1.156,0,0,1,.957.562l14.85,26.167a1.108,1.108,0,0,1,.141.421,1.113,1.113,0,0,1,.141-.421l14.814-26.167a1.162,1.162,0,0,1,.993-.562H126.7a1.184,1.184,0,0,1,.993,1.651l-14.5,25.64,14.5,25.6a1.184,1.184,0,0,1-.993,1.686h-8.753a1.161,1.161,0,0,1-.993-.6l-14.814-26.166a1.12,1.12,0,0,1-.141-.421,1.115,1.115,0,0,1-.141.421l-14.85,26.166a1.16,1.16,0,0,1-.957.6H77.3a1.184,1.184,0,0,1-.992-1.686l14.5-25.6-14.5-25.64a1.177,1.177,0,0,1,.78-1.651Z" transform="translate(351 2363)" fill="#3498db" fill-rule="evenodd"/>
  </g>
</svg>
