<svg xmlns="http://www.w3.org/2000/svg" width="295" height="170" viewBox="0 0 295 170">
  <g id="t4-p4" transform="translate(-1125 -748)">
    <rect id="Rectangle_5322" data-name="Rectangle 5322" width="295" height="170" transform="translate(1125 748)" fill="#fff"/>
    <rect id="Rectangle_5326" data-name="Rectangle 5326" width="295" height="5" transform="translate(1125 913)" fill="#ffca28"/>
    <g id="Group_53809" data-name="Group 53809" transform="translate(1271 13244)">
      <path id="Path_100538" data-name="Path 100538" d="M150.3,48.456a3.988,3.988,0,1,1-3.988-3.988A3.988,3.988,0,0,1,150.3,48.456Zm13.727-10.238a19.135,19.135,0,0,0-3.144-4.1l-4.6,2.684a14.9,14.9,0,0,0-4.831-2.8,18.943,18.943,0,0,0-3.719,5.33A22.623,22.623,0,0,1,163.1,44.7l2.914-1.687A21.856,21.856,0,0,0,164.024,38.218ZM146.309,68.932a21.2,21.2,0,0,0,5.138-.652V62.911a15.338,15.338,0,0,0,4.793-2.761,18.29,18.29,0,0,0-2.722-5.867,22.623,22.623,0,0,1-12.347,10.621v3.336a19.514,19.514,0,0,0,5.138.69ZM128.594,38.218a20.118,20.118,0,0,0-1.994,4.793l4.6,2.684a15.338,15.338,0,0,0,0,5.522,18.691,18.691,0,0,0,6.48.575,22.623,22.623,0,0,1-3.068-15.99l-2.876-1.649A18.914,18.914,0,0,0,128.594,38.218Z" transform="translate(-234.797 -12459.963)" fill="#050a14"/>
      <path id="Path_100539" data-name="Path 100539" d="M164.024,48.952a19.22,19.22,0,0,0,1.994-4.755l-4.6-2.684a15.338,15.338,0,0,0,0-5.56,18.691,18.691,0,0,0-6.48-.575A22.623,22.623,0,0,1,158,51.368l2.876,1.687A19.134,19.134,0,0,0,164.024,48.952Zm-35.43,0a18.233,18.233,0,0,0,3.144,4.1l4.6-2.684a15.338,15.338,0,0,0,4.831,2.8,20.041,20.041,0,0,0,3.719-5.292,22.623,22.623,0,0,1-15.338-5.368L126.6,44.2A21.535,21.535,0,0,0,128.594,48.952Zm17.715-30.675a19.47,19.47,0,0,0-5.138.652v5.33a15.338,15.338,0,0,0-4.793,2.761,19.341,19.341,0,0,0,2.722,5.9A22.623,22.623,0,0,1,151.447,22.3V18.89a20.438,20.438,0,0,0-5.138-.69Z" transform="translate(-234.797 -12450.222)" fill="#00b4ff"/>
      <path id="Path_100537" data-name="Path 100537" d="M133.762,3.528a24,24,0,1,1-24.023,23.984A24,24,0,0,1,133.762,3.528m0-3.528a27.512,27.512,0,1,0,27.512,27.512A27.512,27.512,0,0,0,133.762,0Z" transform="translate(-222.25 -12439)" fill="#00b4ff"/>
      <path id="Path_100540" data-name="Path 100540" d="M61.154,196.794v2.3c-4.915-.427-8.227-3.1-8.227-9.509V179.7h2.457v9.829c0,4.594,2.137,6.731,5.769,7.212ZM69.7,179.752v9.829c0,4.754-2.3,6.838-5.823,7.212v2.351c4.915-.374,8.28-2.992,8.28-9.616v-9.776H69.648Zm-26.924,10.1v-1.175c0-6.784-4.7-9.3-11.218-9.3-6.464,0-11.058,2.511-11.058,9.3v1.175c0,6.838,4.594,9.4,11.058,9.4a16.8,16.8,0,0,0,2.351-.16l6.3,3.312,1.068-1.763L36.9,198.5l-3.419-1.656a17.089,17.089,0,0,1-1.923.107c-5.235,0-8.547-2.083-8.547-7.105v-1.175c0-4.968,3.312-7,8.547-7,5.289,0,8.708,2.03,8.708,7v1.175a6.185,6.185,0,0,1-2.992,5.77l2.564,1.282C41.655,195.4,42.777,193.161,42.777,189.849Zm56.52,8.868h2.724l-9.135-19.178H90.322L99.4,198.77Zm-13.355-5.663,3.953-8.387L88.612,182,80.545,198.77H83.27l1.763-3.739h9.776l-.962-1.977Zm71.424,5.716h2.778L150.9,179.592h-2.564l9.082,19.232Zm-13.355-5.716,3.953-8.387L146.681,182l-8.067,16.774h2.724l1.763-3.739h9.776l-.908-1.977h-7.906Zm39.425-1.336c3.205-.641,4.808-2.885,4.808-6.09,0-4.274-2.4-5.823-6.891-5.823H169.919V198.77h2.457V182.049h8.814c2.671,0,4.541.748,4.541,3.579,0,2.778-1.87,4.113-4.541,4.113H175.1v2.19h5.716l4.968,6.838h2.938l-5.289-7.052Zm-62.717,5.289c-5.182,0-7.853-1.336-9.936-3.366l-1.175,2.03c2.724,2.671,5.876,3.579,11.218,3.579a18.379,18.379,0,0,0,2.457-.16l-1.015-2.137h-1.6Zm9.83-3.739c0-3.419-2.511-4.594-7.372-5.022l-5.4-.534c-3.579-.374-4.968-1.175-4.968-2.992,0-1.336.748-2.137,2.457-2.671l-.962-2.03c-2.511.748-4.007,2.244-4.007,4.754,0,2.778,1.816,4.648,6.945,5.128l6.037.641c3.419.321,4.754,1.068,4.754,2.885,0,1.442-1.122,2.511-3.205,3.1l.962,2.083c2.831-.855,4.754-2.511,4.754-5.342Zm-10.845-11.7c4.22,0,7.105.962,9.669,3.045l.962-2.083a16.026,16.026,0,0,0-10.471-3.152,26.906,26.906,0,0,0-3.045.16l1.015,2.137,1.87-.107Z" transform="translate(-69.723 -12601.391)" fill="#050a14"/>
    </g>
  </g>
</svg>
