<svg xmlns="http://www.w3.org/2000/svg" width="295" height="170" viewBox="0 0 295 170">
  <g id="t4-p8" transform="translate(-1125 -958)">
    <rect id="Rectangle_5327" data-name="Rectangle 5327" width="295" height="170" transform="translate(1125 958)" fill="#fff"/>
    <rect id="Rectangle_5330" data-name="Rectangle 5330" width="295" height="5" transform="translate(1125 1123)" fill="#ffca28"/>
    <g id="Group_53812" data-name="Group 53812" transform="translate(1035.496 122.771)">
      <path id="Path_100564" data-name="Path 100564" d="M218.112,910.4q6.174-.014,12.353,0c2.053,3.687,4.288,7.27,6.226,11.019,1.624-3.821,3.84-7.346,5.717-11.038,3.968.033,7.937,0,11.91,0-3.616,5.588-7.556,10.971-11.286,16.488-.071.548.429.958.653,1.42,3.64,5.641,7.2,11.338,10.862,16.969-4.183.014-8.37.081-12.553-.033-2.006-3.825-4.3-7.494-6.141-11.41-1.91,3.821-3.973,7.57-5.864,11.4-4.04.129-8.089.033-12.134.052,3.845-5.95,7.856-11.8,11.757-17.712-3.8-5.745-7.727-11.4-11.5-17.165m41.6-6.674c3.525-.915,7.027-1.929,10.538-2.892.067,3.187.01,6.369.043,9.557q3.909.007,7.818,0c.086,2.706.1,5.417-.014,8.123-2.6-.038-5.188-.01-7.784-.029-.052,4.154-.048,8.308-.01,12.463.11,1.848.11,4.021,1.62,5.35,1.748,1.186,3.964.6,5.926.524.1,2.792.043,5.579.052,8.37-3.416.214-6.836.043-10.252.119-1.91.2-3.606-.943-4.94-2.177-2.291-2.472-2.987-5.988-3.025-9.261.014-5.121,0-10.247.01-15.369-1.558-.01-3.116-.01-4.669-.019.033-2.7,0-5.393.029-8.089,1.544.009,3.092,0,4.635-.01,0-2.22-.019-4.435.024-6.655m-73.536-6.55q14.842-.057,29.689,0c0,2.978.024,5.96-.019,8.937-6.269-.014-12.544,0-18.818-.01.029,3.34-.019,6.684.029,10.023,5.917-.019,11.834-.029,17.751.01.014,2.939-.014,5.879.029,8.818-5.941,0-11.877-.081-17.812.038.029,3.792,0,7.589.019,11.381,6.627,0,13.253-.019,19.885.01q-.007,4.445,0,8.9c-10.252,0-20.509.029-30.766-.019.019-16.026,0-32.052.014-48.083M149.354,898.8c.434-1.22.7-2.849,2.106-3.325a11.482,11.482,0,0,1,4.716-.01c1.443.467,1.72,2.125,2.144,3.373.729,2.573,3.473,3.949,5.969,4.154,2.091.148,3.635-1.953,5.707-1.629a7.615,7.615,0,0,1,3.906,3.892c.524,1.644-.848,3.006-1.286,4.492a7.143,7.143,0,0,0,2.2,6.893c1.434,1.234,3.93.977,4.816,2.863a10.493,10.493,0,0,1,.062,4.969c-.686,1.858-2.944,1.829-4.411,2.706a7.229,7.229,0,0,0-2.93,6.179c.091,2.139,2.582,4.068,1.139,6.193-2.677-2.568-5.34-5.15-8.094-7.637a16.527,16.527,0,0,0,3.411-9.028,15.689,15.689,0,0,0-6.045-13.239,14.564,14.564,0,0,0-12.748-2.568,15.129,15.129,0,0,0-9.375,7.422,15.9,15.9,0,0,0,1.639,17.512q-3.687,3.637-7.4,7.251c-.5.653-1.329.062-1.258-.653-.376-1.748,1.139-3.087,1.443-4.716a7.135,7.135,0,0,0-2.4-6.536c-1.367-1.134-3.568-.938-4.564-2.549a7.046,7.046,0,0,1,.01-5.683c1.01-1.605,3.235-1.405,4.607-2.544A7.112,7.112,0,0,0,135.081,910c-.314-1.629-1.834-3-1.377-4.745a7.669,7.669,0,0,1,3.864-3.935c1.8-.453,3.1,1.258,4.788,1.477,2.825.419,6.15-1.115,7-3.992" fill="#1860a8"/>
      <path id="Path_100565" data-name="Path 100565" d="M141.71,946.078q9.783-9.719,19.542-19.456c6.541,6.474,13.015,13.01,19.575,19.466-13.039,0-26.078.019-39.117-.01M309.3,897.552c3.6.014,7.2-.162,10.8-.091.038,9.7,0,19.4.019,29.1.114,4.526-.2,9.328-2.634,13.277-2.382,4.1-7.246,6.331-11.886,6.241-3.492-.071-7.046.291-10.443-.724a88.833,88.833,0,0,1,1.091-9.042c2.968.9,6.36,1.415,9.3.176,3.025-1.434,3.606-5.126,3.683-8.123.114-10.271-.014-20.547.067-30.818m14.692,7.322c2.468-4.583,7.541-7.184,12.558-7.86a31.4,31.4,0,0,1,16.483,2.148c-.834,2.954-1.615,5.922-2.468,8.871a23.126,23.126,0,0,0-12.1-2.115c-1.872.3-3.911,1.2-4.673,3.054a3.983,3.983,0,0,0,1.7,4.812c3.816,2.539,8.48,3.325,12.353,5.76a13.647,13.647,0,0,1,6.527,7.661,14.387,14.387,0,0,1-1.786,12.024,15.713,15.713,0,0,1-9.056,6.136c-3.311,1.124-6.851.591-10.276.724-3.949.176-7.775-1.072-11.381-2.544.51-3.135,1.443-6.179,2.163-9.266a27.527,27.527,0,0,0,13.458,2.935c2.158-.219,4.654-.948,5.7-3.049a4.655,4.655,0,0,0-1.372-5.707c-2.32-1.758-5.15-2.573-7.822-3.606-3.725-1.491-7.441-3.592-9.671-7.046a13.126,13.126,0,0,1-.329-12.929" transform="translate(-7.438 -0.798)" fill="#789030"/>
    </g>
  </g>
</svg>
