<svg xmlns="http://www.w3.org/2000/svg" width="295" height="170" viewBox="0 0 295 170">
  <g id="t4-p5" transform="translate(-180 -958)">
    <rect id="Rectangle_5333" data-name="Rectangle 5333" width="295" height="170" transform="translate(180 958)" fill="#fff"/>
    <rect id="Rectangle_5334" data-name="Rectangle 5334" width="295" height="5" transform="translate(180 1123)" fill="#ffca28"/>
    <g id="Group_53810" data-name="Group 53810" transform="translate(911.644 1220.998)">
      <path id="Path_100541" data-name="Path 100541" d="M-691.231-148.321c2.823,1.19,5.68,2.309,8.493,3.53-1.915.163-3.84.092-5.758.112-.82-.01-1.82,0-2.357-.735-.626-.833-.32-1.949-.378-2.908m22.4,4.36c3.83-1.619,7.68-3.184,11.523-4.765-.037,1.483.061,2.969-.051,4.449a1.891,1.891,0,0,1-2.235,1.469c-3.085-.19-6.469.626-9.238-1.153m-3.871-24.978c.616-.218,1.221-.466,1.82-.731q.786.439,1.609.82c-1.194,1.4-2.354,2.84-3.541,4.248-.718,1.2-2.694.218-2.456-1.085.755-1.156,1.792-2.1,2.568-3.252m-7.346-1.007c.344.082.687.163,1.034.241-2.058,1.684-2.622,4.374-3.7,6.676-.371,1.085-1.252,2.255-.677,3.428.442.98,1.619,1.16,2.493,1.578,2.942,1.1,5.979,3.071,9.238,1.986a48.8,48.8,0,0,1,5.9-1.517,1.7,1.7,0,0,0,1.112-1.976c-.306-1.837-.758-3.649-1.146-5.469a15.723,15.723,0,0,0-1.962-4.234,15.256,15.256,0,0,1,1.187.959l.119.2c.762,2.316,1.826,4.52,2.731,6.785,2.027-.408,3.945-1.2,5.918-1.806q1.679,3.959,3.309,7.945a3.985,3.985,0,0,1-2.088,5.051c-3.619,1.52-7.258,2.986-10.88,4.5a16.107,16.107,0,0,1-8.176,1.187,24.488,24.488,0,0,1-6.017-1.323c-3.35-1.4-6.724-2.745-10.061-4.17a3.568,3.568,0,0,1-1.633-4.619c1.139-2.775,2.32-5.53,3.449-8.309a52.742,52.742,0,0,0,5.779,1.738c1.173-2.612,2.007-5.4,3.585-7.812.037-.153.105-.463.143-.619.061-.078.184-.235.248-.31l.088-.112m18.04-6.877c1.33-1.884,2.792-3.683,4.211-5.5a12.055,12.055,0,0,1-3.629,8.483,13.91,13.91,0,0,0-.582-2.979m134.571-4.245a5.01,5.01,0,0,0-3.486,3.558,9.111,9.111,0,0,0,.888,7.734,4.766,4.766,0,0,0,7.17.391,7.412,7.412,0,0,0,1.69-5.16,7.494,7.494,0,0,0-1.813-5.3,4.7,4.7,0,0,0-4.449-1.228m-1.731-3.8a11.787,11.787,0,0,1,9.469,1.707,9.979,9.979,0,0,1,3.792,7.292c.344,3.415-.558,7.187-3.248,9.5a11.509,11.509,0,0,1-12.414,1.245,9.6,9.6,0,0,1-5.034-7.721,12.734,12.734,0,0,1,1.333-7.6,9.24,9.24,0,0,1,6.1-4.422m-54.038.687a2.489,2.489,0,0,1,4,0,5.646,5.646,0,0,1,.633,2.228,8.119,8.119,0,0,1,5.343-3.139c2.541-.361,5.479.367,6.979,2.6,1.262,1.707,1.248,3.915,1.286,5.942-.01,3.064.007,6.129,0,9.2,0,1.16-.2,2.541-1.337,3.146a2.613,2.613,0,0,1-3.9-2.156c-.129-3.371.058-6.748-.088-10.115a6.065,6.065,0,0,0-1.231-3.82c-.816-.782-2.034-.622-3.064-.578a4.563,4.563,0,0,0-3.629,4.262c-.252,3.187,0,6.391-.129,9.585a3.541,3.541,0,0,1-.854,2.486,4.611,4.611,0,0,1-2.568.748,7.373,7.373,0,0,1-1.473-1.34,5.479,5.479,0,0,1-.442-2.592q.015-6.969,0-13.941a4.826,4.826,0,0,1,.48-2.5m-17.278,3.816a7.134,7.134,0,0,0-1.85,4.027c3.139.041,6.279.017,9.421.014a7.509,7.509,0,0,0-1.354-3.649,4.4,4.4,0,0,0-6.217-.391m-5.49-.731a9.156,9.156,0,0,1,6.554-3.979,10.9,10.9,0,0,1,7.949,1.6,8.5,8.5,0,0,1,3.493,8.5c-.422,1.551-2.289,1.622-3.6,1.833-3.6.187-7.2-.017-10.8.1a7.337,7.337,0,0,0,1.588,3.976,5.253,5.253,0,0,0,6.343.861,25.51,25.51,0,0,0,3.4-2.684,1.883,1.883,0,0,1,2.843.789c.381,1.371-.51,2.7-1.469,3.6-3.347,3-8.489,3.272-12.527,1.619a9.1,9.1,0,0,1-5.207-6.527,13.179,13.179,0,0,1,1.428-9.687m-56.487-4.255a13.39,13.39,0,0,1,3.354-2.371,2.888,2.888,0,0,1-.684,1.459q-1.643,1.985-3.326,3.939a15.615,15.615,0,0,0,.449-2.041l.326.2c-.037-.4-.078-.792-.119-1.187m-13.748-2.6c.8.881,1.653,2.037,2.993,1.945a3.451,3.451,0,0,0,2.32-1.269,7.013,7.013,0,0,0,7.639,2.126c.122.031.367.088.493.119-.17,2.619-2.561,4.136-4.309,5.755-.874.673-1.592,1.7-2.721,1.942-1.925-.282-3.653-1.3-5.493-1.881-2.483-.813-5.17-2.119-6.156-4.724-.129.218-.258.435-.388.656a9.506,9.506,0,0,0,5.663,4.847,5.3,5.3,0,0,0-2.585,4.248,5.6,5.6,0,0,0,1.738,4.214,14,14,0,0,1-8.816-4.9,13.335,13.335,0,0,1-2.626-10.959c2.139.911,4.309,2.449,6.751,1.867,2.418-.177,4.323-1.99,5.5-3.99m8.18,12.805c4.816-5.843,9.6-11.714,14.441-17.536q.847.684,1.694,1.371-7.01,9-14.02,18c-.911,1.248-3.33-.718-2.116-1.83m190.523-17.6a3.058,3.058,0,0,1,3.085.667,3.584,3.584,0,0,1,.775,2.578q-.02,11.055,0,22.111a3.5,3.5,0,0,1-.731,2.561,2.809,2.809,0,0,1-3.564.541,3.148,3.148,0,0,1-1.411-3.092c.017-7.486-.017-14.972.014-22.458a2.911,2.911,0,0,1,1.833-2.908m-29,.946a2.922,2.922,0,0,1,4.622.044,4.091,4.091,0,0,1,.514,2.252c0,4.541-.017,9.081.007,13.622.082,1.986.156,4.217,1.578,5.772,1.3,1.374,3.333,1.612,5.129,1.524a5.342,5.342,0,0,0,4.136-1.843,9.439,9.439,0,0,0,1.309-5.466c-.01-4.422,0-8.843-.01-13.265a4.159,4.159,0,0,1,.8-2.939,3,3,0,0,1,4.3.2,6.1,6.1,0,0,1,.7,3.439c-.017,4.068.007,8.139-.014,12.21-.092,2.609-.122,5.394-1.493,7.714a9.615,9.615,0,0,1-6.656,4.323,23.91,23.91,0,0,1-5.466.289c-2.445-.432-5.085-.837-6.962-2.619-2.343-2.061-2.962-5.353-3.051-8.326-.017-4.772.01-9.544-.014-14.312a4.306,4.306,0,0,1,.575-2.622m-45.429,10.758a4.777,4.777,0,0,0-3.133,2.871,9.015,9.015,0,0,0,.367,7.884,4.532,4.532,0,0,0,5.85,1.724,5.459,5.459,0,0,0,2.8-4.224,8.777,8.777,0,0,0-1.156-6.353,4.516,4.516,0,0,0-4.728-1.9m7.166-11.275a2.683,2.683,0,0,1,3.33-.044,3.822,3.822,0,0,1,.867,2.85q0,11.066,0,22.128c-.014,1.085-.088,2.415-1.105,3.064a2.525,2.525,0,0,1-3.435-.575,4.618,4.618,0,0,1-.514-2.36,10.335,10.335,0,0,1-5.493,3.36,8.83,8.83,0,0,1-6.432-1.833c-2.653-2.207-3.622-5.83-3.53-9.166-.058-2.9.707-6.013,2.881-8.074a8.967,8.967,0,0,1,8.51-1.843,10.309,10.309,0,0,1,4.1,2.667q.005-3.689-.007-7.374a3.78,3.78,0,0,1,.826-2.8m-88.043.037a2.951,2.951,0,0,1,4.268.639,3.8,3.8,0,0,1,.48,2.122c.01,3.238-.031,6.476.014,9.71,3.785-3.884,7.534-7.8,11.3-11.71a3.515,3.515,0,0,1,2.711-1.391,2.579,2.579,0,0,1,2.728,2.367,3.149,3.149,0,0,1-1.163,2.578c-2.269,2.214-4.561,4.4-6.918,6.52,2.748,4.139,5.714,8.136,8.506,12.248.792,1.2,1.507,2.891.629,4.238a3.469,3.469,0,0,1-5.4-.469c-2.541-4.054-5.211-8.027-7.8-12.05-1.272,1.333-2.707,2.5-4.013,3.8-.963.922-.5,2.384-.605,3.561-.075,1.565.269,3.224-.33,4.717a2.849,2.849,0,0,1-4.194.959,2.844,2.844,0,0,1-1.163-2.622c-.01-7.476,0-14.955-.007-22.431a3.523,3.523,0,0,1,.956-2.789m-20.291-1.592a13.045,13.045,0,0,1,1.309-1.428,2.605,2.605,0,0,1,2.105,1.391c-.051.884-.823,2.017-1.813,1.864a2.888,2.888,0,0,1-1.6-1.826m2.218-2.105c2.432-3.017,4.932-5.983,7.36-9a16.311,16.311,0,0,0,1.442,1.116c-2.449,3.017-4.785,6.129-7.193,9.183-.534-.435-1.071-.871-1.609-1.3m9.387-11.805a1.176,1.176,0,0,1,1.738.956,4,4,0,0,1-1.5,2.064,1.173,1.173,0,0,1-1.565-1.371,5,5,0,0,1,1.326-1.65m-26.56,12.561c.034.109.105.327.143.435l.289-.126.027-.316-.269-.156-.19.163m-7.091-.075c1.211.881,2.782.85,4.207.973.027.269.082.813.105,1.085.177-.384.354-.765.524-1.15.752-.075,1.5-.163,2.248-.248-.857-.616-2.027-.15-2.864-.792l.109.517c-1.449-.048-2.881-.333-4.33-.384m4.207-15.805c.024.275.075.826.1,1.1-1.435.126-2.973-.1-4.3.582a38.538,38.538,0,0,0,4.343.105c.034.565.068,1.129.109,1.694a19.268,19.268,0,0,0-6.194.7c2.037.5,4.19-.167,6.275.109.014.548.027,1.1.037,1.646-2.367.156-4.8-.092-7.108.548.18.065.537.2.718.262,2.143.156,4.3.02,6.449.054q.01.9.02,1.8c-2.462.1-4.918-.333-7.374-.088a3.328,3.328,0,0,0,2.258.687c1.7.1,3.408.167,5.112.173,0,.656-.01,1.316-.02,1.976-2.408,0-4.772-.544-7.17-.636,2.1,1.343,4.745,1.167,7.132,1.309-.041.6-.085,1.19-.133,1.782-2.105-.027-4.166-.483-6.258-.622,1.752,1.187,3.966,1.058,5.969,1.347.279.425.527.867.806,1.292.027-.347.082-1.044.109-1.394,1.656-.163,3.479-.207,4.857-1.265-1.592.1-3.156.435-4.741.578.051-.6.109-1.194.163-1.789,1.789-.194,3.8-.119,5.316-1.245-1.765.034-3.5.422-5.255.561-.01-.639-.014-1.275-.02-1.915,1.833-.221,3.877.207,5.523-.8a29.569,29.569,0,0,0-5.513.061c0-.6,0-1.2,0-1.8,1.738-.146,3.581.337,5.245-.3a17.874,17.874,0,0,0-5.3-.476c-.037-.6-.082-1.194-.126-1.792a43.23,43.23,0,0,0,4.694.085c-1.432-.877-3.2-.616-4.789-.857-.075-.558-.15-1.112-.221-1.67a29.02,29.02,0,0,0,3.262-.1,7.529,7.529,0,0,0-3.408-.544c-.054-.3-.167-.908-.221-1.211l-.347.058m-2.092-.956a6.541,6.541,0,0,1,6.523,2.228,11.659,11.659,0,0,1,.735,13.506,6.851,6.851,0,0,1-5.758,3.35,6.877,6.877,0,0,1-5.748-3.354,11.88,11.88,0,0,1-.51-11.669,7.722,7.722,0,0,1,4.758-4.061m-.707-.728a8.564,8.564,0,0,0-5.177,4.666,12.432,12.432,0,0,0,.636,11.8,7.955,7.955,0,0,0,5.758,3.792,7.361,7.361,0,0,0,6.347-2.745,12.128,12.128,0,0,0-.1-15.125,7.227,7.227,0,0,0-7.462-2.388m-1.326-.959a9.331,9.331,0,0,1,7.778,1.626c4.381,3.238,5.656,9.571,3.632,14.492-.986,2.547-3.1,4.37-4.819,6.411-.969,1.061-1.85,2.207-2.891,3.2a2.389,2.389,0,0,1-3.367-.265c-1.83-2.044-3.636-4.109-5.459-6.156a12.7,12.7,0,0,1-.792-15.1,10.089,10.089,0,0,1,5.918-4.211" fill="#161616"/>
      <path id="Path_100542" data-name="Path 100542" d="M-678.957-128.411c.949-2.1,1.548-4.646,3.66-5.9,1.486.17,2.915.636,4.377.929-.911,1.1-1.843,2.17-2.772,3.248a5.141,5.141,0,0,0,1.031,1.714,4.79,4.79,0,0,0,1.986.585c1.605-1.908,3.167-3.854,4.857-5.687,1.922,2.272,2.17,5.313,2.816,8.091a1.875,1.875,0,0,1-.524,2.2,12.6,12.6,0,0,1-2.9.775c-1.5.252-2.888,1.024-4.432,1.02-2.33.15-4.35-1.18-6.466-1.932-.908-.439-2.194-.646-2.524-1.755-.235-1.17.517-2.224.891-3.282m20.237-9.282c.636.789,1.01,1.748,1.575,2.585a19.573,19.573,0,0,0,4.367,4.605c-.381.609-.758,1.316-1.52,1.493-2.2.731-4.374,1.558-6.636,2.075a60.732,60.732,0,0,0-2.476-5.615c-.085-.1-.258-.289-.344-.388l-.119-.2c-.231-.415-.456-.83-.68-1.248a12.052,12.052,0,0,0,3.558-.86,10.817,10.817,0,0,0,2.275-2.445m-30.849,7.156a18.9,18.9,0,0,0,6.064-8.142,13.1,13.1,0,0,0,6.268,3.7c-.051.068-.16.2-.211.275s-.187.231-.248.31c-2.122,1.993-2.466,5.075-3.99,7.411-1.949-.412-3.8-1.184-5.7-1.741-.942-.255-2.014-.735-2.184-1.816m21.019-7.483a3.858,3.858,0,0,1,1.891-2.207,4.021,4.021,0,0,0,.8,2.255c.67.864,1.84.956,2.826,1.177-.66.99-1.3,2.568-2.745,2.425a2.939,2.939,0,0,1-2.772-3.649m5.19,2.82a13.7,13.7,0,0,1,3.333-5.479c.16,1.258.316,2.69-.52,3.762a4.622,4.622,0,0,1-2.813,1.718m-11.339-5.983a3.143,3.143,0,0,1,2.83-1.612,7.881,7.881,0,0,1,4.758,2.367,4.342,4.342,0,0,0-2.007,2.357,5.269,5.269,0,0,0,.374,3.088,5.12,5.12,0,0,1-4.473-.031,4.382,4.382,0,0,1-1.483-6.17m8.836-.7a8.8,8.8,0,0,1,2.275-1.629,11.379,11.379,0,0,1-2.782,3.1c-.374-.585.15-1.051.507-1.466m-1.877-10.843c1.86-2.187,3.823-4.285,5.683-6.476A13.347,13.347,0,0,0-655.7-156a2.681,2.681,0,0,1-1.626,2.581c-1.806,1.133-3.449,2.922-5.738,2.891a6.394,6.394,0,0,1-4.677-2.2m-19.836-1.252a13.734,13.734,0,0,0,7.452-6.779c1.7,2.769,4.132,4.966,6.187,7.455a6.766,6.766,0,0,1-4.377,3.69,6.277,6.277,0,0,1-4.452-.694c-1.309-.653-2.68-1.184-3.956-1.9-.639-.347-.646-1.16-.854-1.772" transform="translate(-2.689 -35.134)" fill="#fd5501"/>
    </g>
  </g>
</svg>
