<svg xmlns="http://www.w3.org/2000/svg" width="295" height="170" viewBox="0 0 295 170">
  <g id="t4-p3" transform="translate(-810 -748)">
    <rect id="Rectangle_5597" data-name="Rectangle 5597" width="295" height="170" transform="translate(810 748)" fill="#fff"/>
    <rect id="Rectangle_5598" data-name="Rectangle 5598" width="295" height="5" transform="translate(810 913)" fill="#ffca28"/>
    <g id="Group_55372" data-name="Group 55372" transform="translate(-571 11700)">
      <g id="Group_55372-2" data-name="Group 55372" transform="translate(53.583 -289.687)">
        <path id="Path_102968" data-name="Path 102968" d="M608.633,464.535a8.761,8.761,0,0,1,8.25-1.006,5.659,5.659,0,0,1,3.6,4.611c-.866.058-1.729.086-2.591.107a3.631,3.631,0,0,0-3.8-2.669c-1.614-.078-3.864.14-4.447,1.942-.476,1.088.464,2.107,1.413,2.5,2.612,1.129,5.7.99,8.086,2.677a4.667,4.667,0,0,1,.965,6.587,7.381,7.381,0,0,1-5.622,2.562c-2.41.144-5.08-.427-6.747-2.3a6.569,6.569,0,0,1-1.318-3.24c.854-.012,1.712-.012,2.571-.008.521,2.949,4.143,3.273,6.529,2.813,1.285-.275,2.821-1.1,2.9-2.571a2.156,2.156,0,0,0-1.45-2.168c-2.759-1.2-6.1-.953-8.529-2.911A4.578,4.578,0,0,1,608.633,464.535Z" transform="translate(918.534 -11047.273)" fill="#3c5afd"/>
        <path id="Path_102969" data-name="Path 102969" d="M448.656,463.992l2.616-.012q4.9,6.831,9.81,13.654c.074-4.55.012-9.1.033-13.646.866,0,1.733,0,2.6,0q.006,9.03,0,18.064-1.306,0-2.612.012-4.909-6.819-9.814-13.646c-.078,4.546-.012,9.092-.033,13.638-.871,0-1.741,0-2.6,0Q448.649,473.02,448.656,463.992Z" transform="translate(1011.515 -11047.881)" fill="#3c5afd"/>
        <path id="Path_102970" data-name="Path 102970" d="M519.739,464.45q1.294-.253,2.591-.48c0,1.63.008,3.265-.016,4.9.875.029,1.749.058,2.624.107-.045.854-.074,1.708-.115,2.567q-1.25-.025-2.493-.037c.07,2.074-.148,4.172.115,6.238.263,1.154,1.462,1.544,2.439,1.909,0,.8.008,1.606.016,2.41a5.09,5.09,0,0,1-5.113-4.464c-.156-2.033,0-4.07-.086-6.1l-2.255.025c0-.871,0-1.741,0-2.612.756,0,1.519,0,2.279,0C519.722,467.423,519.722,465.937,519.739,464.45Z" transform="translate(970.971 -11047.875)" fill="#3c5afd"/>
        <path id="Path_102971" data-name="Path 102971" d="M539,464c.866,0,1.737,0,2.608,0q-.006,1.3-.008,2.6H539C538.993,465.73,539,464.864,539,464Z" transform="translate(958.271 -11047.89)" fill="#3c5afd"/>
        <path id="Path_102972" data-name="Path 102972" d="M694,464c.867,0,1.733,0,2.6,0v2.6c-.871,0-1.737,0-2.6.008Q693.989,465.3,694,464Z" transform="translate(866.923 -11047.89)" fill="#3c5afd"/>
        <path id="Path_102973" data-name="Path 102973" d="M737.738,464.455c.858-.168,1.721-.333,2.587-.485.008,1.63.012,3.265-.012,4.9.867.033,1.737.053,2.612.095-.037.854-.057,1.712-.086,2.571-.842-.012-1.675-.021-2.509-.025a62.224,62.224,0,0,0,.123,6.25c.267,1.146,1.462,1.532,2.435,1.893,0,.8,0,1.614,0,2.423a5.122,5.122,0,0,1-5.109-4.5c-.152-2.024,0-4.057-.082-6.086-.755.012-1.507.021-2.25.033q-.012-1.312,0-2.616,1.133-.006,2.279,0C737.721,467.423,737.721,465.937,737.738,464.455Z" transform="translate(842.493 -11047.875)" fill="#3c5afd"/>
        <path id="Path_102974" data-name="Path 102974" d="M490,476.9c2.189-.78,4.677-1.376,6.915-.423a4.558,4.558,0,0,1,2.957,4c.074,2.883,0,5.77.025,8.656-.879,0-1.753,0-2.624,0l.082-1.232c-2.193,2.341-6.652,2.254-8.229-.723-1.285-2.226.386-5.043,2.719-5.638,1.827-.4,3.72-.107,5.577-.259-.156-.8-.3-1.737-1.1-2.16-1.778-1.064-3.938-.333-5.765.226q-.308-1.22-.554-2.443m1.244,8.155c.374,2.127,3.273,2.181,4.883,1.556,1.417-.435,1.166-2.025,1.216-3.182C495.334,483.477,492.271,482.75,491.248,485.054Z" transform="translate(987.922 -11054.956)" fill="#3c5afd"/>
        <path id="Path_102975" data-name="Path 102975" d="M578.708,477.081a5.561,5.561,0,0,1,7.412.735c1.573,1.56,1.963,3.852,1.967,5.979-3.15.016-6.3-.016-9.453.016.435,1.2,1.043,2.521,2.349,2.953a3.871,3.871,0,0,0,4.065-1.244c.694.464,1.392.932,2.094,1.4a6.067,6.067,0,0,1-8.685,1.367c-3.355-2.751-3.269-8.628.251-11.2m-.078,4.653q3.351.031,6.7,0c-.427-1.622-1.741-3.367-3.61-3.125C580.051,478.727,579.086,480.292,578.63,481.733Z" transform="translate(936.46 -11054.961)" fill="#3c5afd"/>
        <path id="Path_102976" data-name="Path 102976" d="M644.441,480.139a6.344,6.344,0,0,1,6.114-4.168,6.691,6.691,0,0,1,5.076,2.513c-.694.522-1.4,1.022-2.107,1.515a4.022,4.022,0,0,0-4.887-.986c-2.759,1.437-2.755,6.045,0,7.486a4.036,4.036,0,0,0,4.878-.977c.723.485,1.45.981,2.172,1.478a6.737,6.737,0,0,1-7.917,1.979C644.5,487.548,643.144,483.355,644.441,480.139Z" transform="translate(896.413 -11054.944)" fill="#3c5afd"/>
        <path id="Path_102977" data-name="Path 102977" d="M677.567,477.838a6.3,6.3,0,0,1,4.554-2.008c0,.867,0,1.737,0,2.612-1.815-.045-4,.653-4.353,2.694-.361,2.612-.07,5.273-.164,7.9-.871,0-1.737,0-2.6,0V476.31c.871,0,1.741,0,2.616,0C677.6,476.82,677.579,477.329,677.567,477.838Z" transform="translate(878.116 -11054.865)" fill="#3c5afd"/>
        <path id="Path_102978" data-name="Path 102978" d="M708.546,477.984a5.827,5.827,0,0,1,3.544-1.971,5.08,5.08,0,0,1,4.476,1.708,7.751,7.751,0,0,1,1.043,8.587,5.532,5.532,0,0,1-5.055,3.228,5.468,5.468,0,0,1-4.008-2.016c.115,2.312.037,4.624.058,6.94-.871,0-1.737,0-2.6,0V476.391h2.624c-.029.53-.053,1.064-.078,1.593m2.583.747c-3.355,1.257-3.363,6.8,0,8.049,2.234.821,4.439-1.166,4.665-3.339C716.336,480.858,713.905,477.729,711.129,478.731Z" transform="translate(859.846 -11054.944)" fill="#3c5afd"/>
        <path id="Path_102979" data-name="Path 102979" d="M539,477c.866,0,1.733,0,2.6,0q.006,6.363,0,12.73c-.871,0-1.737,0-2.6,0Z" transform="translate(958.268 -11055.551)" fill="#3c5afd"/>
        <path id="Path_102980" data-name="Path 102980" d="M546.95,476.988c.936,0,1.873,0,2.813.021q1.682,4.509,3.425,9c1.121-3,2.3-5.971,3.384-8.981.94-.033,1.881-.045,2.829-.049-1.548,4.242-3.24,8.426-4.764,12.677-.944.045-1.885.07-2.825.09C550.161,485.509,548.568,481.242,546.95,476.988Z" transform="translate(953.583 -11055.542)" fill="#3c5afd"/>
        <path id="Path_102981" data-name="Path 102981" d="M694,477c.866,0,1.733,0,2.6,0q.006,6.363,0,12.73c-.871,0-1.737,0-2.6,0Z" transform="translate(866.918 -11055.551)" fill="#3c5afd"/>
      </g>
      <path id="Path_104260" data-name="Path 104260" d="M-609.707,600.311c1.061-.049,2.1-.262,3.164-.3,11.675-.009,23.355.013,35.03-.013,1.216-.013,2.41.257,3.621.311a18.8,18.8,0,0,1,16.179,12.558c1.154,3.244,1.216,6.736,1.189,10.144q0,16.414,0,32.829c-.107,3.6-.533,7.322-2.37,10.5a18.892,18.892,0,0,1-16.343,10.038q-19.769-.033-39.539-.009a18.855,18.855,0,0,1-17.786-15.833,15.567,15.567,0,0,1-.324-4.717q-.007-17.3,0-34.6a23.663,23.663,0,0,1,.284-5.374A19.062,19.062,0,0,1-612.37,600.71c.888-.111,1.779-.253,2.663-.4" transform="translate(2045.902 -11505.678)" fill="#3c5afd"/>
      <path id="Path_102967" data-name="Path 102967" d="M421.588,118.92a6.455,6.455,0,0,1,4.769-2.066c2.146.007,4.294-.019,6.438.014Q444.943,132.1,457.134,147.3c.5.6.951,1.249,1.5,1.814q.013-16.113-.007-32.225c2.143-.072,4.289-.01,6.433-.032a6.46,6.46,0,0,1,6.494,6.5q-.005,6.387,0,12.776a6.486,6.486,0,0,0,1.672,4.444,6.6,6.6,0,0,0,4.294,2.124,6.586,6.586,0,0,0-4.042,1.861,6.446,6.446,0,0,0-1.921,4.527c-.01,4.374,0,8.748-.005,13.122a6.461,6.461,0,0,1-6.5,6.336c-2.146-.01-4.294.017-6.44-.015q-12.15-15.234-24.343-30.435c-.5-.605-.956-1.239-1.49-1.814q-.018,16.118,0,32.237c-2.144.058-4.289.009-6.433.027a6.46,6.46,0,0,1-6.488-6.327c-.012-4.434.012-8.865-.012-13.3a6.494,6.494,0,0,0-5.952-6.211,6.724,6.724,0,0,0,4.04-1.872,6.454,6.454,0,0,0,1.919-4.527c.009-4.319,0-8.64,0-12.96A6.45,6.45,0,0,1,421.588,118.92Z" transform="translate(1011.482 -11010.203)" fill="#fff"/>
    </g>
  </g>
</svg>
