<svg id="t4-p9" xmlns="http://www.w3.org/2000/svg" width="295" height="170" viewBox="0 0 295 170">
  <rect id="Rectangle_5379" data-name="Rectangle 5379" width="295" height="170" fill="#fff"/>
  <g id="Group_53837" data-name="Group 53837" transform="translate(50 30)">
    <path id="Logo" d="M63.392,56a5.9,5.9,0,0,0-4.97,2.843L42.744,85.772a5.8,5.8,0,0,0,0,5.685l15.677,26.929a5.894,5.894,0,0,0,4.97,2.843H94.747a5.9,5.9,0,0,0,4.97-2.843l15.677-26.929a5.8,5.8,0,0,0,0-5.685L99.717,58.843A5.894,5.894,0,0,0,94.747,56Zm.285,15.754a.7.7,0,0,1,.131,0h5.408a.714.714,0,0,1,.591.347l9.174,16.166a.685.685,0,0,1,.087.26.687.687,0,0,1,.087-.26L88.308,72.1a.718.718,0,0,1,.613-.347H94.33a.731.731,0,0,1,.613,1.02L85.987,88.614l8.956,15.819a.732.732,0,0,1-.613,1.041H88.922a.717.717,0,0,1-.613-.369L79.156,88.94a.692.692,0,0,1-.087-.26.689.689,0,0,1-.087.26l-9.174,16.166a.716.716,0,0,1-.591.369H63.808a.732.732,0,0,1-.613-1.041L72.15,88.614,63.195,72.774a.727.727,0,0,1,.482-1.02Z" transform="translate(18.177 -56)" fill="#3498db" fill-rule="evenodd"/>
    <g id="xamarin-logo" transform="translate(0 67.07)">
      <path id="Logo-2" data-name="Logo" d="M129.047,103.865l-7.383-13.971-7.551,13.971h-8.121l11.514-18.031-10.362-17.92h8.233L122.1,81.529l7.284-13.615h7.531L126.272,85.723l10.811,18.142Zm26.328,0V99.952h-.112a9.6,9.6,0,0,1-8.514,4.607,9.431,9.431,0,0,1-6.687-2.275,8.064,8.064,0,0,1-2.445-6.161q0-8.27,9.413-9.407l8.4-1.138q0-5.8-5.451-5.8a15.9,15.9,0,0,0-9.554,3.164V77.281a18.188,18.188,0,0,1,4.664-1.748,22.821,22.821,0,0,1,5.564-.777q11.127,0,11.127,11.1v18.01ZM149.221,90.85a7.6,7.6,0,0,0-4.074,1.415,4.065,4.065,0,0,0-1.152,3.192,3.672,3.672,0,0,0,1.321,2.914,5.191,5.191,0,0,0,3.455,1.11,6.324,6.324,0,0,0,4.777-1.971,6.833,6.833,0,0,0,1.882-4.912V90.046l-6.209.8Zm53.988,13.015V87.825q0-3.968-1.264-5.883Q200.709,80,197.505,80a5.2,5.2,0,0,0-4.3,2.331,8.977,8.977,0,0,0-1.743,5.578v15.957h-6.491V87.271q0-7.271-5.648-7.271a5.3,5.3,0,0,0-4.356,2.192,9.12,9.12,0,0,0-1.685,5.716v15.957h-6.491V75.449h6.491v4.385h.112a10.046,10.046,0,0,1,9.1-5.078,8.744,8.744,0,0,1,5.058,1.5,7.79,7.79,0,0,1,3.119,4.079,10.564,10.564,0,0,1,9.666-5.578q9.385,0,9.385,11.544v17.566Zm28.1,0V99.952h-.112a9.6,9.6,0,0,1-8.514,4.607,9.431,9.431,0,0,1-6.688-2.275,8.064,8.064,0,0,1-2.445-6.161q0-8.27,9.414-9.407l8.4-1.138q0-5.8-5.451-5.8a15.9,15.9,0,0,0-9.554,3.164V77.281a18.194,18.194,0,0,1,4.665-1.748,22.815,22.815,0,0,1,5.563-.777q11.127,0,11.127,11.1v18.01ZM225.153,90.85a7.6,7.6,0,0,0-4.074,1.415,4.064,4.064,0,0,0-1.152,3.192,3.674,3.674,0,0,0,1.32,2.914,5.193,5.193,0,0,0,3.456,1.11,6.323,6.323,0,0,0,4.777-1.971,6.831,6.831,0,0,0,1.883-4.912V90.046l-6.21.8Zm34.3-9.158a7.117,7.117,0,0,0-3.765-.971,5.459,5.459,0,0,0-4.58,2.387,10.29,10.29,0,0,0-1.742,6.216v14.542h-6.491V75.449h6.491v5.522h.112q2.079-6.022,7.362-6.022a6.853,6.853,0,0,1,2.614.389v6.355Zm6.462-12.6a4.01,4.01,0,0,1-2.81-1.055,3.481,3.481,0,0,1-1.152-2.636,3.543,3.543,0,0,1,1.152-2.692,4.185,4.185,0,0,1,5.648.028,3.624,3.624,0,0,1,0,5.3A4.047,4.047,0,0,1,265.917,69.094ZM262.6,103.865V75.449h6.491v28.416Zm31.022,0V87.909q0-7.908-5.76-7.909A6.272,6.272,0,0,0,283,82.192a7.966,7.966,0,0,0-1.939,5.522v16.151h-6.491V75.449h6.491V80h.112a10.209,10.209,0,0,1,9.329-5.245q9.609,0,9.61,11.655v17.455h-6.491Z" transform="translate(-105.992 -61.629)" fill="#3498db" fill-rule="evenodd"/>
    </g>
  </g>
  <rect id="Rectangle_5380" data-name="Rectangle 5380" width="295" height="5" transform="translate(0 165)" fill="#ffca28"/>
</svg>
