<svg xmlns="http://www.w3.org/2000/svg" width="190" height="240" viewBox="0 0 190 240">
  <g id="t5-ic1" transform="translate(-390 -4851)">
    <rect id="Rectangle_5275" data-name="Rectangle 5275" width="190" height="240" transform="translate(390 4851)" fill="none"/>
    <g id="Group_55215" data-name="Group 55215" transform="translate(-988.81 2500.059)">
      <path id="Path_102966" data-name="Path 102966" d="M1562.872,2643l-64.417-37.19c-2.24-1.293-1.959-3.552.627-5.045h0c2.586-1.493,6.5-1.655,8.737-.362l64.418,37.191c2.239,1.293,1.958,3.552-.627,5.044h0C1569.023,2644.13,1565.111,2644.292,1562.872,2643Z" transform="translate(-23.663 -53.9)" fill="#efefef"/>
      <path id="Path_102967" data-name="Path 102967" d="M1572.751,2392.073l-69.408-40.08c-2.281-1.317-4.352-1.349-5.918-.361l0-.016-8.709,5.044,5.84,1.09c-.018.3-.035.6-.035.915v163.707c0,6.5,3.951,14.05,8.825,16.864l68.434,39.517c-.623,1.956-1.949,6.067-1.949,6.067l8.516-4.939h0c1.975-1.018,3.236-3.566,3.236-7.236V2408.937C1581.577,2402.438,1577.625,2394.888,1572.751,2392.073Z" transform="translate(-21.878 0)" fill="#026899"/>
      <path id="Path_102968" data-name="Path 102968" d="M1496.124,2535.6c0,6.5,3.951,14.05,8.825,16.864l68.434,39.517c-.623,1.956-1.949,6.067-1.949,6.067l8.516-4.939h0c1.975-1.018,3.236-3.566,3.236-7.236V2422.169a21.938,21.938,0,0,0-2.8-10.2l-84.257,48.646Z" transform="translate(-23.485 -13.232)" fill="#014363"/>
      <path id="Path_102969" data-name="Path 102969" d="M1563.178,2585.79l-69.408-40.08c-4.874-2.815-8.826-10.365-8.826-16.864V2365.14c0-6.5,3.952-9.487,8.826-6.672l69.408,40.081c4.875,2.814,8.826,10.364,8.826,16.863v163.707C1572,2585.617,1568.053,2588.6,1563.178,2585.79Z" transform="translate(-21.061 -1.402)" fill="#d4ecff"/>
      <path id="Path_102970" data-name="Path 102970" d="M1565.01,2397.807l-69.408-40.08c-2.514-1.451-4.777-1.349-6.385-.029,1.506-.725,3.407-.586,5.48.61l69.408,40.081c4.875,2.814,8.826,10.364,8.826,16.864v163.706c0,3.148-.932,5.461-2.442,6.7,2.037-.98,3.347-3.547,3.347-7.283V2414.671C1573.835,2408.171,1569.884,2400.621,1565.01,2397.807Z" transform="translate(-21.988 -1.242)" fill="#fff"/>
      <path id="Path_102971" data-name="Path 102971" d="M1562.907,2581.7l-66.693-38.512c-3.624-2.092-6.561-7.7-6.561-12.535V2369.267c0-4.831,2.937-7.051,6.561-4.959l66.693,38.512c3.623,2.092,6.56,7.7,6.56,12.535v161.381C1569.466,2581.567,1566.529,2583.788,1562.907,2581.7Z" transform="translate(-22.082 -2.727)" fill="#fff"/>
      <path id="Path_102972" data-name="Path 102972" d="M1563.456,2581.513,1496.763,2543c-3.623-2.092-6.56-7.7-6.56-12.535v-161.38c0-2.711.925-4.6,2.377-5.365-1.764.55-2.927,2.552-2.927,5.591v161.381c0,4.831,2.938,10.443,6.561,12.535l66.693,38.512a4.25,4.25,0,0,0,4.183.406A4.547,4.547,0,0,1,1563.456,2581.513Z" transform="translate(-22.082 -2.771)" fill="#5793ce"/>
      <path id="Path_102973" data-name="Path 102973" d="M1539.289,2551.546l-32.737-18.9v-79.581l15.424,8.9a34.626,34.626,0,0,1,17.313,29.987Z" transform="translate(-25.746 -22.143)" fill="#efefef"/>
      <g id="Group_55184" data-name="Group 55184" transform="translate(1437.935 2421.955)">
        <path id="Path_102974" data-name="Path 102974" d="M1482.978,2442.884l0,.006c-3.3-1.967-7.895-1.725-12.966,1.2-10.038,5.8-18.2,19.94-18.2,31.53v8.364h0l.344.2,32.8,19.293.5-10.009.409-3.887,1.739-6.035.2-.924,3.729-7.515,2.938-3.669,2.382-2.839,5.8-4.569.51-.379,2.853-1.228,3.836-1h2.992l3.346.586Z" transform="translate(-1451.812 -2441.615)" fill="#b4e4eb"/>
        <path id="Path_102975" data-name="Path 102975" d="M1496.943,2531.287l1.063-.613v-38.107a7.818,7.818,0,0,0-1.063,2.7Z" transform="translate(-1461.598 -2452.663)" fill="#d4ecff"/>
        <path id="Path_102976" data-name="Path 102976" d="M1530.085,2544.884l-33.142-19.094.342-36.074,1.266-3.644,3.836-6.6,4.539-5.383,4.092-3.273,4.424-2.685,8.026-.92,4.245,2.4,2.372,3.631.748,5.574-.256,60.3Z" transform="translate(-1461.598 -2447.166)" fill="#b4e4eb"/>
        <path id="Path_102977" data-name="Path 102977" d="M1488.7,2442.891c-2.765-1.646-6.431-1.738-10.524-.012l33.767,19.5,3.622-.941h2.992l3.346.586-33.207-19.135Z" transform="translate(-1457.528 -2441.616)" fill="#014363"/>
        <g id="Group_55183" data-name="Group 55183" transform="translate(11.867 0.949)">
          <path id="Path_102978" data-name="Path 102978" d="M1477.689,2442.827a21.093,21.093,0,0,0-3.237,1.528c-.739.427-1.466.9-2.182,1.417l33.662,19.435,1.152-.908.51-.379,2.853-1.227,1.138-.3Z" transform="translate(-1468.115 -2442.827)" fill="#b4e4eb"/>
          <path id="Path_102979" data-name="Path 102979" d="M1500.417,2469.414l4.579-3.606-33.652-19.428a32.522,32.522,0,0,0-4.38,3.721Z" transform="translate(-1466.965 -2443.597)" fill="#fff"/>
          <path id="Path_102980" data-name="Path 102980" d="M1530.537,2544.006l-1.063.614V2479.6c0-10.914-7.689-15.353-17.141-9.9s-17.141,18.776-17.141,29.689v8.766l-1.064.615V2500c0-11.59,8.166-25.734,18.2-31.53s18.2-1.081,18.2,10.51Z" transform="translate(-1472.855 -2447.85)" fill="#014363"/>
        </g>
      </g>
      <path id="Path_102981" data-name="Path 102981" d="M1462.9,2477.1l-1.866,7.626.933,12.321-2.365-1.391-3.026-6.7,2.649-8.465Z" transform="translate(-14.909 -27.354)" fill="#aedeed"/>
      <g id="Group_55186" data-name="Group 55186" transform="translate(1476.225 2461.777)" style="mix-blend-mode: multiply;isolation: isolate">
        <path id="Path_102982" data-name="Path 102982" d="M1526.691,2529.234a1.246,1.246,0,0,1-.62-.182l-24.1-13.916a2.951,2.951,0,0,1-1.266-2.384V2493.79a1.324,1.324,0,0,1,.565-1.2,1.059,1.059,0,0,1,1.089.057l24.1,13.915a2.955,2.955,0,0,1,1.266,2.384v18.963a1.322,1.322,0,0,1-.565,1.2A.92.92,0,0,1,1526.691,2529.234Zm-24.953-36a.162.162,0,0,0-.082.02c-.082.047-.178.215-.178.531v18.963a2.18,2.18,0,0,0,.879,1.713l24.1,13.915c.063.036.218.115.313.057s.177-.215.177-.532v-18.963a2.175,2.175,0,0,0-.878-1.712l-24.1-13.915A.521.521,0,0,0,1501.738,2493.238Z" transform="translate(-1500.703 -2492.461)" fill="#b4e4eb" opacity="0.4"/>
        <g id="Group_55185" data-name="Group 55185" transform="translate(7.441 11.143)">
          <path id="Path_102983" data-name="Path 102983" d="M1511.511,2518.994l-.169-.1a2.725,2.725,0,0,1-1.138-2.173v-9.037c0-.837.51-1.223,1.138-.86l.169.1a2.722,2.722,0,0,1,1.138,2.173v9.036C1512.649,2518.973,1512.14,2519.357,1511.511,2518.994Z" transform="translate(-1510.204 -2506.69)" fill="#b4e4eb"/>
          <path id="Path_102984" data-name="Path 102984" d="M1517.7,2523.606l-.17-.1a2.724,2.724,0,0,1-1.137-2.173v-5.289c0-.838.509-1.222,1.137-.86l.17.1a2.725,2.725,0,0,1,1.137,2.174v5.29C1518.839,2523.583,1518.329,2523.968,1517.7,2523.606Z" transform="translate(-1511.546 -2508.502)" fill="#b4e4eb"/>
          <path id="Path_102985" data-name="Path 102985" d="M1523.89,2525.158l-.17-.1a2.725,2.725,0,0,1-1.137-2.173V2510.3c0-.838.509-1.223,1.137-.86l.17.1a2.722,2.722,0,0,1,1.137,2.173v12.59C1525.027,2525.135,1524.518,2525.52,1523.89,2525.158Z" transform="translate(-1512.888 -2507.256)" fill="#b4e4eb"/>
        </g>
      </g>
      <g id="Group_55191" data-name="Group 55191" transform="translate(1387.81 2439.22)">
        <ellipse id="Ellipse_4078" data-name="Ellipse 4078" cx="17.179" cy="9.918" rx="17.179" ry="9.918" transform="translate(7.315 103.725)" fill="#efefef"/>
        <g id="Group_55190" data-name="Group 55190" transform="translate(0 0)">
          <path id="Path_102986" data-name="Path 102986" d="M1408.321,2475.859s.383,7.9.984,13.217,13.4-4.081,13.4-4.081v-6.048Z" transform="translate(-1392.257 -2466.305)" fill="#ffca28"/>
          <g id="Group_55188" data-name="Group 55188" transform="translate(6.74 3.13)">
            <path id="Path_102987" data-name="Path 102987" d="M1416.986,2600.548c.192.48,3.507,4.516,6.822,5.524a7.6,7.6,0,0,0,3.046.421,1,1,0,0,0,.816-1.338,12.593,12.593,0,0,0-6.36-7.01C1415.689,2595.359,1416.986,2600.548,1416.986,2600.548Z" transform="translate(-1400.848 -2495.772)" fill="#12263f"/>
            <path id="Path_102988" data-name="Path 102988" d="M1414.327,2603.42a27.436,27.436,0,0,1,1.634,5.382c.234,1.494-.586,3.435-1.262,4.723a1.378,1.378,0,0,1-2.149.372,7.972,7.972,0,0,1-2.691-5.143c-.384-4.132,0-4.853,0-4.853Z" transform="translate(-1399.293 -2497.094)" fill="#12263f"/>
            <path id="Path_102989" data-name="Path 102989" d="M1405.361,2538.529a78.617,78.617,0,0,0,0,10.977c.433,5.766,1.981,32.728,2.269,39.214,0,0-.144,1.964,3.657,1.531s3.5-2.612,3.5-2.612,5.339-.072,5.507-3.219,5.468-37.579,5.468-49.958Z" transform="translate(-1398.313 -2482.142)" fill="#d4ecff"/>
            <g id="Group_55187" data-name="Group 55187">
              <path id="Path_102990" data-name="Path 102990" d="M1433.346,2505.244l2.616,4.051,8.992,10.86a2.017,2.017,0,0,1-1.429,1.272c-.875.206-8.437-7.009-11.7-10.175a2.508,2.508,0,0,1-.344-3.187Z" transform="translate(-1403.927 -2475.807)" fill="#ffc2b0"/>
              <path id="Path_102991" data-name="Path 102991" d="M1427.464,2484.012s4.155-.108,5.6,5.9,2.578,13.524,1.32,14.149c-3.777,1.876-6.166-.32-6.166-.32Z" transform="translate(-1403.148 -2471.203)" fill="#4dd0e1"/>
              <path id="Path_102992" data-name="Path 102992" d="M1422.992,2484.266a3.4,3.4,0,0,0-2.242-.123c-3.54,1.017-16.851,4.923-19.044,6.8-2.534,2.166,3.8,14.339,3.71,18.33s-.541,8.7-.893,13.035-.83,6.718,2.719,8.562a13.956,13.956,0,0,0,14.143-1.526c4.535-3.455,3.713-5.821,3.524-8.329s-1.734-13.361-1.6-16.441a11.644,11.644,0,0,0,2.782-3.2c1.184-2.019-.907-5.73-1.775-8.144s.49-5.171.221-7.14A2.235,2.235,0,0,0,1422.992,2484.266Z" transform="translate(-1397.433 -2471.202)" fill="#4dd0e1"/>
              <path id="Path_102993" data-name="Path 102993" d="M1420.842,2488.7c.281,2.193-1.73,4.257-4.492,4.611s-5.228-1.137-5.509-3.329,1.731-4.256,4.492-4.61S1420.562,2486.508,1420.842,2488.7Z" transform="translate(-1399.538 -2471.487)" fill="#fff"/>
              <path id="Path_102994" data-name="Path 102994" d="M1419.813,2489.2c.2,1.566-1.237,3.042-3.211,3.295s-3.737-.812-3.937-2.379,1.237-3.042,3.21-3.3S1419.612,2487.634,1419.813,2489.2Z" transform="translate(-1399.935 -2471.804)" fill="#ffc2b0"/>
              <path id="Path_102995" data-name="Path 102995" d="M1418.258,2482.952s-2.4-1.976-2.874-.975a30.8,30.8,0,0,0-.862,5.3l4.772,1.282-.725-4.352S1419.525,2483.394,1418.258,2482.952Z" transform="translate(-1400.342 -2470.701)" fill="#ffc2b0"/>
              <path id="Path_102996" data-name="Path 102996" d="M1424.872,2475.2a7.124,7.124,0,1,1-6.692-7.533A7.124,7.124,0,0,1,1424.872,2475.2Z" transform="translate(-1399.499 -2467.657)" fill="#ffc2b0"/>
              <path id="Path_102997" data-name="Path 102997" d="M1415.163,2483.551c-.043.224-.083.465-.121.71.479,2.479,4.188,3.564,4.188,3.564l-.548-3.293s.449-.382.323-.763C1417.539,2483.305,1415.691,2482.9,1415.163,2483.551Z" transform="translate(-1400.454 -2471.029)" fill="#ea9c92"/>
              <path id="Path_102998" data-name="Path 102998" d="M1424.872,2475.2a7.124,7.124,0,1,1-6.692-7.533A7.124,7.124,0,0,1,1424.872,2475.2Z" transform="translate(-1399.499 -2467.657)" fill="#ffc2b0"/>
              <path id="Path_102999" data-name="Path 102999" d="M1397.32,2515.26l.8,19.065,2.787.287,1.814-17.162Z" transform="translate(-1396.612 -2477.979)" fill="#ffc2b0"/>
              <path id="Path_103000" data-name="Path 103000" d="M1408.04,2509.609c-.15-.664-1.37-1.21-1.557-2.075a77.925,77.925,0,0,1-1.187-10.99l-.779,8.946c.9,2.653,1.67,5.088,1.638,6.5-.053,2.343-.232,4.933-.44,7.549v.008S1408.962,2513.679,1408.04,2509.609Z" transform="translate(-1398.172 -2473.92)" fill="#4dd0e1" style="mix-blend-mode: multiply;isolation: isolate"/>
              <path id="Path_103001" data-name="Path 103001" d="M1401.221,2492.361s-2.228.852-3.49,7.7-2.2,13.7.044,14.586,4.128,1.549,4.789-.283,1.071-10.653,1.154-13.826S1403.922,2492.988,1401.221,2492.361Z" transform="translate(-1396.416 -2473.013)" fill="#4dd0e1"/>
              <path id="Path_103002" data-name="Path 103002" d="M1447.048,2523.216a5.98,5.98,0,0,1,2.079,1.394,13.473,13.473,0,0,1,1.421,1.907c.695,1.035,1.28,3.274.857,3.553s-2.845-3.748-3.235-2.812,0,1.8-.5,1.817-2.241-4.048-3.609-5.307S1447.048,2523.216,1447.048,2523.216Z" transform="translate(-1406.689 -2479.661)" fill="#ffc2b0"/>
            </g>
            <path id="Path_103003" data-name="Path 103003" d="M1417.444,2590.714a10.9,10.9,0,0,0,1.526-.158h0l1.045-41.911Z" transform="translate(-1400.975 -2485.217)" fill="#d4ecff" style="mix-blend-mode: multiply;isolation: isolate"/>
          </g>
          <g id="Group_55189" data-name="Group 55189" transform="translate(0 58.79)">
            <path id="Path_103004" data-name="Path 103004" d="M1407.07,2565.924l-1.483-1.936-15.6-9.03a2.171,2.171,0,0,1-.9-1.732l.014-12.768-.9-1.171.843-.488h0a.57.57,0,0,1,.612.035l17.675,10.234a2.169,2.169,0,0,1,.9,1.732l-.015,13.906a.789.789,0,0,1-.33.741h0Z" transform="translate(-1387.895 -2538.727)" fill="#ffa726"/>
            <path id="Path_103005" data-name="Path 103005" d="M1396.285,2558.6l-1.108-.642-6.083-10.565.007-6.938-.9-1.171.843-.488h0a.57.57,0,0,1,.612.035l17.675,10.234a1.821,1.821,0,0,1,.666.779Z" transform="translate(-1387.895 -2538.727)" fill="#ffa726"/>
            <path id="Path_103006" data-name="Path 103006" d="M1388.6,2539.806l-.4-.52.843-.488h0a.57.57,0,0,1,.612.035l.311.18Z" transform="translate(-1387.895 -2538.727)" fill="#ffa726"/>
            <path id="Path_103007" data-name="Path 103007" d="M1412.332,2552.076a2.259,2.259,0,0,1,.738,1.489l-1.727,1-.828-1.437Z" transform="translate(-1392.733 -2541.621)" fill="#5793ce"/>
            <path id="Path_103008" data-name="Path 103008" d="M1406.407,2549.69l-17.675-10.233c-.5-.29-.906.016-.907.684l-.015,13.9a2.168,2.168,0,0,0,.9,1.732l17.675,10.233c.5.29.906-.016.907-.684l.015-13.905A2.172,2.172,0,0,0,1406.407,2549.69Z" transform="translate(-1387.81 -2538.861)" fill="#ffca28"/>
          </g>
          <path id="Path_103009" data-name="Path 103009" d="M1406.686,2563.152l-.842-.486v-7.232l.842.486Z" transform="translate(-1391.72 -2483.559)" fill="#12263f"/>
          <path id="Path_103010" data-name="Path 103010" d="M1404.175,2561.7l-.842-.486v-7.232l.842.486Z" transform="translate(-1391.176 -2483.245)" fill="#12263f"/>
          <path id="Path_103011" data-name="Path 103011" d="M1401.663,2560.253l-.842-.486v-7.232l.842.486Z" transform="translate(-1390.631 -2482.931)" fill="#12263f"/>
          <path id="Path_103012" data-name="Path 103012" d="M1398.19,2538.76a43.151,43.151,0,0,0-.626,5.875c.111,1.425.874,3.777,1.453,3.726s.019-5.731,1.036-5.165,1.124,1.537,1.584,1.194-.8-5.2-.467-7.306S1398.19,2538.76,1398.19,2538.76Z" transform="translate(-1389.923 -2479.442)" fill="#ffc2b0"/>
          <path id="Path_103013" data-name="Path 103013" d="M1421.806,2476.516c3.573,1.269,4.269.495,4.3.453.033-.215.059-.433.072-.655a7.1,7.1,0,0,0-.238-2.276l-9.272-1.252A10.112,10.112,0,0,0,1421.806,2476.516Z" transform="translate(-1394.068 -2465.639)" fill="#ea9c92"/>
          <path id="Path_103014" data-name="Path 103014" d="M1424.625,2467.238a10.557,10.557,0,0,0-9.327-3.449c-3.4.526-6.271,2.847-6.908,8.143a12.172,12.172,0,0,0,3.293,9.68,2.875,2.875,0,0,0,.387-.2c1.364-.9,1.511-1.39,1.511-1.4l.3-2.7a.756.756,0,0,0-.68-.749,1.359,1.359,0,0,1-1-.608,1.59,1.59,0,0,1,1.143-2.677,1.2,1.2,0,0,0,1.249-.888.64.64,0,0,1,.835-.435c1.779.644,6.164,2.032,8.986,1.233C1428.029,2472.171,1425.467,2467.96,1424.625,2467.238Z" transform="translate(-1392.255 -2463.661)" fill="#ffca28"/>
          <path id="Path_103015" data-name="Path 103015" d="M1423.367,2481.492l2.179-.6a5.258,5.258,0,0,1-2.559,2.054c-1.519.417-1.755-.868-1.755-.868Z" transform="translate(-1395.057 -2467.397)" fill="#fff"/>
          <path id="Path_103016" data-name="Path 103016" d="M1402.583,2546.118l-1.857-1.063.7,1.139.939.346Z" transform="translate(-1390.611 -2481.309)" fill="#5793ce"/>
        </g>
      </g>
      <g id="Group_55193" data-name="Group 55193" transform="translate(1435.119 2448.005)">
        <path id="Path_103017" data-name="Path 103017" d="M1454.29,2643.417c8.1,4.675,21.227,4.675,29.324,0s8.1-12.256,0-16.931-21.226-4.675-29.324,0S1446.192,2638.741,1454.29,2643.417Z" transform="translate(-1448.217 -2506.99)" fill="#efefef"/>
        <g id="Group_55192" data-name="Group 55192" transform="translate(5.786 13.309)">
          <path id="Path_103018" data-name="Path 103018" d="M1457.849,2628.9a3.96,3.96,0,0,0-2.234,3.958,6.689,6.689,0,0,0,.326,1.935,3.257,3.257,0,0,0,4.371,1.339c2.4-.951,7.745-5.968,7.945-9.252C1468.628,2620.774,1461.653,2627.271,1457.849,2628.9Z" transform="translate(-1455.605 -2520.588)" fill="#12263f"/>
          <path id="Path_103019" data-name="Path 103019" d="M1476.406,2641.761s-.577,3.518-.3,4.163a4.53,4.53,0,0,0,4.427,1.723c2.472-.3,9.585-2.75,11.17-7.438,2.455-7.267-13.731.545-13.731.545Z" transform="translate(-1460.034 -2523.364)" fill="#12263f"/>
          <path id="Path_103020" data-name="Path 103020" d="M1478.927,2570.35l.551,54.911a3.847,3.847,0,0,1-2.992,3.807c-.208.035-.43.064-.668.084a3.418,3.418,0,0,1-3.263-1.349,4.034,4.034,0,0,1-.734-2.216l-.7-23.44-3.5-20.959-4.842,37.094a3.2,3.2,0,0,1-1.331,2.442,3.711,3.711,0,0,1-2.207.6,4.059,4.059,0,0,1-2.935-1.446,2.943,2.943,0,0,1-.7-1.986l1.92-22.318.714-28.468Z" transform="translate(-1455.605 -2508.184)" fill="#d4ecff"/>
          <path id="Path_103021" data-name="Path 103021" d="M1476.064,2508.49l-.868,5a2.293,2.293,0,0,0,1.873,2.181c1.906.473,2.5-.758,2.5-.758l.861-5.634Z" transform="translate(-1459.853 -2495.475)" fill="#ffc2b0"/>
          <path id="Path_103022" data-name="Path 103022" d="M1485.778,2502.146c-1.353,4.286-5.541,6.774-9.354,5.556s-5.805-5.679-4.453-9.966,5.541-6.775,9.354-5.557S1487.131,2497.86,1485.778,2502.146Z" transform="translate(-1459.061 -2491.871)" fill="#ffc2b0"/>
          <path id="Path_103023" data-name="Path 103023" d="M1472.708,2514.371c-.133-.054-8.088-5.176-11.028.184-4.795,8.74-1.287,18.762-3,40.52-.286,3.641,4.9,5.86,7.352,7.261a14.685,14.685,0,0,0,7.135,2.029c2.486.02,7.253-2.19,7.08-5.44-.8-14.947.525-27.546,1.746-39.77C1481.994,2519.154,1480.469,2517.512,1472.708,2514.371Z" transform="translate(-1456.269 -2496.26)" fill="#4dd0e1"/>
          <path id="Path_103024" data-name="Path 103024" d="M1469.124,2585.086l-4.842,37.093a3.2,3.2,0,0,1-1.331,2.442,3.527,3.527,0,0,1-.413.234c1-.754,3.94-31.889,4.482-35.352S1469.124,2585.086,1469.124,2585.086Z" transform="translate(-1457.108 -2512.083)" fill="#d4ecff" style="mix-blend-mode: multiply;isolation: isolate"/>
        </g>
        <path id="Path_103025" data-name="Path 103025" d="M1508.884,2516.753l6.66-13.22-2.089-1.32-6.9,10.07Z" transform="translate(-1460.865 -2480.805)" fill="#ffc2b0"/>
        <path id="Path_103026" data-name="Path 103026" d="M1453.437,2498.773l3.24-14.74,2.58.028-.969,12.224Z" transform="translate(-1449.349 -2476.863)" fill="#ffc2b0"/>
        <path id="Path_103027" data-name="Path 103027" d="M1487.14,2519.547s7.449,2.938,13.85-5.136a1.228,1.228,0,0,1,2.056.135c.576,1.323,1.3,3.322.422,5.2-3.869,8.3-17.067,8.014-20.247,12.667S1487.14,2519.547,1487.14,2519.547Z" transform="translate(-1455.629 -2483.344)" fill="#4dd0e1"/>
        <path id="Path_103028" data-name="Path 103028" d="M1466.482,2509.542s-6.151.473-7.036-4.851a40.814,40.814,0,0,1-.619-5.322,1.074,1.074,0,0,0-1.206-1.044c-1.472.183-3.753.623-4.062,1.61-.462,1.474-1.331,8.7,4.744,19.8C1462.284,2527,1466.482,2509.542,1466.482,2509.542Z" transform="translate(-1449.304 -2479.96)" fill="#4dd0e1"/>
        <path id="Path_103029" data-name="Path 103029" d="M1457.557,2482.085l.059-1.681a3.469,3.469,0,0,1,.5-1.678l1.7-2.8.444-.56a1.3,1.3,0,0,1,1.7-.29l.392.246a1.61,1.61,0,0,1,.749,1.466l-.882,2.392,1.114-.216a.4.4,0,0,1,.465.318h0a.4.4,0,0,1-.241.437l-1.82.735-1.652,2.34Z" transform="translate(-1450.242 -2474.878)" fill="#ffc2b0"/>
        <path id="Path_103030" data-name="Path 103030" d="M1516.95,2501.714l.78-1.49a3.462,3.462,0,0,0,.392-1.708l-.1-3.275-.11-.706a1.294,1.294,0,0,0-1.337-1.094l-.462.02a1.61,1.61,0,0,0-1.376.9l-.416,2.515-.861-.739a.4.4,0,0,0-.562.048h0a.4.4,0,0,0-.006.5l1.219,1.537.316,3.2Z" transform="translate(-1462.222 -2478.903)" fill="#ffc2b0"/>
        <path id="Path_103031" data-name="Path 103031" d="M1481.949,2533.575c-.648,2.952,3.252,25.222-1.084,33.367,2.169-.879,4.312-2.6,4.2-4.8a203.3,203.3,0,0,1,.732-29.184c3.708-1.879,9.5-3,13.6-6C1495,2528.58,1482.527,2530.939,1481.949,2533.575Z" transform="translate(-1455.296 -2486.171)" fill="#4dd0e1" style="mix-blend-mode: multiply;isolation: isolate"/>
        <path id="Path_103032" data-name="Path 103032" d="M1472.941,2512.877l1.105-1.135a9,9,0,0,0,3.277,2.179,16.962,16.962,0,0,0,2.615.541l.711,1.961S1474.863,2516.008,1472.941,2512.877Z" transform="translate(-1453.578 -2482.871)" fill="#fff"/>
        <path id="Path_103033" data-name="Path 103033" d="M1480.2,2501.82a.932.932,0,0,0,.761-.394c.3-.437.111-2.448,1.042-2.78,1.455-.519,4.906,1.3,5.275-3.946.192-2.728-1.136-3.453-1.13-4.947,0,0,.115.749-6.9.282s-9.3,5.766-9.466,8.735,1.27,7.849,6.067,8.519c.795.111,4.136-2.575,4.049-2.927s-1.347-.333-1.165-1.358A1.32,1.32,0,0,1,1480.2,2501.82Z" transform="translate(-1452.89 -2478.103)" fill="#12263f"/>
      </g>
      <g id="Group_55196" data-name="Group 55196" transform="translate(1478.358 2510.589)">
        <g id="Group_55194" data-name="Group 55194">
          <path id="Path_103034" data-name="Path 103034" d="M1531.694,2593.542l-21.207-12.243a4.087,4.087,0,0,1-1.706-3.26v-15.767c0-1.257.764-1.834,1.706-1.29l21.207,12.243a4.086,4.086,0,0,1,1.706,3.26v15.769C1533.4,2593.509,1532.636,2594.087,1531.694,2593.542Z" transform="translate(-1504.588 -2556.086)" fill="#efefef"/>
          <path id="Path_103035" data-name="Path 103035" d="M1528.614,2567.229l-21.206-12.243a1.086,1.086,0,0,0-1.1-.088v-.013l-2.057,1.188,1.445.528v15.443a4.087,4.087,0,0,0,1.707,3.26l20.269,11.7v1.812l2.078-1.2-.011,0a1.513,1.513,0,0,0,.576-1.36v-15.769A4.085,4.085,0,0,0,1528.614,2567.229Z" transform="translate(-1503.607 -2554.788)" fill="#014363"/>
          <path id="Path_103036" data-name="Path 103036" d="M1526.34,2589.087l-21.207-12.243a4.087,4.087,0,0,1-1.706-3.26v-15.769c0-1.256.764-1.833,1.706-1.29l21.207,12.244a4.086,4.086,0,0,1,1.706,3.26V2587.8C1528.045,2589.054,1527.282,2589.631,1526.34,2589.087Z" transform="translate(-1503.427 -2555.12)" fill="#039be5"/>
          <path id="Path_103037" data-name="Path 103037" d="M1526.446,2568.77l-21.207-12.244a1,1,0,0,0-1.32.089,1.285,1.285,0,0,1,.753.191l21.206,12.244a4.085,4.085,0,0,1,1.706,3.26v15.768a1.725,1.725,0,0,1-.385,1.2c.563-.046.953-.587.953-1.48V2572.03A4.087,4.087,0,0,0,1526.446,2568.77Z" transform="translate(-1503.534 -2555.121)" fill="#fff"/>
        </g>
        <g id="Group_55195" data-name="Group 55195" transform="translate(5.976 13.617)">
          <path id="Path_103038" data-name="Path 103038" d="M1513.919,2574.848c0,.913-.641,1.282-1.431.825a3.16,3.16,0,0,1-1.431-2.478c0-.913.641-1.282,1.431-.826A3.163,3.163,0,0,1,1513.919,2574.848Z" transform="translate(-1511.057 -2572.174)" fill="#fff"/>
          <path id="Path_103039" data-name="Path 103039" d="M1519.454,2578.043c0,.912-.641,1.282-1.431.826a3.163,3.163,0,0,1-1.431-2.479c0-.912.641-1.282,1.431-.826A3.162,3.162,0,0,1,1519.454,2578.043Z" transform="translate(-1512.257 -2572.867)" fill="#fff"/>
          <path id="Path_103040" data-name="Path 103040" d="M1524.988,2581.238c0,.912-.641,1.283-1.431.826a3.161,3.161,0,0,1-1.431-2.478c0-.912.641-1.283,1.431-.826A3.162,3.162,0,0,1,1524.988,2581.238Z" transform="translate(-1513.457 -2573.559)" fill="#fff"/>
        </g>
      </g>
      <g id="Group_55201" data-name="Group 55201" transform="translate(1513.53 2511.177)">
        <g id="Group_55198" data-name="Group 55198" transform="translate(0 0)">
          <g id="Group_55197" data-name="Group 55197">
            <path id="Path_103041" data-name="Path 103041" d="M1576.6,2614.012l-21.206-12.244a4.086,4.086,0,0,1-1.707-3.26v-35.486c0-1.256.764-1.834,1.707-1.29l21.206,12.243a4.087,4.087,0,0,1,1.707,3.26v35.487C1578.309,2613.979,1577.545,2614.557,1576.6,2614.012Z" transform="translate(-1549.497 -2556.837)" fill="#efefef"/>
            <path id="Path_103042" data-name="Path 103042" d="M1573.523,2567.981l-21.207-12.243a1.085,1.085,0,0,0-1.1-.088l0-.014-2.057,1.189,1.446.528v35.162a4.087,4.087,0,0,0,1.706,3.26l20.269,11.7v1.812l2.079-1.2-.012,0a1.513,1.513,0,0,0,.576-1.36v-35.486A4.086,4.086,0,0,0,1573.523,2567.981Z" transform="translate(-1548.516 -2555.539)" fill="#ffa726"/>
            <path id="Path_103043" data-name="Path 103043" d="M1571.249,2609.557l-21.206-12.243a4.088,4.088,0,0,1-1.707-3.26v-35.486c0-1.257.764-1.834,1.707-1.29l21.206,12.243a4.085,4.085,0,0,1,1.707,3.26v35.487C1572.955,2609.523,1572.191,2610.1,1571.249,2609.557Z" transform="translate(-1548.336 -2555.871)" fill="#ffca28"/>
            <path id="Path_103044" data-name="Path 103044" d="M1571.355,2569.522l-21.206-12.244a1.006,1.006,0,0,0-1.321.088,1.288,1.288,0,0,1,.753.192l21.206,12.243a4.088,4.088,0,0,1,1.706,3.26v35.486a1.73,1.73,0,0,1-.385,1.2c.563-.047.954-.587.954-1.482v-35.487A4.085,4.085,0,0,0,1571.355,2569.522Z" transform="translate(-1548.443 -2555.872)" fill="#fff"/>
          </g>
        </g>
        <g id="Group_55199" data-name="Group 55199" transform="translate(6.459 12.678)">
          <path id="Path_103045" data-name="Path 103045" d="M1566.29,2577.507c0,1.973-1.385,2.772-3.094,1.787a6.841,6.841,0,0,1-3.094-5.359c0-1.973,1.385-2.772,3.094-1.786A6.835,6.835,0,0,1,1566.29,2577.507Z" transform="translate(-1557.346 -2571.726)" fill="#fff"/>
          <path id="Path_103046" data-name="Path 103046" d="M1566.818,2584.689c0-.031-.009-.062-.013-.092-.133-.831-.92-1.561-1.438-1.376a3.534,3.534,0,0,1-2.933-.5,9.164,9.164,0,0,1-2.932-2.89c-.519-.783-1.306-.962-1.438-.284,0,.024-.009.05-.013.076l-1.467,9.317,11.7,6.756Z" transform="translate(-1556.583 -2573.332)" fill="#fff"/>
        </g>
        <g id="Group_55200" data-name="Group 55200" transform="translate(4.782 32.912)">
          <path id="Path_103047" data-name="Path 103047" d="M1568.649,2606.789l-14.207-8.2v-1.024l14.207,8.2Z" transform="translate(-1554.442 -2597.563)" fill="#fff"/>
          <path id="Path_103048" data-name="Path 103048" d="M1564.359,2610.025l-9.917-5.726v-1.024l9.917,5.725Z" transform="translate(-1554.442 -2598.801)" fill="#fff"/>
          <path id="Path_103049" data-name="Path 103049" d="M1563.021,2606.4l-8.579-4.953v-1.024l8.579,4.953Z" transform="translate(-1554.442 -2598.182)" fill="#fff"/>
          <path id="Path_103050" data-name="Path 103050" d="M1571.394,2611.23l-4.29-2.476v-1.024l4.29,2.477Z" transform="translate(-1557.188 -2599.767)" fill="#fff"/>
        </g>
      </g>
      <g id="Group_55207" data-name="Group 55207" transform="translate(1513.53 2460.984)">
        <g id="Group_55203" data-name="Group 55203" transform="translate(0 0)">
          <g id="Group_55202" data-name="Group 55202">
            <path id="Path_103051" data-name="Path 103051" d="M1576.6,2549.925l-21.206-12.244a4.088,4.088,0,0,1-1.707-3.26v-35.488c0-1.256.764-1.833,1.707-1.29l21.206,12.244a4.085,4.085,0,0,1,1.707,3.26v35.487C1578.309,2549.891,1577.545,2550.468,1576.6,2549.925Z" transform="translate(-1549.497 -2492.748)" fill="#efefef"/>
            <path id="Path_103052" data-name="Path 103052" d="M1573.523,2503.891l-21.207-12.243a1.085,1.085,0,0,0-1.1-.088l0-.013-2.057,1.188s.911.332,1.446.529v35.161a4.088,4.088,0,0,0,1.706,3.26l20.269,11.7v1.813l2.079-1.2-.012,0a1.511,1.511,0,0,0,.576-1.36v-35.487A4.088,4.088,0,0,0,1573.523,2503.891Z" transform="translate(-1548.516 -2491.45)" fill="#014363"/>
            <path id="Path_103053" data-name="Path 103053" d="M1571.249,2545.468l-21.206-12.244a4.084,4.084,0,0,1-1.707-3.259v-35.487c0-1.256.764-1.834,1.707-1.29l21.206,12.243a4.088,4.088,0,0,1,1.707,3.26v35.486C1572.955,2545.436,1572.191,2546.013,1571.249,2545.468Z" transform="translate(-1548.336 -2491.782)" fill="#b4e4eb"/>
            <path id="Path_103054" data-name="Path 103054" d="M1571.355,2505.433l-21.206-12.243a1.006,1.006,0,0,0-1.321.088,1.283,1.283,0,0,1,.753.192l21.206,12.243a4.085,4.085,0,0,1,1.706,3.259v35.488a1.725,1.725,0,0,1-.385,1.2c.563-.046.954-.587.954-1.482v-35.487A4.087,4.087,0,0,0,1571.355,2505.433Z" transform="translate(-1548.443 -2491.784)" fill="#fff"/>
          </g>
        </g>
        <g id="Group_55204" data-name="Group 55204" transform="translate(4.815 12.437)">
          <path id="Path_103055" data-name="Path 103055" d="M1568.69,2516.557l-14.207-8.2v-1.024l14.207,8.2Z" transform="translate(-1554.484 -2507.331)" fill="#014363"/>
          <path id="Path_103056" data-name="Path 103056" d="M1564.4,2519.792l-9.917-5.726v-1.024l9.917,5.726Z" transform="translate(-1554.484 -2508.569)" fill="#014363"/>
          <path id="Path_103057" data-name="Path 103057" d="M1563.063,2516.164l-8.579-4.953v-1.024l8.579,4.953Z" transform="translate(-1554.484 -2507.95)" fill="#014363"/>
          <path id="Path_103058" data-name="Path 103058" d="M1571.436,2521l-4.29-2.477V2517.5l4.29,2.477Z" transform="translate(-1557.229 -2509.535)" fill="#014363"/>
        </g>
        <g id="Group_55205" data-name="Group 55205" transform="translate(4.815 21.078)">
          <path id="Path_103059" data-name="Path 103059" d="M1568.69,2527.589l-14.207-8.2v-1.024l14.207,8.2Z" transform="translate(-1554.484 -2518.363)" fill="#014363"/>
          <path id="Path_103060" data-name="Path 103060" d="M1564.4,2530.825l-9.917-5.725v-1.024l9.917,5.725Z" transform="translate(-1554.484 -2519.602)" fill="#014363"/>
          <path id="Path_103061" data-name="Path 103061" d="M1563.063,2527.2l-8.579-4.953v-1.024l8.579,4.953Z" transform="translate(-1554.484 -2518.982)" fill="#014363"/>
          <path id="Path_103062" data-name="Path 103062" d="M1571.436,2532.03l-4.29-2.477v-1.024l4.29,2.477Z" transform="translate(-1557.229 -2520.567)" fill="#014363"/>
        </g>
        <g id="Group_55206" data-name="Group 55206" transform="translate(4.815 29.718)">
          <path id="Path_103063" data-name="Path 103063" d="M1568.69,2538.622l-14.207-8.2V2529.4l14.207,8.2Z" transform="translate(-1554.484 -2529.396)" fill="#014363"/>
          <path id="Path_103064" data-name="Path 103064" d="M1564.4,2541.857l-9.917-5.726v-1.024l9.917,5.726Z" transform="translate(-1554.484 -2530.634)" fill="#014363"/>
          <path id="Path_103065" data-name="Path 103065" d="M1563.063,2538.229l-8.579-4.954v-1.024l8.579,4.953Z" transform="translate(-1554.484 -2530.015)" fill="#014363"/>
          <path id="Path_103066" data-name="Path 103066" d="M1571.436,2543.063l-4.29-2.477v-1.024l4.29,2.477Z" transform="translate(-1557.229 -2531.6)" fill="#014363"/>
        </g>
      </g>
      <g id="Group_55208" data-name="Group 55208" transform="translate(1477.628 2490.78)">
        <path id="Path_103067" data-name="Path 103067" d="M1512.655,2536.291l-10.134-5.851v-.946l10.134,5.851Z" transform="translate(-1502.5 -2529.494)" fill="#014363"/>
        <path id="Path_103068" data-name="Path 103068" d="M1522.282,2541.849l-4.328-2.5v-.946l4.328,2.5Z" transform="translate(-1505.846 -2531.427)" fill="#014363"/>
        <path id="Path_103069" data-name="Path 103069" d="M1514.708,2540.106l-4.328-2.5v-.946l4.328,2.5Z" transform="translate(-1504.204 -2531.049)" fill="#014363"/>
        <path id="Path_103070" data-name="Path 103070" d="M1525.724,2546.466l-7.77-4.486v-.946l7.77,4.486Z" transform="translate(-1505.846 -2531.997)" fill="#014363"/>
        <path id="Path_103071" data-name="Path 103071" d="M1531.483,2552.422l-11.491-6.634v-.946l11.491,6.634Z" transform="translate(-1506.288 -2532.823)" fill="#014363"/>
        <path id="Path_103072" data-name="Path 103072" d="M1530.187,2546.413l-4.328-2.5v-.946l4.328,2.5Z" transform="translate(-1507.56 -2532.416)" fill="#014363"/>
        <path id="Path_103073" data-name="Path 103073" d="M1506.849,2535.569l-4.328-2.5v-.945l4.328,2.5Z" transform="translate(-1502.5 -2530.065)" fill="#014363"/>
        <path id="Path_103074" data-name="Path 103074" d="M1514.343,2542.525l-11.849-6.841v-.946l11.849,6.841Z" transform="translate(-1502.494 -2530.631)" fill="#014363"/>
        <path id="Path_103075" data-name="Path 103075" d="M1509.819,2542.543l-7.148-4.127v-.946l7.148,4.127Z" transform="translate(-1502.532 -2531.224)" fill="#014363"/>
      </g>
      <g id="Group_55209" data-name="Group 55209" transform="translate(1471.928 2399.458)">
        <path id="Path_103076" data-name="Path 103076" d="M1562.306,2467.036l-55.455-32.017c-3.591-2.073-6.5-7.635-6.5-12.423h0c0-4.788,2.911-6.989,6.5-4.916l55.455,32.017c3.591,2.073,6.5,7.635,6.5,12.423h0C1568.808,2466.908,1565.9,2469.109,1562.306,2467.036Z" transform="translate(-1496.33 -2413.759)" fill="#efefef"/>
        <path id="Path_103077" data-name="Path 103077" d="M1566.908,2458.1c0-4.787-2.911-10.35-6.5-12.423l-55.455-32.017a4.107,4.107,0,0,0-4.341-.277l.005-.016-2.732,1.6,1.256.141a8.036,8.036,0,0,0-.69,3.473h0c0,4.788,2.91,10.351,6.5,12.424l55.455,32.017a5.666,5.666,0,0,0,2.01.733l-.336,1.111,2.693-1.57h-.022C1566.073,2462.47,1566.908,2460.661,1566.908,2458.1Z" transform="translate(-1495.795 -2412.889)" fill="#ffa726"/>
        <path id="Path_103078" data-name="Path 103078" d="M1557.173,2464.992l-55.454-32.017c-3.591-2.073-6.5-7.635-6.5-12.423h0c0-4.789,2.911-6.989,6.5-4.915l55.454,32.016c3.591,2.074,6.5,7.635,6.5,12.423h0C1563.675,2464.864,1560.764,2467.065,1557.173,2464.992Z" transform="translate(-1495.217 -2413.316)" fill="#ffca28"/>
        <path id="Path_103079" data-name="Path 103079" d="M1558.388,2447.2l-55.455-32.017c-1.826-1.055-3.475-1-4.656-.063a4.229,4.229,0,0,1,4.105.422l55.454,32.016c3.592,2.074,6.5,7.635,6.5,12.423,0,2.352-.7,4.074-1.845,4.978,1.462-.745,2.4-2.625,2.4-5.336C1564.89,2454.832,1561.979,2449.27,1558.388,2447.2Z" transform="translate(-1495.88 -2413.217)" fill="#fff"/>
      </g>
      <g id="Group_55210" data-name="Group 55210" transform="translate(1471.928 2373.23)">
        <path id="Path_103080" data-name="Path 103080" d="M1541.562,2421.365l-34.36-19.815c-3.591-2.073-6.5-7.635-6.5-12.423h0c0-4.788,2.911-6.988,6.5-4.915l34.36,19.815c3.591,2.073,6.5,7.635,6.5,12.423h0C1548.063,2421.238,1545.152,2423.439,1541.562,2421.365Z" transform="translate(-1496.406 -2380.274)" fill="#efefef"/>
        <path id="Path_103081" data-name="Path 103081" d="M1545.813,2412.413c0-4.788-2.911-10.35-6.5-12.423l-34.359-19.815a4.107,4.107,0,0,0-4.341-.278l.005-.017-2.732,1.6,1.256.141a8.043,8.043,0,0,0-.69,3.474h0c0,4.787,2.91,10.349,6.5,12.422l34.359,19.815a5.655,5.655,0,0,0,2.01.734l-.336,1.112,2.694-1.57h-.023C1544.977,2416.779,1545.813,2414.97,1545.813,2412.413Z" transform="translate(-1495.795 -2379.4)" fill="#014363"/>
        <path id="Path_103082" data-name="Path 103082" d="M1536.078,2419.3l-34.359-19.815c-3.591-2.074-6.5-7.635-6.5-12.423h0c0-4.788,2.911-6.988,6.5-4.915l34.359,19.815c3.591,2.073,6.5,7.635,6.5,12.423h0C1542.579,2419.173,1539.668,2421.374,1536.078,2419.3Z" transform="translate(-1495.217 -2379.827)" fill="#b4e4eb"/>
        <path id="Path_103083" data-name="Path 103083" d="M1537.292,2401.506l-34.359-19.815c-1.826-1.055-3.475-1-4.656-.063a4.228,4.228,0,0,1,4.105.421l34.359,19.815c3.591,2.073,6.5,7.635,6.5,12.423,0,2.352-.7,4.075-1.845,4.978,1.462-.746,2.4-2.625,2.4-5.336C1543.794,2409.14,1540.883,2403.579,1537.292,2401.506Z" transform="translate(-1495.88 -2379.728)" fill="#fff"/>
      </g>
      <g id="Group_55211" data-name="Group 55211" transform="translate(1483.062 2385.31)">
        <path id="Path_103084" data-name="Path 103084" d="M1523.64,2404.051l-14.207-8.2v-1.024l14.207,8.2Z" transform="translate(-1509.433 -2394.825)" fill="#014363"/>
        <path id="Path_103085" data-name="Path 103085" d="M1539.243,2413.05l-9.917-5.726V2406.3l9.917,5.725Z" transform="translate(-1513.747 -2397.313)" fill="#014363"/>
        <path id="Path_103086" data-name="Path 103086" d="M1518.013,2403.658l-8.579-4.953v-1.024l8.579,4.953Z" transform="translate(-1509.433 -2395.445)" fill="#014363"/>
        <path id="Path_103087" data-name="Path 103087" d="M1526.385,2408.493l-4.29-2.477v-1.024l4.29,2.477Z" transform="translate(-1512.179 -2397.03)" fill="#014363"/>
      </g>
      <g id="Group_55212" data-name="Group 55212" transform="translate(1505.219 2424.682)">
        <path id="Path_103088" data-name="Path 103088" d="M1566.284,2462.611l-14.207-8.2v-1.024l14.207,8.2Z" transform="translate(-1540.836 -2446.894)" fill="#fff"/>
        <path id="Path_103089" data-name="Path 103089" d="M1547.641,2451.847l-9.917-5.726V2445.1l9.917,5.725Z" transform="translate(-1537.724 -2445.098)" fill="#fff"/>
        <path id="Path_103090" data-name="Path 103090" d="M1560.656,2462.219l-8.579-4.953v-1.024l8.579,4.953Z" transform="translate(-1540.836 -2447.514)" fill="#fff"/>
        <path id="Path_103091" data-name="Path 103091" d="M1569.029,2467.052l-4.29-2.477v-1.024l4.29,2.477Z" transform="translate(-1543.582 -2449.099)" fill="#fff"/>
        <path id="Path_103092" data-name="Path 103092" d="M1549.2,2455.583l-4.29-2.477v-1.024l4.29,2.477Z" transform="translate(-1539.282 -2446.612)" fill="#fff"/>
      </g>
      <g id="Group_55213" data-name="Group 55213" transform="translate(1441.768 2440.211)">
        <path id="Path_103093" data-name="Path 103093" d="M1462.364,2468.881l-2.186-1.262.361-.66,2.186,1.262Z" transform="translate(-1457.46 -2465.367)" fill="#014363"/>
        <path id="Path_103094" data-name="Path 103094" d="M1457.5,2466.065l.361-.659-.83-.479c-.114.225-.212.456-.322.682Z" transform="translate(-1456.707 -2464.926)" fill="#014363"/>
        <path id="Path_103095" data-name="Path 103095" d="M1467.616,2471.913l-2.186-1.262.361-.66,2.186,1.262Z" transform="translate(-1458.599 -2466.024)" fill="#014363"/>
        <path id="Path_103096" data-name="Path 103096" d="M1472.869,2474.945l-2.186-1.262.361-.66,2.186,1.262Z" transform="translate(-1459.737 -2466.682)" fill="#014363"/>
        <path id="Path_103097" data-name="Path 103097" d="M1478.121,2477.978l-2.186-1.262.361-.66,2.186,1.262Z" transform="translate(-1460.876 -2467.339)" fill="#014363"/>
        <path id="Path_103098" data-name="Path 103098" d="M1483.373,2481.01l-2.186-1.262.361-.66,2.186,1.262Z" transform="translate(-1462.015 -2467.997)" fill="#014363"/>
        <path id="Path_103099" data-name="Path 103099" d="M1488.625,2484.043l-2.186-1.262.361-.66,2.186,1.262Z" transform="translate(-1463.154 -2468.654)" fill="#014363"/>
        <path id="Path_103100" data-name="Path 103100" d="M1493.878,2487.075l-2.186-1.262.361-.66,2.186,1.262Z" transform="translate(-1464.293 -2469.312)" fill="#014363"/>
        <path id="Path_103101" data-name="Path 103101" d="M1499.13,2490.107l-2.186-1.262.361-.66,2.186,1.262Z" transform="translate(-1465.431 -2469.969)" fill="#014363"/>
      </g>
      <g id="Group_55214" data-name="Group 55214" transform="translate(1483.944 2447.437)">
        <path id="Path_103102" data-name="Path 103102" d="M1512.783,2476.056l-2.223-1.283.454-.621,1.769,1.021Z" transform="translate(-1510.56 -2474.152)" fill="#014363"/>
        <path id="Path_103103" data-name="Path 103103" d="M1518.125,2479.068l-2.223-1.284v-.883l2.223,1.283Z" transform="translate(-1511.718 -2474.748)" fill="#014363"/>
        <path id="Path_103104" data-name="Path 103104" d="M1523.467,2482.152l-2.223-1.284v-.883l2.223,1.284Z" transform="translate(-1512.876 -2475.416)" fill="#014363"/>
        <path id="Path_103105" data-name="Path 103105" d="M1528.809,2485.236l-2.223-1.283v-.883l2.223,1.283Z" transform="translate(-1514.034 -2476.085)" fill="#014363"/>
        <path id="Path_103106" data-name="Path 103106" d="M1534.151,2488.32l-2.224-1.284v-.883l2.224,1.283Z" transform="translate(-1515.193 -2476.754)" fill="#014363"/>
        <path id="Path_103107" data-name="Path 103107" d="M1539.492,2491.4l-2.223-1.284v-.883l2.223,1.284Z" transform="translate(-1516.351 -2477.422)" fill="#014363"/>
      </g>
      <path id="Path_103108" data-name="Path 103108" d="M1533.831,2443.881l-8-4.613v-1.024l8,4.613Z" transform="translate(-29.926 -18.929)" fill="#fff"/>
    </g>
  </g>
</svg>
