<svg xmlns="http://www.w3.org/2000/svg" width="150" height="150" viewBox="0 0 150 150">
  <g id="t4-ic2" transform="translate(-378 -165)">
    <rect id="Rectangle_5218" data-name="Rectangle 5218" width="150" height="150" transform="translate(378 165)" fill="none"/>
    <path id="Path_100562" data-name="Path 100562" d="M-522.627,121.618c12.371-3.323,26.408,3.286,31.581,15.031,5.771,11.8,1.27,27.273-9.867,34.2a27.576,27.576,0,0,1-30.532-.414,27.3,27.3,0,0,1-10.769-29.749,27.426,27.426,0,0,1,19.587-19.072m42.571-22.763c7.1-2.356,15.344,3.185,15.841,10.65.957,7.143-5.357,13.9-12.481,13.724-6.084-.046-11.773-5-12.224-11.138a12.389,12.389,0,0,1,8.864-13.236m-40.417-10.64h9.361c8.072,1.178,16.439,2.8,23.407,7.235a32.49,32.49,0,0,0-6.526,8.68,49.883,49.883,0,0,0-35.98-2.826,49.186,49.186,0,0,0-32.225,31.111,48.7,48.7,0,0,0,1.832,36.008,49.154,49.154,0,0,0,25.045,24.53A49.361,49.361,0,0,0-492,190.837a49.026,49.026,0,0,0,24.493-34.48c1.767-9.315.276-18.989-3.24-27.733a26.282,26.282,0,0,0,9.094-6.333,60.033,60.033,0,0,1,3.231,43.031,59.892,59.892,0,0,1-29.648,35.714c-7.41,3.995-15.694,5.882-24,6.839h-5.854a61.108,61.108,0,0,1-41.494-18.658,59.65,59.65,0,0,1-16.448-41.181,59.608,59.608,0,0,1,17.829-42.617c10.005-9.959,23.591-15.8,37.564-17.2" transform="translate(968.868 91.785)" fill="#039be5"/>
  </g>
</svg>
