<svg xmlns="http://www.w3.org/2000/svg" width="150" height="150" viewBox="0 0 150 150">
  <g id="t4-ic1" transform="translate(-378 -1575)">
    <rect id="Rectangle_5375" data-name="Rectangle 5375" width="150" height="150" transform="translate(378 1575)" fill="none"/>
    <path id="Path_100561" data-name="Path 100561" d="M-505.558,350.8a11.025,11.025,0,0,1,8.53-2.965,11.036,11.036,0,0,1,6.664,3.121,10.9,10.9,0,0,1,3.156,6.384,10.975,10.975,0,0,1-1.3,6.717,10.937,10.937,0,0,1-6.4,5.137,10.789,10.789,0,0,1-6.079.051,10.918,10.918,0,0,1-6.5-5.035,10.913,10.913,0,0,1-1.328-7.258,10.831,10.831,0,0,1,3.255-6.152m13.2,31.74c-3.47.092-6.946.086-10.418.03a10.817,10.817,0,0,1-1.64-.074c-1.049-.04-2.1-.058-3.147-.1a130.242,130.242,0,0,0,9.607,11.627l.181.053a115.955,115.955,0,0,0,9.451-11.749c-1.339.154-2.7.071-4.034.209m-38.731,6.029a37.7,37.7,0,0,0,.233,12.559,12.11,12.11,0,0,0,3.295,6.47,7.082,7.082,0,0,0,4.889,1.534,20.138,20.138,0,0,0,7.218-1.768,43.755,43.755,0,0,0,8.965-5.348,59.7,59.7,0,0,0,6.6-5.781,131.242,131.242,0,0,1-11.458-14.1c-4.24-.361-8.477-.836-12.669-1.582-1.772-.3-3.524-.722-5.289-1.046a69.156,69.156,0,0,0-1.78,9.062m48.073-6.633c-.586.14-1.435-.169-1.784.454a116.1,116.1,0,0,1-10.989,13.829,58.949,58.949,0,0,0,12.831,9.927,23.688,23.688,0,0,0,8.649,2.988,7.59,7.59,0,0,0,5.344-1.2,10.612,10.612,0,0,0,3.322-5.338,28.029,28.029,0,0,0,1.161-7.1c.045-1.115.044-2.232,0-3.345a58.862,58.862,0,0,0-1.3-9.776c-.172-1.04-.541-2.036-.67-3.082a2.293,2.293,0,0,0-.423.014,119.085,119.085,0,0,1-16.14,2.631m9.515-18.475a171.835,171.835,0,0,1-8.949,15.423c2.384-.141,4.744-.538,7.107-.874,2.684-.447,5.362-.943,8-1.6a114.108,114.108,0,0,0-5.472-14.225,11.447,11.447,0,0,0-.689,1.279m-49.713-1.147a124.736,124.736,0,0,0-5.282,14.359c2.293.473,4.58.975,6.9,1.308,2.691.451,5.4.752,8.115,1.022a151.422,151.422,0,0,1-9.048-15.447,7.3,7.3,0,0,0-.683-1.242m-13.337-18.7a43.909,43.909,0,0,0-14.118,7.57c-1.937,1.739-3.811,3.823-4.352,6.448-.474,2.346.7,4.643,2.119,6.432a29.2,29.2,0,0,0,8.993,7,56.868,56.868,0,0,0,10.741,4.341l.092.048c.586.129,1.145.368,1.742.456.293-1.032.63-2.049.948-3.074a139.193,139.193,0,0,1,5.541-13.975c-.816-1.915-1.717-3.8-2.478-5.736-1.129-2.71-2.124-5.472-3.064-8.251-.267-.959-.629-1.888-.862-2.856-1.8.42-3.549,1.019-5.3,1.6m71.837-1.573a125.165,125.165,0,0,1-6.473,16.675,122.842,122.842,0,0,1,6.667,16.934c1.04-.215,2.033-.6,3.048-.9a60.217,60.217,0,0,0,9.11-3.8,35.254,35.254,0,0,0,6.771-4.494c1.947-1.739,3.829-3.795,4.468-6.4a6.745,6.745,0,0,0-1.221-5.369,21.229,21.229,0,0,0-5.844-5.523,59.027,59.027,0,0,0-16.528-7.131m-17.776-3.2c.422.545.779,1.138,1.156,1.715a162.634,162.634,0,0,1,8.4,14.725c.037,0,.107-.007.144-.009.64-1.59,1.365-3.146,1.98-4.746,1.2-2.946,2.231-5.96,3.188-8.994,0-.053.015-.157.019-.209q-2.285-.547-4.594-.993c-1.492-.274-2.983-.565-4.485-.782-1.457-.215-2.917-.428-4.379-.6-.473-.058-.949-.089-1.424-.1m-32.516.1c-1.51.172-3.014.412-4.521.607-3.006.5-6.024.992-8.97,1.778l.128.151a115.513,115.513,0,0,0,4.467,12.259c.238.549.5,1.091.687,1.659.362-.5.558-1.094.871-1.625a155.519,155.519,0,0,1,8.727-14.944c-.464.024-.928.064-1.39.113m6.182-.6c-.381.139-.949-.1-1.162.339a151.189,151.189,0,0,0-11.14,19.2,2.83,2.83,0,0,0-.417,1.132c.747,1.4,1.4,2.85,2.152,4.245a148.688,148.688,0,0,0,9.631,16.027c.223.014.446.028.67.049,4.5.306,9.022.405,13.538.341,3.115-.069,6.251-.155,9.345-.451.984-1.37,1.865-2.816,2.774-4.237a164.992,164.992,0,0,0,8.865-15.964c.24-.344-.131-.673-.235-1a163.067,163.067,0,0,0-11.473-19.6,5.9,5.9,0,0,1-1.115-.089c-.8-.074-1.614-.027-2.411-.145a160,160,0,0,0-19.021.15m10.835-14.627a120.011,120.011,0,0,0-9.625,11.59c3.067-.124,6.134-.264,9.206-.229.246-.033.55.08.754-.1.36.2.813.062,1.214.1,1.742.043,3.5-.022,5.233.141.922.024,1.844.045,2.764.128-1.267-1.839-2.653-3.591-4.039-5.341-1.766-2.155-3.552-4.3-5.507-6.29m-29.431-13.777a10.2,10.2,0,0,0-2.975,4.878c-1.436,4.893-1.217,10.089-.579,15.1a72.544,72.544,0,0,0,1.761,8.536,109.269,109.269,0,0,1,11.077-2.03c1.893-.311,3.805-.5,5.714-.692.378-.067.9.093,1.138-.3a125.018,125.018,0,0,1,11.146-13.721c.006-.046.02-.142.027-.188a57.466,57.466,0,0,0-14.212-10.495,21.6,21.6,0,0,0-8.364-2.425,7.106,7.106,0,0,0-4.734,1.34m48.878-.391a40.4,40.4,0,0,0-10.2,5.782,70.457,70.457,0,0,0-7.2,6.288,119.715,119.715,0,0,1,11.358,14.056c3.5.24,6.982.764,10.45,1.313,2.221.4,4.438.836,6.637,1.356.231.062.466.1.7.144a56.329,56.329,0,0,0,1.979-18.191,20.254,20.254,0,0,0-2.256-8.29,6.58,6.58,0,0,0-3.914-3.246c-2.52-.657-5.157-.038-7.558.79m-3.014-1.937a24.154,24.154,0,0,1,6.789-1.979,14.7,14.7,0,0,1,3.165.033,8.862,8.862,0,0,1,5.874,3.181,17.966,17.966,0,0,1,3.5,8.567,42.16,42.16,0,0,1,.262,10.373,64.967,64.967,0,0,1-1.558,9.663c-.163.58-.249,1.186-.469,1.75a16.865,16.865,0,0,0,1.627.486c.53.173,1.07.321,1.6.508a54.518,54.518,0,0,1,14.862,7,20.747,20.747,0,0,1,6.826,7.336,9.157,9.157,0,0,1,.819,6.156,14.358,14.358,0,0,1-3.8,6.453,33.136,33.136,0,0,1-7.4,5.564A64.7,64.7,0,0,1-463.7,378.5c1.779,6.79,2.738,13.918,1.779,20.916a30.61,30.61,0,0,1-.741,3.468,14.681,14.681,0,0,1-3.95,6.9,9.387,9.387,0,0,1-5.549,2.3,18.244,18.244,0,0,1-7.249-1.141,37.252,37.252,0,0,1-7.971-4.03,66.619,66.619,0,0,1-10.422-8.572,60.01,60.01,0,0,1-13.952,10.51,28.318,28.318,0,0,1-9.094,3.091,12.614,12.614,0,0,1-6.511-.771,10.77,10.77,0,0,1-5.247-5.882A27.4,27.4,0,0,1-534.4,394.72a37.782,37.782,0,0,1,.148-3.893,46.958,46.958,0,0,1,.573-4.857c.237-1.524.565-3.031.888-4.536.193-.9.495-1.788.613-2.705a63.031,63.031,0,0,1-9.853-3.48,39.541,39.541,0,0,1-11.515-7.512,14.608,14.608,0,0,1-4.386-7.57,10.745,10.745,0,0,1-.027-2.825c.634-3.48,3-6.326,5.613-8.569a46.128,46.128,0,0,1,13.833-7.564c2.126-.758,4.277-1.447,6.459-2.022-.317-1.174-.584-2.363-.856-3.549a54.527,54.527,0,0,1-1.346-15.645,26.7,26.7,0,0,1,.772-4.976,14.12,14.12,0,0,1,3.891-7.068,8.826,8.826,0,0,1,3.792-1.956,14.24,14.24,0,0,1,4.482-.229,29.369,29.369,0,0,1,10.831,4,64.95,64.95,0,0,1,12.522,9.754,70.977,70.977,0,0,1,8.358-7.175,44.7,44.7,0,0,1,8.056-4.724" transform="translate(951.038 1291.43)" fill="#4dd0e1"/>
  </g>
</svg>
