<svg xmlns="http://www.w3.org/2000/svg" width="150" height="150" viewBox="0 0 150 150">
  <g id="t4-ic5" transform="translate(-378 -1134)">
    <rect id="Rectangle_5224" data-name="Rectangle 5224" width="150" height="150" transform="translate(378 1134)" fill="none"/>
    <g id="Group_53822" data-name="Group 53822" transform="translate(1101.644 1362.999)">
      <path id="Path_100541" data-name="Path 100541" d="M-689.578-103.334c4.757,2.006,9.57,3.891,14.31,5.949-3.227.275-6.47.155-9.7.189-1.381-.017-3.066.006-3.972-1.238-1.054-1.4-.539-3.284-.636-4.9m37.743,7.347c6.453-2.728,12.94-5.364,19.416-8.029-.063,2.5.1,5-.086,7.5a3.186,3.186,0,0,1-3.765,2.476c-5.2-.321-10.9,1.054-15.565-1.943m-6.522-42.088c1.037-.367,2.057-.785,3.066-1.232q1.324.739,2.711,1.381c-2.011,2.367-3.966,4.785-5.966,7.158-1.209,2.017-4.539.367-4.138-1.828,1.272-1.949,3.02-3.542,4.327-5.479m-12.379-1.7c.579.138,1.158.275,1.742.407-3.467,2.837-4.419,7.37-6.23,11.25-.625,1.828-2.109,3.8-1.14,5.777.745,1.65,2.728,1.954,4.2,2.659,4.957,1.851,10.075,5.175,15.565,3.347,3.2-1.3,6.636-1.673,9.949-2.556a2.867,2.867,0,0,0,1.874-3.33c-.516-3.095-1.278-6.149-1.931-9.215-.567-2.6-2.023-4.848-3.307-7.135a25.7,25.7,0,0,1,2,1.616l.2.338c1.284,3.9,3.077,7.616,4.6,11.433,3.416-.688,6.648-2.023,9.972-3.043q2.828,6.671,5.576,13.387a6.715,6.715,0,0,1-3.519,8.51c-6.1,2.562-12.23,5.032-18.333,7.582a27.14,27.14,0,0,1-13.777,2c-3.421-.527-6.929-.854-10.138-2.229-5.645-2.355-11.33-4.625-16.952-7.026a6.012,6.012,0,0,1-2.751-7.783c1.92-4.676,3.909-9.318,5.811-14,3.238.991,6.39,2.31,9.737,2.928,1.977-4.4,3.381-9.095,6.04-13.164.063-.258.178-.779.241-1.043.1-.132.309-.4.418-.522l.149-.189m30.4-11.588c2.241-3.175,4.705-6.207,7.095-9.273.109,5.421-2.418,10.459-6.115,14.293a23.442,23.442,0,0,0-.98-5.02m-.762-14.367c1.4-1.685,3.719-2.808,5.651-3.994a4.866,4.866,0,0,1-1.152,2.459q-2.768,3.344-5.6,6.636a26.322,26.322,0,0,0,.756-3.439l.55.338c-.063-.671-.132-1.335-.2-2m-23.164-4.373c1.347,1.484,2.785,3.433,5.043,3.278,1.622.069,2.8-1.14,3.908-2.138a11.817,11.817,0,0,0,12.872,3.582c.206.052.619.149.831.2-.287,4.413-4.315,6.969-7.261,9.7-1.473,1.135-2.682,2.871-4.585,3.272-3.244-.476-6.155-2.183-9.255-3.169-4.184-1.37-8.711-3.57-10.373-7.96-.218.367-.436.734-.653,1.106a16.018,16.018,0,0,0,9.542,8.166c-2.4,1.622-4.373,4.143-4.355,7.158-.264,2.716,1.158,5.169,2.928,7.1-5.7-.963-11.25-3.622-14.854-8.252a22.469,22.469,0,0,1-4.424-18.465c3.6,1.536,7.261,4.126,11.376,3.146,4.075-.3,7.284-3.353,9.261-6.722m13.783,21.577c8.115-9.846,16.178-19.737,24.333-29.548q1.427,1.152,2.854,2.31-11.811,15.164-23.623,30.322c-1.536,2.1-5.611-1.209-3.565-3.083m25.153-31.554a21.969,21.969,0,0,1,2.206-2.407,4.39,4.39,0,0,1,3.547,2.344c-.086,1.49-1.387,3.4-3.055,3.14a4.866,4.866,0,0,1-2.7-3.077m3.737-3.547c4.1-5.083,8.31-10.081,12.4-15.164a27.473,27.473,0,0,0,2.43,1.88c-4.126,5.083-8.063,10.327-12.121,15.473-.9-.734-1.805-1.467-2.711-2.189m15.817-19.892a1.981,1.981,0,0,1,2.928,1.61,6.738,6.738,0,0,1-2.527,3.479,1.976,1.976,0,0,1-2.636-2.31,8.424,8.424,0,0,1,2.235-2.779m-44.752,21.164c.057.183.178.55.241.734l.487-.212.046-.533-.453-.264-.321.275m-11.949-.126c2.04,1.484,4.688,1.433,7.089,1.639.046.453.137,1.37.178,1.828.3-.648.6-1.289.882-1.937,1.266-.126,2.527-.275,3.788-.418-1.444-1.037-3.416-.252-4.825-1.335l.183.871c-2.441-.08-4.854-.562-7.3-.648m7.089-26.631c.04.464.126,1.393.172,1.857-2.418.212-5.009-.166-7.244.98a64.94,64.94,0,0,0,7.318.178c.057.951.115,1.9.183,2.854-3.49.074-7.106-.029-10.436,1.175,3.433.848,7.06-.281,10.573.183.023.923.046,1.845.063,2.774-3.989.264-8.081-.155-11.978.923.3.109.905.332,1.209.441,3.61.264,7.244.034,10.866.092q.017,1.513.034,3.026c-4.149.16-8.287-.562-12.424-.149.974,1.06,2.487,1.009,3.805,1.158,2.865.172,5.742.281,8.614.292-.006,1.106-.017,2.218-.034,3.33-4.057,0-8.04-.917-12.081-1.072,3.53,2.264,7.995,1.966,12.018,2.206-.069,1-.143,2.006-.224,3-3.547-.046-7.02-.814-10.545-1.049,2.951,2,6.682,1.782,10.058,2.269.47.716.888,1.461,1.358,2.178.046-.585.138-1.759.183-2.35,2.791-.275,5.863-.35,8.184-2.132-2.682.16-5.318.734-7.989.974.086-1.009.183-2.012.275-3.014,3.014-.327,6.407-.2,8.957-2.1-2.974.057-5.891.711-8.854.946-.017-1.077-.023-2.149-.034-3.226,3.089-.373,6.533.35,9.307-1.352-3.083-.453-6.2-.023-9.29.1-.006-1.009-.006-2.023-.006-3.032,2.928-.246,6.035.567,8.837-.51-2.877-.94-5.943-.751-8.929-.8-.063-1.009-.138-2.012-.212-3.02,2.636,0,5.272.43,7.909.143-2.413-1.479-5.387-1.037-8.069-1.444-.126-.94-.252-1.874-.372-2.814a48.9,48.9,0,0,0,5.5-.16c-1.748-.991-3.811-.808-5.742-.917-.092-.51-.281-1.53-.372-2.04l-.584.1m-3.525-1.61a11.022,11.022,0,0,1,10.992,3.754c5.29,6.212,5.645,15.966,1.238,22.757-2.1,3.238-5.714,5.8-9.7,5.645-3.971.126-7.593-2.407-9.685-5.651a20.017,20.017,0,0,1-.86-19.663,13.011,13.011,0,0,1,8.017-6.843m-1.192-1.226a14.429,14.429,0,0,0-8.722,7.863,20.947,20.947,0,0,0,1.072,19.88,13.4,13.4,0,0,0,9.7,6.39,12.4,12.4,0,0,0,10.694-4.625c5.874-7.106,5.846-18.476-.172-25.485-3.009-3.536-8.046-5.444-12.574-4.023m-2.235-1.616a15.722,15.722,0,0,1,13.106,2.739c7.381,5.456,9.53,16.127,6.121,24.419-1.662,4.292-5.221,7.364-8.121,10.8-1.633,1.788-3.118,3.719-4.871,5.393a4.026,4.026,0,0,1-5.674-.447c-3.083-3.444-6.126-6.923-9.2-10.373-6.023-6.929-6.5-17.9-1.335-25.439a17,17,0,0,1,9.972-7.095" transform="translate(0 0)" fill="#161616"/>
      <path id="Path_100542" data-name="Path 100542" d="M-671.689-106.255c1.6-3.53,2.608-7.828,6.166-9.949,2.5.287,4.911,1.072,7.376,1.565-1.536,1.845-3.106,3.656-4.671,5.473a8.663,8.663,0,0,0,1.737,2.888,8.071,8.071,0,0,0,3.347.986c2.7-3.215,5.335-6.493,8.184-9.582,3.238,3.828,3.656,8.952,4.745,13.634.338,1.272.407,2.928-.883,3.7-1.507.8-3.255.894-4.888,1.307-2.527.424-4.865,1.725-7.467,1.719-3.926.252-7.33-1.989-10.894-3.255-1.53-.739-3.7-1.089-4.252-2.957-.4-1.971.871-3.748,1.5-5.53m34.1-15.64c1.072,1.33,1.7,2.946,2.653,4.355a32.978,32.978,0,0,0,7.359,7.76c-.642,1.026-1.278,2.218-2.562,2.516-3.7,1.232-7.37,2.625-11.181,3.5a102.325,102.325,0,0,0-4.172-9.462c-.143-.16-.435-.487-.579-.653l-.2-.338c-.39-.7-.768-1.4-1.146-2.1,2-.458,4.178-.39,5.994-1.45,1.668-.968,2.573-2.734,3.834-4.12m-51.979,12.058a31.85,31.85,0,0,0,10.218-13.72c3,2.8,6.442,5.467,10.562,6.241-.086.115-.269.344-.355.464-.109.126-.315.39-.418.522-3.576,3.358-4.155,8.55-6.722,12.488-3.284-.693-6.4-1.994-9.6-2.934-1.587-.43-3.393-1.238-3.679-3.06m35.417-12.608c.327-1.731,1.851-2.774,3.186-3.719a6.775,6.775,0,0,0,1.347,3.8c1.129,1.456,3.1,1.61,4.762,1.983-1.112,1.668-2.189,4.327-4.625,4.086a4.952,4.952,0,0,1-4.671-6.149m8.745,4.751a23.082,23.082,0,0,1,5.616-9.232c.269,2.12.533,4.533-.877,6.338-1.037,1.662-2.951,2.373-4.739,2.894m-19.107-10.081c1.072-1.524,2.768-3.014,4.768-2.716a13.28,13.28,0,0,1,8.018,3.989c-1.41,1.026-2.986,2.161-3.381,3.972-.59,1.748.166,3.524.63,5.2-2.413.877-5.221,1.381-7.536-.052a7.383,7.383,0,0,1-2.5-10.4m14.889-1.181a14.826,14.826,0,0,1,3.834-2.745c-1.4,1.857-2.671,3.966-4.688,5.215-.63-.986.252-1.771.854-2.47m-3.163-18.27c3.135-3.685,6.441-7.221,9.576-10.912a22.489,22.489,0,0,0,10.711,5.393c.2,2-1.1,3.444-2.739,4.35-3.043,1.908-5.811,4.923-9.668,4.871-3.077.126-5.794-1.587-7.88-3.7m-33.422-2.109a23.141,23.141,0,0,0,12.556-11.422c2.865,4.665,6.963,8.367,10.424,12.562a11.4,11.4,0,0,1-7.376,6.218,10.577,10.577,0,0,1-7.5-1.169c-2.206-1.1-4.516-1.994-6.665-3.2-1.077-.585-1.089-1.954-1.438-2.986" transform="translate(-1.74 -22.73)" fill="#fd5501"/>
    </g>
  </g>
</svg>
