<svg xmlns="http://www.w3.org/2000/svg" width="150" height="150" viewBox="0 0 150 150">
  <g id="t4-ic8" transform="translate(-378 -2082)">
    <rect id="Rectangle_5230" data-name="Rectangle 5230" width="150" height="150" transform="translate(378 2082)" fill="none"/>
    <g id="Group_53821" data-name="Group 53821" transform="translate(265.496 1204.772)">
      <path id="Path_100564" data-name="Path 100564" d="M177.491,903.406c.992-2.79,1.6-6.517,4.817-7.607a26.268,26.268,0,0,1,10.789-.022c3.3,1.068,3.934,4.861,4.9,7.716,1.667,5.885,7.945,9.035,13.656,9.5,4.784.338,8.315-4.468,13.056-3.727a17.42,17.42,0,0,1,8.937,8.9c1.2,3.76-1.94,6.877-2.943,10.277a16.342,16.342,0,0,0,5.024,15.77c3.28,2.823,8.991,2.234,11.018,6.55a24.006,24.006,0,0,1,.142,11.367c-1.569,4.25-6.735,4.185-10.092,6.19-4.534,3.052-6.888,8.8-6.7,14.135.207,4.893,5.907,9.307,2.6,14.168-6.125-5.874-12.217-11.781-18.516-17.47a37.807,37.807,0,0,0,7.8-20.652,35.892,35.892,0,0,0-13.83-30.287c-8.141-6.234-19.247-8.817-29.164-5.874a34.609,34.609,0,0,0-21.448,16.979c-7,12.522-5.373,29.022,3.749,40.063q-8.435,8.321-16.936,16.587c-1.144,1.493-3.041.142-2.877-1.493-.861-4,2.6-7.062,3.3-10.79a16.323,16.323,0,0,0-5.482-14.953c-3.128-2.594-8.163-2.147-10.441-5.831a16.118,16.118,0,0,1,.022-13c2.31-3.673,7.4-3.215,10.539-5.82a16.271,16.271,0,0,0,5.417-15.073c-.719-3.727-4.2-6.855-3.15-10.855a17.544,17.544,0,0,1,8.839-9c4.109-1.035,7.095,2.877,10.953,3.378,6.463.959,14.07-2.55,16.01-9.133" transform="translate(0 0)" fill="#1860a8"/>
      <path id="Path_100565" data-name="Path 100565" d="M141.71,971.131q22.38-22.233,44.705-44.509c14.964,14.811,29.774,29.763,44.782,44.531-29.829,0-59.658.044-89.487-.022" transform="translate(1.276 38.6)" fill="#789030"/>
    </g>
  </g>
</svg>
