<svg xmlns="http://www.w3.org/2000/svg" width="295" height="170" viewBox="0 0 295 170">
  <g id="t4-p2" transform="translate(-495 -748)">
    <rect id="Rectangle_5320" data-name="Rectangle 5320" width="295" height="170" transform="translate(495 748)" fill="#fff"/>
    <rect id="Rectangle_5324" data-name="Rectangle 5324" width="295" height="5" transform="translate(495 913)" fill="#ffca28"/>
    <path id="Path_100535" data-name="Path 100535" d="M-398.058,109.15c2.571-.028,5.143-.017,7.714-.011q.068,16.051.006,32.1c-2.577.017-5.154.034-7.731-.011-.006-10.69-.028-21.385.011-32.075m-84.544.04c2.611-.1,5.222-.051,7.834-.04v32.092c-2.611-.006-5.228.08-7.839-.068q.094-15.992.006-31.983m97.765,8.056a17,17,0,0,1,20.4-7.936c3.436,1.269,6.116,3.817,8.573,6.429v.188c-1.951,1.195-3.772,2.588-5.717,3.795-1.985-2.412-4.619-4.773-7.93-4.773a9.639,9.639,0,0,0-9.882,8.59c-1.047,5.467,2.93,11.6,8.7,11.873,3.755.523,6.906-2.031,9.131-4.75,1.849,1.314,3.766,2.526,5.695,3.709v.267c-1.8,1.712-3.4,3.669-5.592,4.9-6.855,4.637-16.93,2.429-21.846-4.033a17.091,17.091,0,0,1-1.53-18.262m-42.1-4.807c3.118-2.293,6.764-4.136,10.724-4.073,3.965-.1,8.215,1.252,10.633,4.557,2.753,3.641,3.072,8.414,3.021,12.817,0,5.16-.04,10.326.017,15.485q-3.951.06-7.9.006c.068-6.11.023-12.22.034-18.336.091-3.078-1.5-6.36-4.42-7.623-3.135-1.115-6.6.216-9.034,2.276a5.9,5.9,0,0,0-2.27,4.8c0,6.3.017,12.6,0,18.9-2.589.011-5.171.023-7.754-.011q-.017-16.034,0-32.074c2.15-.028,4.3-.04,6.451.011.171,1.092.336,2.179.5,3.271m-29.958,2.867a9.451,9.451,0,0,0-4.966,3.5c-3.209,4.329-2.554,11.122,1.678,14.552a9.291,9.291,0,0,0,11.759-.046c4.528-3.7,4.91-11.241.882-15.44a9.266,9.266,0,0,0-9.353-2.571m-1.9-6.417a17.859,17.859,0,0,1,15.935,3.721c6.787,5.894,7.214,17.425,1.149,23.979-5.848,6.668-17.061,7.242-23.712,1.451a17.236,17.236,0,0,1-4.2-20.247,16.586,16.586,0,0,1,10.826-8.9m-84.168-.028a17.027,17.027,0,0,1,19.519,9.29,16.877,16.877,0,0,1-6.1,21.14,17.044,17.044,0,0,1-18.87-.256,16.874,16.874,0,0,1-6.656-18.387,16.951,16.951,0,0,1,12.106-11.788m26.312-14.069a7.715,7.715,0,0,1,9.791,6.582,7.766,7.766,0,0,1-7.714,8.482,7.751,7.751,0,0,1-7.555-6.884,7.657,7.657,0,0,1,5.479-8.181m-24.98-6.576h5.786c4.989.728,10.161,1.729,14.467,4.472a20.08,20.08,0,0,0-4.034,5.365A30.831,30.831,0,0,0-547.65,96.3a30.4,30.4,0,0,0-19.917,19.229,30.1,30.1,0,0,0,1.132,22.255,30.38,30.38,0,0,0,15.48,15.161,30.508,30.508,0,0,0,26.92-1.308A30.3,30.3,0,0,0-508.9,130.331a30.842,30.842,0,0,0-2-17.141,16.243,16.243,0,0,0,5.621-3.914,37.1,37.1,0,0,1,2,26.6,37.017,37.017,0,0,1-18.324,22.073,40.881,40.881,0,0,1-14.831,4.227h-3.618A37.769,37.769,0,0,1-565.7,150.64a36.867,36.867,0,0,1-10.166-25.452,36.842,36.842,0,0,1,11.02-26.34,38.4,38.4,0,0,1,23.217-10.633" transform="translate(1108.868 707.785)" fill="#039be5"/>
  </g>
</svg>
