<svg xmlns="http://www.w3.org/2000/svg" width="295" height="170" viewBox="0 0 295 170">
  <g id="t4-p1" transform="translate(-180 -748)">
    <rect id="Rectangle_5319" data-name="Rectangle 5319" width="295" height="170" transform="translate(180 748)" fill="#fff"/>
    <rect id="Rectangle_5325" data-name="Rectangle 5325" width="295" height="5" transform="translate(180 913)" fill="#ffca28"/>
    <path id="Path_100534" data-name="Path 100534" d="M-474.247,416.5c.487-.008.975-.008,1.465-.005q0,4.423,0,8.849c-.487,0-.975,0-1.462,0,0-2.947,0-5.894,0-8.841m16.2,1.426a2.818,2.818,0,0,0-1.208,2.215c1.723-.014,3.445,0,5.168-.007a2.539,2.539,0,0,0-1.117-2.293,2.86,2.86,0,0,0-2.843.084m-1.734-.19a3.956,3.956,0,0,1,3.316-1.424,3.479,3.479,0,0,1,3.109,1.51,5.668,5.668,0,0,1,.749,3.438c-2.242.013-4.483-.021-6.723.017a6.062,6.062,0,0,0,.377,1.462,2.582,2.582,0,0,0,1.9,1.5,6.281,6.281,0,0,0,4.085-.719c0,.46,0,.921,0,1.382a9.6,9.6,0,0,1-2.772.667h-.669a4.566,4.566,0,0,1-3.027-1.108,4.205,4.205,0,0,1-1.34-2.826,5.32,5.32,0,0,1,.994-3.9m-3.939-1.243c.529,0,1.058-.014,1.589.024-.034.038-.1.115-.134.153-1.034,2.9-2.186,5.761-3.209,8.664-.67.017-1.338.006-2.007.009-1.081-2.956-2.231-5.886-3.294-8.848.508,0,1.016,0,1.526,0,.926,2.48,1.823,4.973,2.785,7.44.866-2.5,1.834-4.958,2.743-7.44m-24.567,4.569a1.584,1.584,0,0,0-1.161.817,1.762,1.762,0,0,0,.59,2.2,2.575,2.575,0,0,0,3.184-.7,3.64,3.64,0,0,0,.612-2.49,16.347,16.347,0,0,0-3.224.171m-2.141-4.132a7.2,7.2,0,0,1,2.868-.616,3.927,3.927,0,0,1,2.827.787,3.919,3.919,0,0,1,1.139,2.988c.007,1.751,0,3.5,0,5.254-.459,0-.918.018-1.375-.006-.213-.377-.062-.862-.108-1.282a3.247,3.247,0,0,1-2.638,1.519h-.687a2.858,2.858,0,0,1-2.212-1.179,3.306,3.306,0,0,1-.39-2.314,2.519,2.519,0,0,1,1.527-1.9c1.393-.6,2.947-.363,4.421-.415a2.485,2.485,0,0,0-.21-1.156A2.256,2.256,0,0,0-487,417.54a6.341,6.341,0,0,0-3.421.673c0-.429,0-.857-.007-1.285m-32.525,1.249a3.93,3.93,0,0,1,2.733-1.809,6.524,6.524,0,0,1,3.578.462q.006.68,0,1.364a5.37,5.37,0,0,0-2.582-.693,2.811,2.811,0,0,0-2.155.985,4.319,4.319,0,0,0-.688,3.164,2.963,2.963,0,0,0,1.558,2.405,4.528,4.528,0,0,0,3.87-.384c0,.445,0,.891,0,1.339a6.833,6.833,0,0,1-2.261.561h-.561a4.351,4.351,0,0,1-2.566-.861,4.206,4.206,0,0,1-1.513-2.65,5.748,5.748,0,0,1,.587-3.883m-17.918-.169a2.886,2.886,0,0,0-1.082,2.134c1.732-.017,3.467,0,5.2-.01a2.842,2.842,0,0,0-.847-2.075,2.781,2.781,0,0,0-3.271-.049m-1.375-.536a4.033,4.033,0,0,1,3.16-1.161,3.454,3.454,0,0,1,3.054,1.541,5.521,5.521,0,0,1,.714,3.409c-2.227,0-4.453-.007-6.68.005a3.042,3.042,0,0,0,1.731,2.821,5.908,5.908,0,0,0,4.615-.568q0,.688,0,1.378a9.4,9.4,0,0,1-2.828.674h-.864a4.8,4.8,0,0,1-2.611-.943,4.464,4.464,0,0,1-1.562-3.564,4.947,4.947,0,0,1,1.266-3.593m11.519,3.587a1.579,1.579,0,0,0-1.071.686,1.751,1.751,0,0,0,.563,2.36,2.56,2.56,0,0,0,3.1-.678,3.681,3.681,0,0,0,.68-2.536,17.652,17.652,0,0,0-3.268.169m-2.1-4.146a7.319,7.319,0,0,1,3.033-.6,3.635,3.635,0,0,1,2.891,1.025,4.318,4.318,0,0,1,.89,2.882c.009,1.709,0,3.416,0,5.125h-1.45q0-.671-.02-1.339a3.25,3.25,0,0,1-2.916,1.566h-.4a3.282,3.282,0,0,1-1.6-.526,2.915,2.915,0,0,1,.269-4.754c1.441-.753,3.119-.473,4.679-.532a2,2,0,0,0-1.247-2.028,5.319,5.319,0,0,0-4.124.5c0-.439,0-.876-.01-1.314m52.222-2.941c.48,0,.958,0,1.44,0,.012.838,0,1.677,0,2.517,1.011.018,2.02-.009,3.031.017,0,.367,0,.738,0,1.108-1.009.03-2.02,0-3.029.017,0,1.665-.007,3.33,0,4.994.064.5.031,1.2.615,1.391a9.92,9.92,0,0,0,2.311.087,3.337,3.337,0,0,1,.1,1.237,8.07,8.07,0,0,1-3.483-.365c-.838-.44-.952-1.5-.985-2.343-.021-1.669,0-3.338-.01-5.006-.354,0-.709,0-1.062,0q0-.566,0-1.13.53,0,1.061,0c0-.84,0-1.68.006-2.52m-33.523,2.52c0-.842-.007-1.682.008-2.522q.728,0,1.457,0c.008.84,0,1.68,0,2.522q1.484,0,2.968,0c0,.376,0,.754,0,1.132h-2.969c.007,1.808-.017,3.616.014,5.423.072.384.169.842.6.975a12.879,12.879,0,0,0,2.347.088c.012.409.012.82.01,1.231-1.186-.045-2.481.184-3.559-.438a2.748,2.748,0,0,1-.87-2.277c-.019-1.668,0-3.336-.007-5h-1.055c0-.377,0-.754,0-1.132h1.057m11.592-2.946c.716,0,1.431,0,2.147,0,1.582,3,3.18,5.989,4.757,8.988.142.235.217.547.49.67.014-3.22,0-6.441.006-9.659.511,0,1.022-.006,1.533,0q0,5.893,0,11.788c-.719.007-1.438,0-2.156,0q-2.622-4.934-5.234-9.871c-.006,3.29,0,6.579,0,9.87h-1.541q0-5.9,0-11.8m-49.194,1.316q0,2.09,0,4.182a13.022,13.022,0,0,0,3.106-.164c1.643-.518,1.661-3.334.009-3.848a12.52,12.52,0,0,0-3.115-.17m-1.6-1.317c1.324.008,2.649-.016,3.973.014a4.06,4.06,0,0,1,2.827,1.02,3.616,3.616,0,0,1,.761,2.994,2.644,2.644,0,0,1-1.966,2.229,4.893,4.893,0,0,1,2.065,2.521c.5,1,1.032,2,1.506,3.013-.567.01-1.134.007-1.7,0-.525-1.076-1.067-2.142-1.6-3.212a3.108,3.108,0,0,0-1.584-1.668,17.055,17.055,0,0,0-2.147-.077l-.508-.061c-.052,1.671-.008,3.346-.023,5.018-.533,0-1.066,0-1.6,0q0-5.9,0-11.8m79.081-.476c.488-.018.977-.016,1.466-.013,0,.616.012,1.233-.017,1.851-.483,0-.964,0-1.445-.006,0-.612,0-1.223,0-1.832m-34.776-65.255a10.3,10.3,0,0,1,7.966-2.769,10.307,10.307,0,0,1,6.224,2.914,10.179,10.179,0,0,1,2.948,5.962,10.25,10.25,0,0,1-1.21,6.273,10.214,10.214,0,0,1-5.982,4.8,10.076,10.076,0,0,1-5.678.048,10.2,10.2,0,0,1-6.068-4.7,10.192,10.192,0,0,1-1.24-6.778,10.116,10.116,0,0,1,3.04-5.745m12.329,29.642c-3.241.086-6.487.08-9.73.028a10.1,10.1,0,0,1-1.531-.069c-.98-.037-1.961-.054-2.939-.09a121.622,121.622,0,0,0,8.972,10.859l.169.049a108.291,108.291,0,0,0,8.826-10.973c-1.251.143-2.518.066-3.768.2m-36.171,5.63a35.212,35.212,0,0,0,.218,11.729,11.31,11.31,0,0,0,3.077,6.042,6.613,6.613,0,0,0,4.566,1.433,18.807,18.807,0,0,0,6.741-1.651,40.863,40.863,0,0,0,8.373-4.995,55.752,55.752,0,0,0,6.16-5.4,122.573,122.573,0,0,1-10.7-13.168c-3.96-.338-7.916-.781-11.832-1.478-1.655-.281-3.291-.675-4.94-.977a64.59,64.59,0,0,0-1.663,8.463m44.9-6.194c-.547.131-1.34-.158-1.667.424A108.423,108.423,0,0,1-499.9,390.23a55.055,55.055,0,0,0,11.983,9.271,22.124,22.124,0,0,0,8.078,2.791,7.089,7.089,0,0,0,4.991-1.121,9.911,9.911,0,0,0,3.1-4.985,26.177,26.177,0,0,0,1.084-6.631c.042-1.042.041-2.084,0-3.124a54.977,54.977,0,0,0-1.215-9.13c-.16-.971-.505-1.9-.626-2.878a2.141,2.141,0,0,0-.4.013,111.213,111.213,0,0,1-15.074,2.457m8.886-17.254a160.464,160.464,0,0,1-8.357,14.4c2.227-.132,4.431-.5,6.638-.816,2.506-.418,5.008-.881,7.474-1.5a106.561,106.561,0,0,0-5.11-13.285,10.689,10.689,0,0,0-.643,1.195m-46.428-1.071a116.49,116.49,0,0,0-4.933,13.41c2.141.442,4.278.911,6.442,1.222,2.513.421,5.046.7,7.579.954a141.416,141.416,0,0,1-8.45-14.426,6.816,6.816,0,0,0-.638-1.16M-537.968,341.1a41.008,41.008,0,0,0-13.185,7.07c-1.809,1.624-3.56,3.571-4.065,6.022-.442,2.191.65,4.337,1.979,6.007a27.267,27.267,0,0,0,8.4,6.536,53.114,53.114,0,0,0,10.031,4.054l.086.045c.547.121,1.069.343,1.627.426.273-.964.589-1.914.886-2.871a129.988,129.988,0,0,1,5.175-13.051c-.762-1.788-1.6-3.545-2.314-5.357-1.054-2.531-1.983-5.111-2.861-7.705-.249-.9-.587-1.764-.805-2.667-1.679.393-3.315.951-4.952,1.491m67.09-1.469a116.9,116.9,0,0,1-6.045,15.573,114.722,114.722,0,0,1,6.227,15.815c.971-.2,1.9-.559,2.847-.838a56.238,56.238,0,0,0,8.508-3.546,32.925,32.925,0,0,0,6.324-4.2c1.819-1.624,3.576-3.544,4.173-5.975a6.3,6.3,0,0,0-1.14-5.015,19.825,19.825,0,0,0-5.458-5.158,55.126,55.126,0,0,0-15.436-6.66m-16.6-2.987c.394.509.728,1.062,1.079,1.6A151.89,151.89,0,0,1-478.557,352l.134-.008c.6-1.485,1.275-2.938,1.849-4.432,1.12-2.752,2.083-5.566,2.977-8.4,0-.049.014-.146.018-.2q-2.134-.511-4.291-.928c-1.394-.256-2.786-.528-4.189-.73-1.361-.2-2.724-.4-4.09-.563-.442-.054-.887-.083-1.33-.1m-30.367.091c-1.41.161-2.815.384-4.222.567-2.807.471-5.626.926-8.378,1.661l.12.141a107.885,107.885,0,0,0,4.172,11.449c.223.513.463,1.019.642,1.55.338-.467.521-1.022.814-1.517a145.242,145.242,0,0,1,8.15-13.956c-.434.023-.867.06-1.3.106m5.773-.556c-.356.129-.887-.094-1.086.317a141.206,141.206,0,0,0-10.4,17.928,2.643,2.643,0,0,0-.39,1.057c.7,1.306,1.3,2.661,2.01,3.965a138.879,138.879,0,0,0,8.995,14.968c.208.013.416.027.626.046,4.2.286,8.426.379,12.643.319,2.909-.065,5.838-.145,8.728-.421.919-1.28,1.742-2.63,2.591-3.957A154.09,154.09,0,0,0-480.08,355.5c.224-.321-.122-.629-.22-.93a152.284,152.284,0,0,0-10.715-18.306,5.507,5.507,0,0,1-1.042-.083c-.749-.069-1.508-.025-2.252-.135a149.425,149.425,0,0,0-17.765.14m10.119-13.66a112.079,112.079,0,0,0-8.989,10.824c2.864-.116,5.729-.246,8.6-.214.229-.031.514.075.7-.1.336.19.76.058,1.134.1,1.627.04,3.265-.021,4.887.131.861.023,1.723.042,2.581.12-1.183-1.717-2.478-3.354-3.772-4.988-1.65-2.013-3.317-4.019-5.143-5.875m-27.486-12.867a9.521,9.521,0,0,0-2.778,4.556c-1.341,4.57-1.137,9.423-.54,14.1a67.745,67.745,0,0,0,1.645,7.972,102.053,102.053,0,0,1,10.345-1.9c1.768-.29,3.554-.469,5.336-.646.353-.063.836.087,1.062-.279a116.757,116.757,0,0,1,10.41-12.815c.006-.043.018-.132.025-.176a53.668,53.668,0,0,0-13.273-9.8,20.176,20.176,0,0,0-7.811-2.265,6.636,6.636,0,0,0-4.421,1.251m45.648-.365a37.733,37.733,0,0,0-9.524,5.4,65.805,65.805,0,0,0-6.725,5.872,111.8,111.8,0,0,1,10.608,13.127c3.272.224,6.521.714,9.759,1.226,2.075.376,4.145.781,6.2,1.267.216.058.435.094.656.134a52.606,52.606,0,0,0,1.848-16.989,18.915,18.915,0,0,0-2.107-7.742,6.145,6.145,0,0,0-3.655-3.032,12.338,12.338,0,0,0-7.059.738m-2.815-1.809a22.558,22.558,0,0,1,6.34-1.848,13.732,13.732,0,0,1,2.956.031,8.276,8.276,0,0,1,5.486,2.971,16.779,16.779,0,0,1,3.272,8,39.375,39.375,0,0,1,.245,9.687,60.675,60.675,0,0,1-1.455,9.024c-.152.542-.232,1.108-.438,1.634a15.754,15.754,0,0,0,1.519.454c.5.162,1,.3,1.493.475a50.917,50.917,0,0,1,13.88,6.533,19.377,19.377,0,0,1,6.375,6.852,8.552,8.552,0,0,1,.765,5.749,13.41,13.41,0,0,1-3.545,6.027,30.947,30.947,0,0,1-6.908,5.2,60.427,60.427,0,0,1-13.312,5.41,50.435,50.435,0,0,1,1.662,19.534,28.6,28.6,0,0,1-.692,3.239,13.712,13.712,0,0,1-3.689,6.446,8.766,8.766,0,0,1-5.182,2.143,17.039,17.039,0,0,1-6.77-1.065,34.791,34.791,0,0,1-7.444-3.764,62.219,62.219,0,0,1-9.734-8.005,56.044,56.044,0,0,1-13.03,9.816,26.447,26.447,0,0,1-8.493,2.887,11.781,11.781,0,0,1-6.081-.72,10.058,10.058,0,0,1-4.9-5.493,25.591,25.591,0,0,1-1.676-9.869,35.29,35.29,0,0,1,.138-3.635,43.858,43.858,0,0,1,.535-4.536c.221-1.423.528-2.831.829-4.236.18-.845.462-1.669.573-2.527a58.871,58.871,0,0,1-9.2-3.25,36.93,36.93,0,0,1-10.754-7.016,13.643,13.643,0,0,1-4.1-7.07,10.032,10.032,0,0,1-.025-2.639c.593-3.25,2.8-5.908,5.242-8a43.079,43.079,0,0,1,12.919-7.064c1.986-.708,3.994-1.351,6.032-1.888-.3-1.1-.546-2.207-.8-3.315a50.924,50.924,0,0,1-1.257-14.611,24.934,24.934,0,0,1,.721-4.647,13.186,13.186,0,0,1,3.634-6.6,8.242,8.242,0,0,1,3.541-1.827,13.3,13.3,0,0,1,4.186-.214,27.429,27.429,0,0,1,10.115,3.737,60.657,60.657,0,0,1,11.695,9.109,66.284,66.284,0,0,1,7.805-6.7,41.747,41.747,0,0,1,7.523-4.412" transform="translate(829.038 467.43)" fill="#4dd0e1"/>
  </g>
</svg>
