<svg xmlns="http://www.w3.org/2000/svg" width="295" height="170" viewBox="0 0 295 170">
  <g id="t4-p6" transform="translate(-495 -958)">
    <rect id="Rectangle_5331" data-name="Rectangle 5331" width="295" height="170" transform="translate(495 958)" fill="#fff"/>
    <rect id="Rectangle_5332" data-name="Rectangle 5332" width="295" height="5" transform="translate(495 1123)" fill="#ffca28"/>
    <path id="Path_100543" data-name="Path 100543" d="M135.443-38.287a4.445,4.445,0,0,1,5.281,1.548,5.015,5.015,0,0,1-.573,6.211,4.526,4.526,0,0,1-6.187-.127c-2.134-2.189-1.489-6.513,1.479-7.631m-46.66,2.831c2.666-.065,5.336.075,8-.079a3.9,3.9,0,0,0-3.723-3.153,3.754,3.754,0,0,0-4.272,3.232m-.8-5.384a8.1,8.1,0,0,1,9.862.312c2.361,1.9,3.136,5.089,2.889,8-4,.017-8.005-.024-12.006.021a4.692,4.692,0,0,0,3.943,3.174A6.739,6.739,0,0,0,97.66-30.9c.679,1.009,1.359,2.021,2.021,3.044a10.156,10.156,0,0,1-6.935,2.237,8.41,8.41,0,0,1-7.082-4.416A8.626,8.626,0,0,1,87.987-40.84m-26.7,1.15a5.972,5.972,0,0,1,3.62-2.584A5.6,5.6,0,0,1,71-39.629a5.953,5.953,0,0,1,8.819-1.383,6.165,6.165,0,0,1,1.85,4.547c.045,3.486-.007,6.976.027,10.466-1.355.034-2.711.017-4.063.017-.024-3.263.041-6.53-.031-9.79a2.656,2.656,0,0,0-2.031-2.769,3.52,3.52,0,0,0-3.929,2.059c-.051,3.5,0,7-.024,10.5-1.349,0-2.7,0-4.046,0-.01-3.147.014-6.293-.01-9.436a3.1,3.1,0,0,0-1.376-2.9,3.461,3.461,0,0,0-4.6,1.88c-.058,3.483,0,6.973-.024,10.455-1.349,0-2.694,0-4.039.007-.034-5.322.014-10.644-.027-15.966,1.263-.079,2.529-.034,3.8-.041q0,1.143,0,2.292M43.8-32.766a1.97,1.97,0,0,0-.062,3.407,4.866,4.866,0,0,0,5.651-1.39c0-.587,0-1.174,0-1.757-1.747-.7-3.826-1.16-5.59-.261M39.851-40.94a13.918,13.918,0,0,1,9.6-.957,5.558,5.558,0,0,1,3.963,5.01c.082,3.634.021,7.271.031,10.908-1.246,0-2.495,0-3.74,0,0-.662,0-1.325,0-1.987a6.771,6.771,0,0,1-9.323.944,5.109,5.109,0,0,1-.223-7.4c2.453-2.32,6.424-2.258,9.261-.686a3.046,3.046,0,0,0-1.489-3.225c-2.21-.95-4.674-.11-6.777.738-.436-1.115-.878-2.227-1.311-3.339m-9.642,1.132a6.747,6.747,0,0,1,2.814-2.333,7.154,7.154,0,0,1,4.293.247q-.695,1.817-1.41,3.627a4.238,4.238,0,0,0-5.49,1.915c-.051,3.455,0,6.914-.021,10.37q-2.028.005-4.049,0-.005-8,0-16c1.283,0,2.563,0,3.847,0,0,.727,0,1.451.017,2.175M9-49.607c4.677-.014,9.357-.007,14.034-.007q.005,1.925,0,3.847c-3.318,0-6.636,0-9.954,0,0,1.925-.014,3.847.007,5.772q4.637,0,9.272,0,.005,1.92,0,3.847-4.638,0-9.282,0-.005,5.08,0,10.157-2.038.01-4.076,0V-49.607M151.7,20.506q29.477-42.113,58.968-84.22l.24.072a54.689,54.689,0,0,1,7.882,25.969l.213-.9v6.249a18.683,18.683,0,0,0-.364,3.088,55.987,55.987,0,0,1-16,34.091,56.07,56.07,0,0,1-30.618,15.952c-1.705.34-3.455.374-5.154.738H157.74c-1.987-.494-4.063-.5-6.043-1.043m3.586-62.636a6.279,6.279,0,0,0-2.814,2.44c.014-.765.014-1.527.014-2.292q-1.925-.005-3.847,0-.005,8,0,16c1.342,0,2.683-.007,4.028.014.048-3.493.021-6.986.014-10.479a5.372,5.372,0,0,1,2.127-1.9,4.969,4.969,0,0,1,3.363.093c.518-1.2.964-2.423,1.441-3.634a7.055,7.055,0,0,0-4.327-.244m-19.967-.062a8.467,8.467,0,0,0-4.392,2.409,8.432,8.432,0,0,0-.22,11.351,8.735,8.735,0,0,0,11.416,1.259,8.273,8.273,0,0,0,3.51-7.2,8.322,8.322,0,0,0-4.2-6.883,8.938,8.938,0,0,0-6.115-.94m-28.618.614a55.674,55.674,0,0,1,12.247-28.738c29.043-.154,58.1.055,87.14-.1a.724.724,0,0,1,.065.079q-14.978,21.35-29.932,42.724c-2.007-2.272-4.028-4.533-6.036-6.8,2.323-2.529,4.68-5.027,7-7.559-1.74-.01-3.479,0-5.219,0-1.918,2.093-3.816,4.207-5.737,6.3q-.01-7.911,0-15.822c-1.352,0-2.7-.007-4.052,0,.007,8.506-.01,17.013.007,25.523,1.349,0,2.7,0,4.046-.007,0-2.323,0-4.65,0-6.973,2.045,2.278,3.994,4.653,6.084,6.894a15.474,15.474,0,0,0,2.766.082Q159.56-3.809,144.018,18.358c-.216-.055-.655-.165-.872-.216a56.5,56.5,0,0,1-29.5-24.987,54.857,54.857,0,0,1-7.254-25.087c1.136,2.066,1.952,4.289,3.033,6.379l.268.082c1.688-3.668,3.243-7.4,4.955-11.059,1.723,3.754,3.394,7.532,5.092,11.3,2.68-5.535,5.161-11.169,7.755-16.749-1.379-.01-2.755-.014-4.131.014-1.122,2.728-2.282,5.446-3.418,8.167-1.174-2.721-2.217-5.5-3.428-8.2-1.139.007-2.275.01-3.414.069-1.115,2.714-2.241,5.432-3.449,8.108-.944-2.6-2.254-5.075-2.954-7.751M157.211-91h9.546c1.174.223,2.364.333,3.551.467A55.379,55.379,0,0,1,198.624-77.95c-7.614.185-15.239.027-22.856.079-16.436-.01-32.873.024-49.309-.017a55.556,55.556,0,0,1,31.153-12.947l-.4-.165" transform="translate(529 1078)" fill="#ee350f"/>
  </g>
</svg>
