<svg xmlns="http://www.w3.org/2000/svg" xmlns:xlink="http://www.w3.org/1999/xlink" width="820" height="420" viewBox="0 0 820 420">
  <defs>
    <linearGradient id="linear-gradient" x1="0.984" y1="0.151" x2="0.005" y2="0.911" gradientUnits="objectBoundingBox">
      <stop offset="0" stop-color="#ffca28" stop-opacity="0.749"/>
      <stop offset="1" stop-color="#ffca28" stop-opacity="0.149"/>
    </linearGradient>
    <linearGradient id="linear-gradient-2" x1="12.758" y1="-4.228" x2="-4.278" y2="2.343" gradientUnits="objectBoundingBox">
      <stop offset="0" stop-color="#039be5"/>
      <stop offset="1" stop-color="#4dd0e1"/>
    </linearGradient>
    <linearGradient id="linear-gradient-3" x1="5.75" y1="-1.525" x2="-7.75" y2="3.683" xlink:href="#linear-gradient-2"/>
    <linearGradient id="linear-gradient-4" x1="0.938" y1="0.315" x2="-9.284" y2="4.628" xlink:href="#linear-gradient-2"/>
    <linearGradient id="linear-gradient-5" x1="34.284" y1="-12.532" x2="0.213" y2="0.611" xlink:href="#linear-gradient-2"/>
    <linearGradient id="linear-gradient-6" x1="-2.719" y1="0.5" x2="3.731" y2="0.5" xlink:href="#linear-gradient-2"/>
    <linearGradient id="linear-gradient-7" x1="-7.249" y1="0.5" x2="2.355" y2="0.5" xlink:href="#linear-gradient-2"/>
    <linearGradient id="linear-gradient-8" x1="-5.125" y1="0.5" x2="10.037" y2="0.5" xlink:href="#linear-gradient-2"/>
    <linearGradient id="linear-gradient-9" x1="-6.522" y1="0.5" x2="7.314" y2="0.5" xlink:href="#linear-gradient-2"/>
    <linearGradient id="linear-gradient-10" x1="-10.578" y1="0.5" x2="5.785" y2="0.5" xlink:href="#linear-gradient-2"/>
    <linearGradient id="linear-gradient-11" x1="-30.273" y1="0.5" x2="0.505" y2="0.5" xlink:href="#linear-gradient-2"/>
    <linearGradient id="linear-gradient-12" x1="-17.378" y1="0.5" x2="1.707" y2="0.5" xlink:href="#linear-gradient-2"/>
    <linearGradient id="linear-gradient-13" x1="-2.25" y1="0.5" x2="7.329" y2="0.5" xlink:href="#linear-gradient-2"/>
    <linearGradient id="linear-gradient-14" x1="-1.548" y1="0.5" x2="13.593" y2="0.5" xlink:href="#linear-gradient-2"/>
    <linearGradient id="linear-gradient-15" x1="-0.506" y1="0.5" x2="18.67" y2="0.5" xlink:href="#linear-gradient-2"/>
    <linearGradient id="linear-gradient-16" x1="-1.672" y1="0.5" x2="5.214" y2="0.5" gradientUnits="objectBoundingBox">
      <stop offset="0" stop-color="#ffa726"/>
      <stop offset="0.995" stop-color="#ffca28"/>
    </linearGradient>
    <linearGradient id="linear-gradient-17" x1="-5.271" y1="0.5" x2="2.441" y2="0.5" xlink:href="#linear-gradient-16"/>
    <linearGradient id="linear-gradient-18" x1="-0.923" y1="0.5" x2="9.303" y2="0.5" xlink:href="#linear-gradient-16"/>
    <linearGradient id="linear-gradient-19" x1="-5.007" y1="0.5" x2="5.219" y2="0.5" xlink:href="#linear-gradient-16"/>
    <linearGradient id="linear-gradient-20" x1="-9.171" y1="0.5" x2="1.055" y2="0.5" xlink:href="#linear-gradient-16"/>
    <linearGradient id="linear-gradient-21" x1="-9.023" y1="0.5" x2="11.448" y2="0.5" xlink:href="#linear-gradient-16"/>
    <linearGradient id="linear-gradient-22" x1="-12.146" y1="0.5" x2="8.326" y2="0.5" xlink:href="#linear-gradient-16"/>
    <linearGradient id="linear-gradient-23" x1="-0.525" y1="0.5" x2="19.947" y2="0.5" xlink:href="#linear-gradient-16"/>
    <linearGradient id="linear-gradient-24" x1="0.136" y1="0.5" x2="8.743" y2="0.5" gradientUnits="objectBoundingBox">
      <stop offset="0.005" stop-color="#ffca28"/>
      <stop offset="1" stop-color="#ffa726"/>
    </linearGradient>
    <linearGradient id="linear-gradient-25" x1="-3.737" y1="0.5" x2="4.871" y2="0.5" xlink:href="#linear-gradient-24"/>
    <linearGradient id="linear-gradient-26" x1="-7.575" y1="0.5" x2="1.033" y2="0.5" xlink:href="#linear-gradient-24"/>
  </defs>
  <g id="t5-t2" transform="translate(-969.704 -4042.75)">
    <rect id="Rectangle_5480" data-name="Rectangle 5480" width="820" height="420" transform="translate(969.704 4042.75)" fill="#fff"/>
    <g id="Group_54031" data-name="Group 54031">
      <circle id="Ellipse_4054" data-name="Ellipse 4054" cx="58.5" cy="58.5" r="58.5" transform="translate(1630.316 4333.536)" fill="#039be5" opacity="0.55"/>
      <path id="Path_101955" data-name="Path 101955" d="M1046.646,4383.464S1181,4209.25,1658,4182.25l5.143,39.857,94.5-100.286-118.793-66.857,6.551,41.143S1173.289,4146.25,1046.646,4383.464Z" fill="url(#linear-gradient)"/>
      <g id="Group_54019" data-name="Group 54019">
        <path id="Path_101956" data-name="Path 101956" d="M1068.14,4400.579H1065.5l-5.133-8.42v8.42h-2.637v-12.8h2.637l5.142,8.438v-8.438h2.628Z" fill="#12263f"/>
        <path id="Path_101957" data-name="Path 101957" d="M1075.971,4399.612a3.184,3.184,0,0,1-2.6,1.143,3,3,0,0,1-2.333-.879,3.748,3.748,0,0,1-.822-2.575v-6.232h2.54v6.151q0,1.486,1.353,1.487a1.834,1.834,0,0,0,1.776-.9v-6.741h2.549v9.51h-2.391Z" fill="#12263f"/>
        <path id="Path_101958" data-name="Path 101958" d="M1084.725,4400.755a4.668,4.668,0,0,1-3.406-1.283,4.558,4.558,0,0,1-1.314-3.419v-.246a5.733,5.733,0,0,1,.554-2.562,4.055,4.055,0,0,1,1.569-1.74,4.4,4.4,0,0,1,2.315-.611,3.947,3.947,0,0,1,3.072,1.23,4.994,4.994,0,0,1,1.121,3.489v1.037h-6.056a2.358,2.358,0,0,0,.743,1.5,2.243,2.243,0,0,0,1.569.562,2.742,2.742,0,0,0,2.294-1.063l1.248,1.4a3.808,3.808,0,0,1-1.547,1.261A5.069,5.069,0,0,1,1084.725,4400.755Zm-.29-7.814a1.589,1.589,0,0,0-1.227.512,2.658,2.658,0,0,0-.6,1.466h3.534v-.2a1.891,1.891,0,0,0-.457-1.311A1.639,1.639,0,0,0,1084.435,4392.941Z" fill="#12263f"/>
        <path id="Path_101959" data-name="Path 101959" d="M1093.522,4397.477l1.767-6.408h2.654l-3.208,9.51h-2.425l-3.208-9.51h2.654Z" fill="#12263f"/>
        <path id="Path_101960" data-name="Path 101960" d="M1098.532,4395.736a5.643,5.643,0,0,1,.545-2.522,3.985,3.985,0,0,1,1.569-1.714,4.579,4.579,0,0,1,2.377-.606,4.33,4.33,0,0,1,3.142,1.177,4.722,4.722,0,0,1,1.358,3.2l.018.65a4.971,4.971,0,0,1-1.222,3.512,4.736,4.736,0,0,1-6.56,0,5.052,5.052,0,0,1-1.227-3.586Zm2.54.181a3.547,3.547,0,0,0,.51,2.072,1.83,1.83,0,0,0,2.9.009,3.886,3.886,0,0,0,.519-2.267,3.518,3.518,0,0,0-.519-2.059,1.686,1.686,0,0,0-1.459-.731,1.659,1.659,0,0,0-1.441.727A3.948,3.948,0,0,0,1101.072,4395.917Z" fill="#12263f"/>
        <path id="Path_101961" data-name="Path 101961" d="M1114.256,4397.951a.816.816,0,0,0-.462-.733,5.24,5.24,0,0,0-1.481-.48q-3.391-.71-3.392-2.883a2.615,2.615,0,0,1,1.051-2.114,4.238,4.238,0,0,1,2.746-.847,4.564,4.564,0,0,1,2.9.852,2.688,2.688,0,0,1,1.085,2.215h-2.54a1.232,1.232,0,0,0-.351-.9,1.492,1.492,0,0,0-1.1-.356,1.519,1.519,0,0,0-.993.29.915.915,0,0,0-.352.738.779.779,0,0,0,.4.681,4.065,4.065,0,0,0,1.348.449,11.034,11.034,0,0,1,1.6.426,2.628,2.628,0,0,1,2.013,2.558,2.477,2.477,0,0,1-1.117,2.1,4.81,4.81,0,0,1-2.882.8,5.053,5.053,0,0,1-2.123-.426,3.557,3.557,0,0,1-1.455-1.17,2.715,2.715,0,0,1-.527-1.6h2.408a1.328,1.328,0,0,0,.5,1.037,1.989,1.989,0,0,0,1.248.36,1.848,1.848,0,0,0,1.1-.276A.864.864,0,0,0,1114.256,4397.951Z" fill="#12263f"/>
      </g>
      <g id="Group_54020" data-name="Group 54020">
        <path id="Path_101962" data-name="Path 101962" d="M1248.7,4400.579h-2.637V4395.1h-5.141v5.484h-2.637v-12.8h2.637v5.186h5.141v-5.186h2.637Z" fill="#12263f"/>
        <path id="Path_101963" data-name="Path 101963" d="M1256.35,4400.579a2.78,2.78,0,0,1-.255-.852,3.076,3.076,0,0,1-2.4,1.028,3.377,3.377,0,0,1-2.316-.809,2.6,2.6,0,0,1-.918-2.039,2.685,2.685,0,0,1,1.121-2.32,5.517,5.517,0,0,1,3.238-.817h1.169v-.545a1.567,1.567,0,0,0-.339-1.055,1.327,1.327,0,0,0-1.067-.4,1.514,1.514,0,0,0-1.007.308,1.044,1.044,0,0,0-.364.844h-2.54a2.553,2.553,0,0,1,.51-1.53,3.373,3.373,0,0,1,1.441-1.1,5.243,5.243,0,0,1,2.092-.4,4.159,4.159,0,0,1,2.791.882,3.1,3.1,0,0,1,1.032,2.484v4.122a4.553,4.553,0,0,0,.378,2.048v.149Zm-2.1-1.766a2.186,2.186,0,0,0,1.037-.251,1.636,1.636,0,0,0,.7-.672v-1.635h-.949q-1.906,0-2.03,1.318l-.009.15a1.016,1.016,0,0,0,.334.782A1.3,1.3,0,0,0,1254.249,4398.813Z" fill="#12263f"/>
        <path id="Path_101964" data-name="Path 101964" d="M1269.059,4395.912a5.759,5.759,0,0,1-.976,3.564,3.23,3.23,0,0,1-2.725,1.279,2.968,2.968,0,0,1-2.469-1.187l-.115,1.011h-2.285v-13.5h2.54v4.843a2.892,2.892,0,0,1,2.312-1.028,3.255,3.255,0,0,1,2.729,1.279,5.764,5.764,0,0,1,.989,3.6Zm-2.54-.193a3.813,3.813,0,0,0-.457-2.112,1.545,1.545,0,0,0-1.363-.666,1.675,1.675,0,0,0-1.67,1v3.764a1.7,1.7,0,0,0,1.688,1,1.569,1.569,0,0,0,1.617-1.217A6.281,6.281,0,0,0,1266.519,4395.719Z" fill="#12263f"/>
        <path id="Path_101965" data-name="Path 101965" d="M1270.6,4388.608a1.254,1.254,0,0,1,.382-.94,1.648,1.648,0,0,1,2.079,0,1.343,1.343,0,0,1,0,1.89,1.63,1.63,0,0,1-2.065,0A1.245,1.245,0,0,1,1270.6,4388.608Zm2.7,11.971h-2.549v-9.51h2.549Z" fill="#12263f"/>
        <path id="Path_101966" data-name="Path 101966" d="M1278.437,4388.731v2.338h1.626v1.864h-1.626v4.746a1.135,1.135,0,0,0,.2.756,1.015,1.015,0,0,0,.773.228,4.057,4.057,0,0,0,.747-.061v1.924a5.2,5.2,0,0,1-1.538.229,2.426,2.426,0,0,1-2.725-2.7v-5.124h-1.388v-1.864h1.388v-2.338Z" fill="#12263f"/>
        <path id="Path_101967" data-name="Path 101967" d="M1287.173,4399.612a3.184,3.184,0,0,1-2.6,1.143,3,3,0,0,1-2.333-.879,3.748,3.748,0,0,1-.822-2.575v-6.232h2.54v6.151q0,1.486,1.354,1.487a1.833,1.833,0,0,0,1.775-.9v-6.741h2.549v9.51h-2.391Z" fill="#12263f"/>
        <path id="Path_101968" data-name="Path 101968" d="M1297.061,4400.579a2.777,2.777,0,0,1-.255-.852,3.076,3.076,0,0,1-2.4,1.028,3.378,3.378,0,0,1-2.316-.809,2.6,2.6,0,0,1-.918-2.039,2.685,2.685,0,0,1,1.121-2.32,5.518,5.518,0,0,1,3.238-.817h1.169v-.545a1.566,1.566,0,0,0-.339-1.055,1.327,1.327,0,0,0-1.067-.4,1.515,1.515,0,0,0-1.007.308,1.044,1.044,0,0,0-.364.844h-2.54a2.553,2.553,0,0,1,.51-1.53,3.374,3.374,0,0,1,1.441-1.1,5.243,5.243,0,0,1,2.092-.4,4.159,4.159,0,0,1,2.791.882,3.1,3.1,0,0,1,1.032,2.484v4.122a4.554,4.554,0,0,0,.378,2.048v.149Zm-2.1-1.766a2.186,2.186,0,0,0,1.037-.251,1.641,1.641,0,0,0,.7-.672v-1.635h-.949q-1.908,0-2.03,1.318l-.009.15a1.015,1.015,0,0,0,.334.782A1.3,1.3,0,0,0,1294.96,4398.813Z" fill="#12263f"/>
        <path id="Path_101969" data-name="Path 101969" d="M1303.881,4400.579h-2.549v-13.5h2.549Z" fill="#12263f"/>
        <path id="Path_101970" data-name="Path 101970" d="M1310.35,4400.755a4.668,4.668,0,0,1-3.406-1.283,4.558,4.558,0,0,1-1.314-3.419v-.246a5.733,5.733,0,0,1,.554-2.562,4.055,4.055,0,0,1,1.569-1.74,4.4,4.4,0,0,1,2.315-.611,3.947,3.947,0,0,1,3.072,1.23,4.994,4.994,0,0,1,1.121,3.489v1.037H1308.2a2.358,2.358,0,0,0,.743,1.5,2.243,2.243,0,0,0,1.569.562,2.742,2.742,0,0,0,2.294-1.063l1.248,1.4a3.808,3.808,0,0,1-1.547,1.261A5.069,5.069,0,0,1,1310.35,4400.755Zm-.29-7.814a1.589,1.589,0,0,0-1.227.512,2.658,2.658,0,0,0-.6,1.466h3.534v-.2a1.891,1.891,0,0,0-.457-1.311A1.639,1.639,0,0,0,1310.06,4392.941Z" fill="#12263f"/>
        <path id="Path_101971" data-name="Path 101971" d="M1320.853,4397.951a.818.818,0,0,0-.462-.733,5.243,5.243,0,0,0-1.481-.48q-3.393-.71-3.392-2.883a2.614,2.614,0,0,1,1.05-2.114,4.241,4.241,0,0,1,2.746-.847,4.569,4.569,0,0,1,2.9.852,2.688,2.688,0,0,1,1.085,2.215h-2.54a1.228,1.228,0,0,0-.352-.9,1.488,1.488,0,0,0-1.1-.356,1.519,1.519,0,0,0-.993.29.915.915,0,0,0-.352.738.78.78,0,0,0,.4.681,4.082,4.082,0,0,0,1.349.449,11.036,11.036,0,0,1,1.6.426,2.628,2.628,0,0,1,2.012,2.558,2.479,2.479,0,0,1-1.116,2.1,4.812,4.812,0,0,1-2.883.8,5.044,5.044,0,0,1-2.122-.426,3.559,3.559,0,0,1-1.455-1.17,2.716,2.716,0,0,1-.527-1.6h2.408a1.323,1.323,0,0,0,.5,1.037,1.985,1.985,0,0,0,1.248.36,1.852,1.852,0,0,0,1.1-.276A.864.864,0,0,0,1320.853,4397.951Z" fill="#12263f"/>
      </g>
      <g id="Group_54021" data-name="Group 54021">
        <path id="Path_101972" data-name="Path 101972" d="M1444.579,4397.942h-4.623l-.879,2.637h-2.8l4.764-12.8h2.443l4.791,12.8h-2.8Zm-3.911-2.135h3.2l-1.608-4.79Z" fill="#12263f"/>
        <path id="Path_101973" data-name="Path 101973" d="M1452.419,4397.477l1.767-6.408h2.654l-3.208,9.51h-2.426l-3.208-9.51h2.654Z" fill="#12263f"/>
        <path id="Path_101974" data-name="Path 101974" d="M1463.335,4400.579a2.839,2.839,0,0,1-.255-.852,3.074,3.074,0,0,1-2.4,1.028,3.38,3.38,0,0,1-2.317-.809,2.6,2.6,0,0,1-.918-2.039,2.685,2.685,0,0,1,1.121-2.32,5.521,5.521,0,0,1,3.239-.817h1.169v-.545a1.572,1.572,0,0,0-.339-1.055,1.33,1.33,0,0,0-1.068-.4,1.514,1.514,0,0,0-1.006.308,1.042,1.042,0,0,0-.365.844h-2.54a2.553,2.553,0,0,1,.51-1.53,3.379,3.379,0,0,1,1.441-1.1,5.246,5.246,0,0,1,2.092-.4,4.157,4.157,0,0,1,2.791.882,3.094,3.094,0,0,1,1.032,2.484v4.122a4.555,4.555,0,0,0,.378,2.048v.149Zm-2.1-1.766a2.186,2.186,0,0,0,1.037-.251,1.644,1.644,0,0,0,.7-.672v-1.635h-.95q-1.906,0-2.03,1.318l-.009.15a1.019,1.019,0,0,0,.334.782A1.3,1.3,0,0,0,1461.234,4398.813Z" fill="#12263f"/>
        <path id="Path_101975" data-name="Path 101975" d="M1469.813,4391.069l.079,1.1a3.316,3.316,0,0,1,2.733-1.274,2.758,2.758,0,0,1,2.25.887,4.148,4.148,0,0,1,.756,2.655v6.143h-2.54v-6.1a1.649,1.649,0,0,0-.352-1.176,1.569,1.569,0,0,0-1.169-.366,1.747,1.747,0,0,0-1.608.916v6.722h-2.54v-9.51Z" fill="#12263f"/>
        <path id="Path_101976" data-name="Path 101976" d="M1480.474,4398.531h4.649v2.048h-7.893v-1.547l4.474-5.915h-4.342v-2.048h7.62v1.5Z" fill="#12263f"/>
        <path id="Path_101977" data-name="Path 101977" d="M1492.225,4400.579a2.78,2.78,0,0,1-.255-.852,3.076,3.076,0,0,1-2.4,1.028,3.377,3.377,0,0,1-2.316-.809,2.6,2.6,0,0,1-.918-2.039,2.685,2.685,0,0,1,1.121-2.32,5.517,5.517,0,0,1,3.238-.817h1.169v-.545a1.567,1.567,0,0,0-.339-1.055,1.327,1.327,0,0,0-1.067-.4,1.514,1.514,0,0,0-1.007.308,1.044,1.044,0,0,0-.364.844h-2.54a2.553,2.553,0,0,1,.51-1.53,3.373,3.373,0,0,1,1.441-1.1,5.243,5.243,0,0,1,2.092-.4,4.159,4.159,0,0,1,2.791.882,3.1,3.1,0,0,1,1.032,2.484v4.122a4.553,4.553,0,0,0,.378,2.048v.149Zm-2.1-1.766a2.186,2.186,0,0,0,1.037-.251,1.636,1.636,0,0,0,.7-.672v-1.635h-.949q-1.906,0-2.03,1.318l-.009.15a1.016,1.016,0,0,0,.334.782A1.3,1.3,0,0,0,1490.124,4398.813Z" fill="#12263f"/>
        <path id="Path_101978" data-name="Path 101978" d="M1495.969,4395.754a5.724,5.724,0,0,1,1-3.542,3.233,3.233,0,0,1,2.728-1.318,2.909,2.909,0,0,1,2.294,1.037v-4.852h2.549v13.5h-2.294l-.123-1.011a2.989,2.989,0,0,1-2.443,1.187,3.229,3.229,0,0,1-2.694-1.322A5.918,5.918,0,0,1,1495.969,4395.754Zm2.54.181a3.772,3.772,0,0,0,.466,2.057,1.514,1.514,0,0,0,1.353.715,1.7,1.7,0,0,0,1.661-1v-3.77a1.674,1.674,0,0,0-1.643-1Q1498.508,4392.941,1498.509,4395.935Z" fill="#12263f"/>
        <path id="Path_101979" data-name="Path 101979" d="M1506.111,4395.736a5.643,5.643,0,0,1,.545-2.522,3.992,3.992,0,0,1,1.569-1.714,4.58,4.58,0,0,1,2.378-.606,4.329,4.329,0,0,1,3.141,1.177,4.728,4.728,0,0,1,1.359,3.2l.017.65a4.971,4.971,0,0,1-1.222,3.512,4.736,4.736,0,0,1-6.56,0,5.057,5.057,0,0,1-1.227-3.586Zm2.54.181a3.548,3.548,0,0,0,.51,2.072,1.831,1.831,0,0,0,2.9.009,3.894,3.894,0,0,0,.518-2.267,3.526,3.526,0,0,0-.518-2.059,1.688,1.688,0,0,0-1.459-.731,1.659,1.659,0,0,0-1.442.727A3.949,3.949,0,0,0,1508.651,4395.917Z" fill="#12263f"/>
        <path id="Path_101980" data-name="Path 101980" d="M1521.835,4397.951a.816.816,0,0,0-.462-.733,5.245,5.245,0,0,0-1.48-.48q-3.393-.71-3.393-2.883a2.615,2.615,0,0,1,1.051-2.114,4.238,4.238,0,0,1,2.746-.847,4.564,4.564,0,0,1,2.9.852,2.688,2.688,0,0,1,1.085,2.215h-2.54a1.232,1.232,0,0,0-.351-.9,1.492,1.492,0,0,0-1.1-.356,1.518,1.518,0,0,0-.993.29.918.918,0,0,0-.352.738.779.779,0,0,0,.4.681,4.075,4.075,0,0,0,1.348.449,11.034,11.034,0,0,1,1.6.426,2.628,2.628,0,0,1,2.013,2.558,2.477,2.477,0,0,1-1.117,2.1,4.81,4.81,0,0,1-2.882.8,5.045,5.045,0,0,1-2.122-.426,3.545,3.545,0,0,1-1.455-1.17,2.709,2.709,0,0,1-.528-1.6h2.408a1.329,1.329,0,0,0,.5,1.037,1.989,1.989,0,0,0,1.248.36,1.849,1.849,0,0,0,1.1-.276A.864.864,0,0,0,1521.835,4397.951Z" fill="#12263f"/>
      </g>
      <g id="Group_54022" data-name="Group 54022">
        <path id="Path_101981" data-name="Path 101981" d="M1135.755,4322.135V4310.76h3.211a5.177,5.177,0,0,1,2.625.656,4.45,4.45,0,0,1,1.762,1.867,6.067,6.067,0,0,1,.628,2.781v.727a6.088,6.088,0,0,1-.621,2.82,4.36,4.36,0,0,1-1.773,1.86,5.491,5.491,0,0,1-2.684.664Zm1.5-10.149v8.922h1.578a3.435,3.435,0,0,0,2.7-1.078,4.459,4.459,0,0,0,.965-3.074v-.664a4.531,4.531,0,0,0-.91-3.014,3.245,3.245,0,0,0-2.582-1.092Z" fill="#12263f"/>
        <path id="Path_101982" data-name="Path 101982" d="M1149.528,4322.291a3.691,3.691,0,0,1-2.8-1.129,4.19,4.19,0,0,1-1.078-3.019v-.266a5.069,5.069,0,0,1,.481-2.246,3.753,3.753,0,0,1,1.344-1.547,3.387,3.387,0,0,1,1.871-.559,3.173,3.173,0,0,1,2.562,1.086,4.7,4.7,0,0,1,.914,3.11v.6H1147.1a3,3,0,0,0,.73,2.02,2.3,2.3,0,0,0,1.777.769,2.509,2.509,0,0,0,1.3-.312,3.246,3.246,0,0,0,.93-.828l.883.687A3.547,3.547,0,0,1,1149.528,4322.291Zm-.179-7.578a1.929,1.929,0,0,0-1.469.637,3.088,3.088,0,0,0-.734,1.785h4.234v-.11a2.755,2.755,0,0,0-.594-1.707A1.819,1.819,0,0,0,1149.349,4314.713Z" fill="#12263f"/>
        <path id="Path_101983" data-name="Path 101983" d="M1159.419,4319.893a1.069,1.069,0,0,0-.441-.911,4.3,4.3,0,0,0-1.54-.558,7.245,7.245,0,0,1-1.742-.563,2.469,2.469,0,0,1-.953-.781,1.861,1.861,0,0,1-.308-1.078,2.2,2.2,0,0,1,.878-1.758,3.441,3.441,0,0,1,2.247-.719,3.532,3.532,0,0,1,2.332.743,2.36,2.36,0,0,1,.894,1.9h-1.453a1.306,1.306,0,0,0-.5-1.023,1.889,1.889,0,0,0-1.269-.43,1.978,1.978,0,0,0-1.235.344,1.082,1.082,0,0,0-.445.9.875.875,0,0,0,.414.789,5.029,5.029,0,0,0,1.5.508,7.861,7.861,0,0,1,1.754.578,2.569,2.569,0,0,1,1,.809,1.99,1.99,0,0,1,.324,1.152,2.159,2.159,0,0,1-.906,1.816,3.794,3.794,0,0,1-2.352.684,4.25,4.25,0,0,1-1.8-.359,2.925,2.925,0,0,1-1.223-1,2.423,2.423,0,0,1-.441-1.4h1.445a1.5,1.5,0,0,0,.582,1.153,2.25,2.25,0,0,0,1.433.425,2.319,2.319,0,0,0,1.317-.332A1.014,1.014,0,0,0,1159.419,4319.893Z" fill="#12263f"/>
        <path id="Path_101984" data-name="Path 101984" d="M1166.138,4321.111a2.083,2.083,0,0,0,1.351-.468,1.652,1.652,0,0,0,.641-1.172h1.367a2.617,2.617,0,0,1-.5,1.383,3.292,3.292,0,0,1-1.23,1.046,3.528,3.528,0,0,1-1.629.391,3.477,3.477,0,0,1-2.746-1.152,4.59,4.59,0,0,1-1.02-3.153v-.242a5.091,5.091,0,0,1,.453-2.2,3.456,3.456,0,0,1,1.3-1.492,3.7,3.7,0,0,1,2-.532,3.4,3.4,0,0,1,2.363.852,3.045,3.045,0,0,1,1,2.211h-1.367a2,2,0,0,0-.621-1.348,1.934,1.934,0,0,0-1.379-.527,2.027,2.027,0,0,0-1.707.793,3.73,3.73,0,0,0-.606,2.293v.273a3.646,3.646,0,0,0,.6,2.25A2.027,2.027,0,0,0,1166.138,4321.111Z" fill="#12263f"/>
        <path id="Path_101985" data-name="Path 101985" d="M1176.341,4321.3a3.069,3.069,0,0,1-2.477.992,2.628,2.628,0,0,1-2.058-.785,3.392,3.392,0,0,1-.715-2.324v-5.5h1.445v5.461q0,1.921,1.563,1.921a2.162,2.162,0,0,0,2.2-1.234v-6.148h1.445v8.453h-1.375Z" fill="#12263f"/>
        <path id="Path_101986" data-name="Path 101986" d="M1187.1,4318a5.021,5.021,0,0,1-.891,3.113,2.845,2.845,0,0,1-2.391,1.176,2.945,2.945,0,0,1-2.476-1.133l-.07.977h-1.329v-12h1.446v4.476a2.935,2.935,0,0,1,2.414-1.086,2.866,2.866,0,0,1,2.418,1.164,5.183,5.183,0,0,1,.879,3.188Zm-1.446-.164a3.908,3.908,0,0,0-.57-2.281,1.889,1.889,0,0,0-1.641-.805,2.122,2.122,0,0,0-2.054,1.328v3.656a2.178,2.178,0,0,0,2.07,1.328,1.877,1.877,0,0,0,1.617-.8A4.144,4.144,0,0,0,1185.653,4317.838Z" fill="#12263f"/>
        <path id="Path_101987" data-name="Path 101987" d="M1193.005,4314.979a4.371,4.371,0,0,0-.711-.055,1.906,1.906,0,0,0-1.93,1.211v6h-1.445v-8.453h1.406l.024.976a2.25,2.25,0,0,1,2.015-1.133,1.493,1.493,0,0,1,.641.11Z" fill="#12263f"/>
        <path id="Path_101988" data-name="Path 101988" d="M1197.692,4322.291a3.687,3.687,0,0,1-2.8-1.129,4.187,4.187,0,0,1-1.079-3.019v-.266a5.084,5.084,0,0,1,.481-2.246,3.755,3.755,0,0,1,1.344-1.547,3.388,3.388,0,0,1,1.871-.559,3.173,3.173,0,0,1,2.562,1.086,4.7,4.7,0,0,1,.914,3.11v.6h-5.726a3,3,0,0,0,.73,2.02,2.3,2.3,0,0,0,1.778.769,2.508,2.508,0,0,0,1.3-.312,3.247,3.247,0,0,0,.93-.828l.883.687A3.547,3.547,0,0,1,1197.692,4322.291Zm-.179-7.578a1.929,1.929,0,0,0-1.469.637,3.087,3.087,0,0,0-.734,1.785h4.234v-.11a2.754,2.754,0,0,0-.594-1.707A1.819,1.819,0,0,0,1197.513,4314.713Z" fill="#12263f"/>
      </g>
      <g id="Group_54023" data-name="Group 54023">
        <path id="Path_101989" data-name="Path 101989" d="M1261.379,4258.821v-11.375h3.211a5.167,5.167,0,0,1,2.625.657,4.428,4.428,0,0,1,1.762,1.867,6.06,6.06,0,0,1,.628,2.781v.727a6.1,6.1,0,0,1-.621,2.82,4.369,4.369,0,0,1-1.773,1.859,5.491,5.491,0,0,1-2.684.664Zm1.5-10.148v8.922h1.578a3.435,3.435,0,0,0,2.7-1.079,4.458,4.458,0,0,0,.965-3.074v-.664a4.529,4.529,0,0,0-.91-3.014,3.241,3.241,0,0,0-2.582-1.091Z" fill="#12263f"/>
        <path id="Path_101990" data-name="Path 101990" d="M1275.152,4258.978a3.694,3.694,0,0,1-2.8-1.129,4.194,4.194,0,0,1-1.078-3.02v-.266a5.082,5.082,0,0,1,.481-2.246,3.738,3.738,0,0,1,1.344-1.546,3.372,3.372,0,0,1,1.871-.559,3.167,3.167,0,0,1,2.562,1.086,4.7,4.7,0,0,1,.914,3.109v.6h-5.726a3,3,0,0,0,.73,2.019,2.3,2.3,0,0,0,1.777.77,2.519,2.519,0,0,0,1.3-.313,3.247,3.247,0,0,0,.93-.828l.883.688A3.549,3.549,0,0,1,1275.152,4258.978Zm-.179-7.579a1.925,1.925,0,0,0-1.469.637,3.091,3.091,0,0,0-.734,1.785H1277v-.109a2.75,2.75,0,0,0-.594-1.707A1.817,1.817,0,0,0,1274.973,4251.4Z" fill="#12263f"/>
        <path id="Path_101991" data-name="Path 101991" d="M1285.043,4256.579a1.063,1.063,0,0,0-.441-.91,4.277,4.277,0,0,0-1.539-.559,7.246,7.246,0,0,1-1.743-.562,2.5,2.5,0,0,1-.953-.781,1.87,1.87,0,0,1-.308-1.079,2.192,2.192,0,0,1,.879-1.757,3.425,3.425,0,0,1,2.246-.719,3.532,3.532,0,0,1,2.332.742,2.359,2.359,0,0,1,.894,1.9h-1.453a1.305,1.305,0,0,0-.5-1.024,1.89,1.89,0,0,0-1.269-.43,1.977,1.977,0,0,0-1.235.344,1.082,1.082,0,0,0-.445.9.878.878,0,0,0,.414.789,5.122,5.122,0,0,0,1.5.507,7.807,7.807,0,0,1,1.754.579,2.545,2.545,0,0,1,1,.808,1.99,1.99,0,0,1,.324,1.153,2.162,2.162,0,0,1-.906,1.816,3.8,3.8,0,0,1-2.352.684,4.266,4.266,0,0,1-1.8-.36,2.915,2.915,0,0,1-1.223-1,2.416,2.416,0,0,1-.441-1.394h1.445a1.5,1.5,0,0,0,.582,1.152,2.259,2.259,0,0,0,1.433.426,2.327,2.327,0,0,0,1.317-.332A1.019,1.019,0,0,0,1285.043,4256.579Z" fill="#12263f"/>
        <path id="Path_101992" data-name="Path 101992" d="M1291.762,4257.8a2.078,2.078,0,0,0,1.351-.469,1.648,1.648,0,0,0,.641-1.172h1.367a2.612,2.612,0,0,1-.5,1.383,3.3,3.3,0,0,1-1.23,1.047,3.541,3.541,0,0,1-1.629.391,3.477,3.477,0,0,1-2.746-1.153,4.589,4.589,0,0,1-1.02-3.152v-.242a5.092,5.092,0,0,1,.453-2.2,3.461,3.461,0,0,1,1.3-1.492,3.7,3.7,0,0,1,2-.531,3.393,3.393,0,0,1,2.363.851,3.044,3.044,0,0,1,1,2.211h-1.367a2,2,0,0,0-.621-1.347,1.932,1.932,0,0,0-1.379-.528,2.025,2.025,0,0,0-1.707.793,3.73,3.73,0,0,0-.606,2.293v.274a3.653,3.653,0,0,0,.6,2.25A2.032,2.032,0,0,0,1291.762,4257.8Z" fill="#12263f"/>
        <path id="Path_101993" data-name="Path 101993" d="M1301.965,4258.821a3.018,3.018,0,0,1-.2-.89,3.226,3.226,0,0,1-2.407,1.047,2.983,2.983,0,0,1-2.05-.707,2.289,2.289,0,0,1-.8-1.793,2.392,2.392,0,0,1,1-2.051,4.725,4.725,0,0,1,2.824-.731h1.406v-.664a1.624,1.624,0,0,0-.453-1.207,1.817,1.817,0,0,0-1.336-.449,2.1,2.1,0,0,0-1.3.391,1.151,1.151,0,0,0-.523.945h-1.453a1.994,1.994,0,0,1,.449-1.223,3.074,3.074,0,0,1,1.219-.933,4.084,4.084,0,0,1,1.691-.344,3.342,3.342,0,0,1,2.289.73,2.64,2.64,0,0,1,.86,2.012v3.891a4.751,4.751,0,0,0,.3,1.851v.125Zm-2.4-1.1a2.533,2.533,0,0,0,1.289-.352,2.121,2.121,0,0,0,.883-.914v-1.734H1300.6q-2.655,0-2.656,1.554a1.318,1.318,0,0,0,.453,1.063A1.745,1.745,0,0,0,1299.566,4257.72Z" fill="#12263f"/>
        <path id="Path_101994" data-name="Path 101994" d="M1309.535,4251.665a4.371,4.371,0,0,0-.711-.055,1.9,1.9,0,0,0-1.929,1.211v6h-1.446v-8.453h1.406l.024.977a2.25,2.25,0,0,1,2.016-1.133,1.475,1.475,0,0,1,.64.109Z" fill="#12263f"/>
        <path id="Path_101995" data-name="Path 101995" d="M1310.371,4254.524a4.97,4.97,0,0,1,.914-3.144,3.151,3.151,0,0,1,4.836-.074l.07-.938h1.321v8.25a3.436,3.436,0,0,1-.973,2.586,3.588,3.588,0,0,1-2.613.945,4.331,4.331,0,0,1-1.789-.39,3.076,3.076,0,0,1-1.336-1.071l.75-.867a2.826,2.826,0,0,0,2.273,1.149,2.221,2.221,0,0,0,1.645-.594,2.27,2.27,0,0,0,.59-1.672v-.726a2.972,2.972,0,0,1-2.368,1,2.888,2.888,0,0,1-2.4-1.2A5.226,5.226,0,0,1,1310.371,4254.524Zm1.453.164a3.8,3.8,0,0,0,.586,2.247,1.905,1.905,0,0,0,1.641.816,2.118,2.118,0,0,0,2.008-1.242v-3.86a2.143,2.143,0,0,0-1.993-1.211,1.92,1.92,0,0,0-1.648.821A4.127,4.127,0,0,0,1311.824,4254.688Z" fill="#12263f"/>
        <path id="Path_101996" data-name="Path 101996" d="M1324.91,4258.821a3.051,3.051,0,0,1-.2-.89,3.226,3.226,0,0,1-2.406,1.047,2.986,2.986,0,0,1-2.051-.707,2.289,2.289,0,0,1-.8-1.793,2.392,2.392,0,0,1,1-2.051,4.725,4.725,0,0,1,2.824-.731h1.407v-.664a1.624,1.624,0,0,0-.454-1.207,1.814,1.814,0,0,0-1.335-.449,2.1,2.1,0,0,0-1.3.391,1.15,1.15,0,0,0-.524.945h-1.453a2,2,0,0,1,.449-1.223,3.074,3.074,0,0,1,1.219-.933,4.088,4.088,0,0,1,1.691-.344,3.345,3.345,0,0,1,2.29.73,2.642,2.642,0,0,1,.859,2.012v3.891a4.749,4.749,0,0,0,.3,1.851v.125Zm-2.4-1.1a2.536,2.536,0,0,0,1.289-.352,2.132,2.132,0,0,0,.883-.914v-1.734h-1.133q-2.656,0-2.656,1.554a1.315,1.315,0,0,0,.453,1.063A1.741,1.741,0,0,0,1322.512,4257.72Z" fill="#12263f"/>
      </g>
      <g id="Group_54024" data-name="Group 54024">
        <circle id="Ellipse_4055" data-name="Ellipse 4055" cx="13.5" cy="13.5" r="13.5" transform="translate(1226.646 4228.536)" fill="url(#linear-gradient-2)"/>
        <circle id="Ellipse_4056" data-name="Ellipse 4056" cx="17.036" cy="17.036" r="17.036" transform="translate(1376.753 4170.357)" fill="url(#linear-gradient-3)"/>
        <ellipse id="Ellipse_4057" data-name="Ellipse 4057" cx="22.5" cy="20.571" rx="22.5" ry="20.571" transform="translate(1541.003 4132.75)" fill="url(#linear-gradient-4)"/>
        <circle id="Ellipse_4058" data-name="Ellipse 4058" cx="6.75" cy="6.75" r="6.75" transform="translate(1115.432 4302.143)" fill="url(#linear-gradient-5)"/>
      </g>
      <g id="Group_54025" data-name="Group 54025">
        <circle id="Ellipse_4059" data-name="Ellipse 4059" cx="11.865" cy="11.865" r="11.865" transform="translate(1067.245 4351.993)" fill="url(#linear-gradient-6)"/>
        <circle id="Ellipse_4060" data-name="Ellipse 4060" cx="7.968" cy="7.968" r="7.968" transform="translate(1118.245 4350.134)" fill="url(#linear-gradient-7)"/>
        <circle id="Ellipse_4061" data-name="Ellipse 4061" cx="5.047" cy="5.047" r="5.047" transform="translate(1054.455 4341.897)" fill="url(#linear-gradient-8)"/>
        <circle id="Ellipse_4062" data-name="Ellipse 4062" cx="5.531" cy="5.531" r="5.531" transform="translate(1074.869 4334.765)" fill="url(#linear-gradient-9)"/>
        <circle id="Ellipse_4063" data-name="Ellipse 4063" cx="4.677" cy="4.677" r="4.677" transform="translate(1101.663 4345.457)" fill="url(#linear-gradient-10)"/>
        <circle id="Ellipse_4064" data-name="Ellipse 4064" cx="2.487" cy="2.487" r="2.487" transform="translate(1153.266 4381.216)" fill="url(#linear-gradient-11)"/>
        <circle id="Ellipse_4065" data-name="Ellipse 4065" cx="4.01" cy="4.01" r="4.01" transform="translate(1142.089 4366.306)" fill="url(#linear-gradient-12)"/>
        <circle id="Ellipse_4066" data-name="Ellipse 4066" cx="7.989" cy="7.989" r="7.989" transform="translate(1038.675 4354.097)" fill="url(#linear-gradient-13)"/>
        <circle id="Ellipse_4067" data-name="Ellipse 4067" cx="5.055" cy="5.055" r="5.055" transform="translate(1018.362 4351.993)" fill="url(#linear-gradient-14)"/>
        <circle id="Ellipse_4068" data-name="Ellipse 4068" cx="3.991" cy="3.991" r="3.991" transform="translate(1006.759 4367.558)" fill="url(#linear-gradient-15)"/>
      </g>
      <g id="Group_54026" data-name="Group 54026">
        <circle id="Ellipse_4069" data-name="Ellipse 4069" cx="11.865" cy="11.865" r="11.865" transform="translate(1037.245 4418.85)" fill="url(#linear-gradient-16)"/>
        <circle id="Ellipse_4070" data-name="Ellipse 4070" cx="10.593" cy="10.593" r="10.593" transform="translate(1109.245 4418.821)" fill="url(#linear-gradient-17)"/>
        <circle id="Ellipse_4071" data-name="Ellipse 4071" cx="7.989" cy="7.989" r="7.989" transform="translate(1012.318 4410.833)" fill="url(#linear-gradient-18)"/>
        <circle id="Ellipse_4072" data-name="Ellipse 4072" cx="7.989" cy="7.989" r="7.989" transform="translate(1077.575 4419.297)" fill="url(#linear-gradient-19)"/>
        <circle id="Ellipse_4073" data-name="Ellipse 4073" cx="7.989" cy="7.989" r="7.989" transform="translate(1144.117 4412.237)" fill="url(#linear-gradient-20)"/>
        <circle id="Ellipse_4074" data-name="Ellipse 4074" cx="3.991" cy="3.991" r="3.991" transform="translate(1069.592 4438.588)" fill="url(#linear-gradient-21)"/>
        <circle id="Ellipse_4075" data-name="Ellipse 4075" cx="3.991" cy="3.991" r="3.991" transform="translate(1094.516 4439.338)" fill="url(#linear-gradient-22)"/>
        <circle id="Ellipse_4076" data-name="Ellipse 4076" cx="3.991" cy="3.991" r="3.991" transform="translate(1001.762 4400.579)" fill="url(#linear-gradient-23)"/>
      </g>
      <g id="Group_54027" data-name="Group 54027">
        <path id="Path_101997" data-name="Path 101997" d="M1420.265,4204.429h-1.5v-11.375h1.5Z" fill="#12263f"/>
        <path id="Path_101998" data-name="Path 101998" d="M1424.147,4195.976l.047,1.062a3.083,3.083,0,0,1,2.532-1.219q2.679,0,2.7,3.024v5.586h-1.446v-5.594a1.94,1.94,0,0,0-.418-1.352,1.672,1.672,0,0,0-1.277-.437,2.084,2.084,0,0,0-1.234.375,2.542,2.542,0,0,0-.828.984v6.024h-1.446v-8.453Z" fill="#12263f"/>
        <path id="Path_101999" data-name="Path 101999" d="M1433.569,4193.929v2.047h1.578v1.117h-1.578v5.249a1.174,1.174,0,0,0,.211.762.89.89,0,0,0,.719.254,3.525,3.525,0,0,0,.688-.093v1.165a4.234,4.234,0,0,1-1.11.155,1.8,1.8,0,0,1-1.461-.586,2.518,2.518,0,0,1-.492-1.664v-5.242h-1.539v-1.117h1.539v-2.047Z" fill="#12263f"/>
        <path id="Path_102000" data-name="Path 102000" d="M1440.343,4204.585a3.693,3.693,0,0,1-2.8-1.129,4.189,4.189,0,0,1-1.078-3.019v-.266a5.077,5.077,0,0,1,.48-2.246,3.757,3.757,0,0,1,1.344-1.547,3.38,3.38,0,0,1,1.871-.559,3.172,3.172,0,0,1,2.563,1.086,4.707,4.707,0,0,1,.914,3.11v.6h-5.727a3.009,3.009,0,0,0,.731,2.02,2.3,2.3,0,0,0,1.777.769,2.522,2.522,0,0,0,1.3-.312,3.258,3.258,0,0,0,.929-.828l.883.687A3.547,3.547,0,0,1,1440.343,4204.585Zm-.18-7.578a1.928,1.928,0,0,0-1.469.637,3.1,3.1,0,0,0-.734,1.785h4.234v-.11a2.758,2.758,0,0,0-.593-1.707A1.818,1.818,0,0,0,1440.163,4197.007Z" fill="#12263f"/>
        <path id="Path_102001" data-name="Path 102001" d="M1449.4,4197.272a4.361,4.361,0,0,0-.71-.054,1.9,1.9,0,0,0-1.93,1.211v6h-1.445v-8.453h1.406l.023.976a2.251,2.251,0,0,1,2.016-1.133,1.451,1.451,0,0,1,.64.11Z" fill="#12263f"/>
        <path id="Path_102002" data-name="Path 102002" d="M1455.632,4204.429a3.023,3.023,0,0,1-.2-.891,3.226,3.226,0,0,1-2.407,1.047,2.978,2.978,0,0,1-2.05-.707,2.288,2.288,0,0,1-.8-1.793,2.39,2.39,0,0,1,1-2.051,4.728,4.728,0,0,1,2.824-.73h1.406v-.664a1.622,1.622,0,0,0-.453-1.207,1.817,1.817,0,0,0-1.336-.45,2.1,2.1,0,0,0-1.3.391,1.153,1.153,0,0,0-.523.945h-1.453a1.988,1.988,0,0,1,.449-1.222,3.072,3.072,0,0,1,1.219-.934,4.1,4.1,0,0,1,1.691-.344,3.342,3.342,0,0,1,2.289.731,2.637,2.637,0,0,1,.86,2.012v3.89a4.756,4.756,0,0,0,.3,1.852v.125Zm-2.4-1.1a2.541,2.541,0,0,0,1.289-.351,2.124,2.124,0,0,0,.883-.914v-1.735h-1.133q-2.655,0-2.656,1.555a1.317,1.317,0,0,0,.453,1.062A1.743,1.743,0,0,0,1453.233,4203.327Z" fill="#12263f"/>
        <path id="Path_102003" data-name="Path 102003" d="M1462.507,4203.4a2.083,2.083,0,0,0,1.351-.468,1.652,1.652,0,0,0,.641-1.172h1.367a2.612,2.612,0,0,1-.5,1.382,3.287,3.287,0,0,1-1.23,1.047,3.541,3.541,0,0,1-1.629.391,3.48,3.48,0,0,1-2.746-1.152,4.593,4.593,0,0,1-1.02-3.153v-.242a5.1,5.1,0,0,1,.453-2.2,3.45,3.45,0,0,1,1.3-1.492,3.693,3.693,0,0,1,2-.532,3.394,3.394,0,0,1,2.363.852,3.043,3.043,0,0,1,1,2.211H1464.5a2,2,0,0,0-.621-1.348,1.934,1.934,0,0,0-1.379-.527,2.022,2.022,0,0,0-1.707.793,3.728,3.728,0,0,0-.6,2.293v.273a3.651,3.651,0,0,0,.6,2.25A2.03,2.03,0,0,0,1462.507,4203.4Z" fill="#12263f"/>
        <path id="Path_102004" data-name="Path 102004" d="M1469.452,4193.929v2.047h1.578v1.117h-1.578v5.249a1.168,1.168,0,0,0,.211.762.89.89,0,0,0,.719.254,3.517,3.517,0,0,0,.687-.093v1.165a4.232,4.232,0,0,1-1.109.155,1.8,1.8,0,0,1-1.461-.586,2.518,2.518,0,0,1-.492-1.664v-5.242h-1.539v-1.117h1.539v-2.047Z" fill="#12263f"/>
        <path id="Path_102005" data-name="Path 102005" d="M1477.937,4203.593a3.072,3.072,0,0,1-2.477.992,2.63,2.63,0,0,1-2.059-.785,3.394,3.394,0,0,1-.714-2.324v-5.5h1.445v5.461q0,1.921,1.562,1.921a2.162,2.162,0,0,0,2.2-1.234v-6.148h1.446v8.453h-1.375Zm-1.172-11.149h1.75l-2.094,2.3-1.164,0Z" fill="#12263f"/>
        <path id="Path_102006" data-name="Path 102006" d="M1486.757,4204.429a3.023,3.023,0,0,1-.2-.891,3.226,3.226,0,0,1-2.407,1.047,2.978,2.978,0,0,1-2.05-.707,2.288,2.288,0,0,1-.8-1.793,2.39,2.39,0,0,1,1-2.051,4.728,4.728,0,0,1,2.824-.73h1.406v-.664a1.622,1.622,0,0,0-.453-1.207,1.817,1.817,0,0,0-1.336-.45,2.1,2.1,0,0,0-1.3.391,1.153,1.153,0,0,0-.523.945h-1.453a1.988,1.988,0,0,1,.449-1.222,3.072,3.072,0,0,1,1.219-.934,4.1,4.1,0,0,1,1.691-.344,3.342,3.342,0,0,1,2.289.731,2.637,2.637,0,0,1,.86,2.012v3.89a4.756,4.756,0,0,0,.3,1.852v.125Zm-2.4-1.1a2.541,2.541,0,0,0,1.289-.351,2.124,2.124,0,0,0,.883-.914v-1.735H1485.4q-2.655,0-2.656,1.555a1.317,1.317,0,0,0,.453,1.062A1.743,1.743,0,0,0,1484.358,4203.327Z" fill="#12263f"/>
      </g>
      <g id="Group_54028" data-name="Group 54028">
        <path id="Path_102007" data-name="Path 102007" d="M1603.52,4164.986v7.735a3.634,3.634,0,0,1-1.012,2.633,4.085,4.085,0,0,1-2.723,1.148l-.4.016a4.255,4.255,0,0,1-2.977-1.008,3.611,3.611,0,0,1-1.125-2.774v-7.75h1.485v7.7a2.372,2.372,0,0,0,2.617,2.6,2.63,2.63,0,0,0,1.949-.68,2.6,2.6,0,0,0,.676-1.914v-7.711Z" fill="#12263f"/>
        <path id="Path_102008" data-name="Path 102008" d="M1607.621,4165.861v2.047h1.578v1.117h-1.578v5.248a1.175,1.175,0,0,0,.211.764.893.893,0,0,0,.719.254,3.466,3.466,0,0,0,.687-.094v1.164a4.2,4.2,0,0,1-1.109.157,1.8,1.8,0,0,1-1.461-.586,2.521,2.521,0,0,1-.492-1.664v-5.243h-1.539v-1.117h1.539v-2.047Z" fill="#12263f"/>
        <path id="Path_102009" data-name="Path 102009" d="M1610.9,4165.666a.863.863,0,0,1,.214-.594.808.808,0,0,1,.637-.242.82.82,0,0,1,.641.242.857.857,0,0,1,.218.594.855.855,0,1,1-1.71,0Zm1.562,10.695h-1.445v-8.453h1.445Z" fill="#12263f"/>
        <path id="Path_102010" data-name="Path 102010" d="M1616.34,4176.361H1614.9v-12h1.445Z" fill="#12263f"/>
        <path id="Path_102011" data-name="Path 102011" d="M1618.66,4165.666a.859.859,0,0,1,.215-.594.807.807,0,0,1,.637-.242.816.816,0,0,1,.64.242.853.853,0,0,1,.219.594.856.856,0,1,1-1.711,0Zm1.563,10.695h-1.446v-8.453h1.446Z" fill="#12263f"/>
        <path id="Path_102012" data-name="Path 102012" d="M1623.9,4175.182h4.945v1.179h-6.711V4175.3l4.664-6.195H1622.2v-1.2h6.406v1.024Z" fill="#12263f"/>
        <path id="Path_102013" data-name="Path 102013" d="M1635.684,4176.361a3.06,3.06,0,0,1-.2-.89,3.226,3.226,0,0,1-2.406,1.047,3,3,0,0,1-2.051-.707,2.292,2.292,0,0,1-.8-1.793,2.39,2.39,0,0,1,1-2.051,4.725,4.725,0,0,1,2.824-.731h1.406v-.664a1.62,1.62,0,0,0-.453-1.207,1.813,1.813,0,0,0-1.336-.449,2.1,2.1,0,0,0-1.3.391,1.146,1.146,0,0,0-.523.945H1630.4a1.992,1.992,0,0,1,.449-1.223,3.052,3.052,0,0,1,1.219-.933,4.068,4.068,0,0,1,1.691-.344,3.337,3.337,0,0,1,2.289.73,2.633,2.633,0,0,1,.859,2.012v3.891a4.757,4.757,0,0,0,.3,1.851v.125Zm-2.4-1.1a2.535,2.535,0,0,0,1.289-.352,2.132,2.132,0,0,0,.883-.914v-1.734h-1.133q-2.655,0-2.656,1.554a1.316,1.316,0,0,0,.453,1.063A1.75,1.75,0,0,0,1633.285,4175.26Z" fill="#12263f"/>
      </g>
      <g id="Group_54029" data-name="Group 54029">
        <path id="Path_102014" data-name="Path 102014" d="M1182.074,4433.393H1163l33.021-38.464L1163,4356.464h19.071l33.021,38.464Z" fill="url(#linear-gradient-24)"/>
        <path id="Path_102015" data-name="Path 102015" d="M1383.812,4433.393h-19.072l33.021-38.464-33.021-38.464h19.072l33.021,38.464Z" fill="url(#linear-gradient-25)"/>
        <path id="Path_102016" data-name="Path 102016" d="M1583.741,4433.393h-19.071l33.021-38.464-33.021-38.464h19.071l33.021,38.464Z" fill="url(#linear-gradient-26)"/>
      </g>
      <path id="Ellipse_4077" data-name="Ellipse 4077" d="M58.5-.75A58.976,58.976,0,0,1,91.628,9.369a59.421,59.421,0,0,1,21.466,26.068,59.173,59.173,0,0,1-5.463,56.191,59.421,59.421,0,0,1-26.068,21.466,59.173,59.173,0,0,1-56.191-5.463A59.421,59.421,0,0,1,3.906,81.563,59.173,59.173,0,0,1,9.369,25.372,59.421,59.421,0,0,1,35.437,3.906,58.88,58.88,0,0,1,58.5-.75Zm0,117A57.75,57.75,0,1,0,.75,58.5,57.815,57.815,0,0,0,58.5,116.25Z" transform="translate(1630.316 4333.536)" fill="#039be5"/>
      <g id="Group_54030" data-name="Group 54030">
        <path id="Path_102017" data-name="Path 102017" d="M1682.522,4368.535v9.834a5.028,5.028,0,0,1-1.533,3.875,5.905,5.905,0,0,1-4.188,1.426,5.977,5.977,0,0,1-4.154-1.385,4.949,4.949,0,0,1-1.568-3.8v-9.946h3.076v9.854a2.848,2.848,0,0,0,.7,2.138,2.7,2.7,0,0,0,1.944.672q2.594,0,2.636-2.728v-9.936Z" fill="#12263f"/>
        <path id="Path_102018" data-name="Path 102018" d="M1690.858,4380.4a.952.952,0,0,0-.538-.855,6.079,6.079,0,0,0-1.727-.559q-3.959-.831-3.958-3.363a3.051,3.051,0,0,1,1.225-2.467,4.948,4.948,0,0,1,3.2-.989,5.319,5.319,0,0,1,3.379,1,3.136,3.136,0,0,1,1.267,2.584h-2.964a1.44,1.44,0,0,0-.41-1.052,1.74,1.74,0,0,0-1.282-.415,1.779,1.779,0,0,0-1.158.338,1.07,1.07,0,0,0-.411.862.912.912,0,0,0,.467.794,4.785,4.785,0,0,0,1.574.524,12.648,12.648,0,0,1,1.866.5,3.066,3.066,0,0,1,2.348,2.983,2.892,2.892,0,0,1-1.3,2.456,5.617,5.617,0,0,1-3.363.939,5.868,5.868,0,0,1-2.476-.5,4.158,4.158,0,0,1-1.7-1.364,3.172,3.172,0,0,1-.615-1.871h2.81a1.54,1.54,0,0,0,.585,1.209,2.305,2.305,0,0,0,1.455.421,2.149,2.149,0,0,0,1.287-.323A1,1,0,0,0,1690.858,4380.4Z" fill="#12263f"/>
        <path id="Path_102019" data-name="Path 102019" d="M1695.187,4377.814a6.575,6.575,0,0,1,.635-2.942,4.655,4.655,0,0,1,1.83-2,5.328,5.328,0,0,1,2.774-.708,5.05,5.05,0,0,1,3.666,1.374,5.516,5.516,0,0,1,1.584,3.732l.021.759a5.8,5.8,0,0,1-1.426,4.1,5.524,5.524,0,0,1-7.654,0,5.9,5.9,0,0,1-1.43-4.184Zm2.963.211a4.145,4.145,0,0,0,.594,2.418,2.137,2.137,0,0,0,3.385.011,4.55,4.55,0,0,0,.6-2.644,4.122,4.122,0,0,0-.6-2.4,1.971,1.971,0,0,0-1.7-.851,1.936,1.936,0,0,0-1.682.846A4.623,4.623,0,0,0,1698.15,4378.025Z" fill="#12263f"/>
        <path id="Path_102020" data-name="Path 102020" d="M1644.783,4408.665v-8.921h-1.651v-2.174h1.651v-.943a3.836,3.836,0,0,1,1.071-2.9,4.151,4.151,0,0,1,3-1.03,7.011,7.011,0,0,1,1.507.2l-.03,2.278a3.81,3.81,0,0,0-.9-.092q-1.674,0-1.672,1.582v.9h2.205v2.174h-2.205v8.921Z" fill="#12263f"/>
        <path id="Path_102021" data-name="Path 102021" d="M1657.734,4400.349a8.146,8.146,0,0,0-1.066-.082,2.17,2.17,0,0,0-2.2,1.138v7.26H1651.5v-11.1h2.8l.082,1.324a2.746,2.746,0,0,1,2.471-1.529,3.106,3.106,0,0,1,.923.134Z" fill="#12263f"/>
        <path id="Path_102022" data-name="Path 102022" d="M1664.07,4408.87a5.441,5.441,0,0,1-3.972-1.5,5.318,5.318,0,0,1-1.534-3.989v-.287a6.684,6.684,0,0,1,.647-2.989,4.728,4.728,0,0,1,1.83-2.03,5.132,5.132,0,0,1,2.7-.713,4.606,4.606,0,0,1,3.584,1.436,5.833,5.833,0,0,1,1.308,4.071v1.209h-7.066a2.748,2.748,0,0,0,.868,1.744,2.613,2.613,0,0,0,1.83.656,3.2,3.2,0,0,0,2.675-1.241l1.457,1.63a4.444,4.444,0,0,1-1.8,1.472A5.928,5.928,0,0,1,1664.07,4408.87Zm-.338-9.115a1.85,1.85,0,0,0-1.43.6,3.093,3.093,0,0,0-.7,1.71h4.122v-.238a2.206,2.206,0,0,0-.534-1.529A1.911,1.911,0,0,0,1663.732,4399.755Z" fill="#12263f"/>
        <path id="Path_102023" data-name="Path 102023" d="M1674.93,4406.481a1.946,1.946,0,0,0,1.334-.451,1.592,1.592,0,0,0,.533-1.2h2.778a3.8,3.8,0,0,1-.615,2.066,4.068,4.068,0,0,1-1.656,1.457,5.2,5.2,0,0,1-2.323.517,4.813,4.813,0,0,1-3.752-1.513,5.98,5.98,0,0,1-1.375-4.178v-.2a5.908,5.908,0,0,1,1.365-4.09,4.756,4.756,0,0,1,3.742-1.529,4.666,4.666,0,0,1,3.338,1.185,4.19,4.19,0,0,1,1.276,3.152H1676.8a2.049,2.049,0,0,0-.533-1.406,1.984,1.984,0,0,0-2.918.213,4.38,4.38,0,0,0-.528,2.449v.309a4.425,4.425,0,0,0,.523,2.464A1.806,1.806,0,0,0,1674.93,4406.481Z" fill="#12263f"/>
        <path id="Path_102024" data-name="Path 102024" d="M1687.912,4407.537a3.718,3.718,0,0,1-3.035,1.333,3.509,3.509,0,0,1-2.723-1.025,4.377,4.377,0,0,1-.959-3v-7.271h2.963v7.176q0,1.734,1.58,1.735a2.14,2.14,0,0,0,2.071-1.047v-7.864h2.974v11.1h-2.789Z" fill="#12263f"/>
        <path id="Path_102025" data-name="Path 102025" d="M1698.123,4408.87a5.445,5.445,0,0,1-3.973-1.5,5.321,5.321,0,0,1-1.533-3.989v-.287a6.684,6.684,0,0,1,.647-2.989,4.722,4.722,0,0,1,1.83-2.03,5.132,5.132,0,0,1,2.7-.713,4.605,4.605,0,0,1,3.584,1.436,5.833,5.833,0,0,1,1.308,4.071v1.209h-7.066a2.752,2.752,0,0,0,.867,1.744,2.616,2.616,0,0,0,1.83.656,3.2,3.2,0,0,0,2.676-1.241l1.457,1.63a4.448,4.448,0,0,1-1.805,1.472A5.92,5.92,0,0,1,1698.123,4408.87Zm-.338-9.115a1.852,1.852,0,0,0-1.431.6,3.1,3.1,0,0,0-.7,1.71h4.122v-.238a2.2,2.2,0,0,0-.533-1.529A1.912,1.912,0,0,0,1697.785,4399.755Z" fill="#12263f"/>
        <path id="Path_102026" data-name="Path 102026" d="M1707.1,4397.57l.092,1.283a3.873,3.873,0,0,1,3.189-1.488A3.22,3.22,0,0,1,1713,4398.4a4.842,4.842,0,0,1,.883,3.1v7.168h-2.964v-7.112a1.931,1.931,0,0,0-.41-1.372,1.832,1.832,0,0,0-1.365-.426,2.035,2.035,0,0,0-1.875,1.068v7.842h-2.964v-11.1Z" fill="#12263f"/>
        <path id="Path_102027" data-name="Path 102027" d="M1719.678,4394.843v2.727h1.9v2.174h-1.9v5.537a1.326,1.326,0,0,0,.236.882,1.184,1.184,0,0,0,.9.267,4.72,4.72,0,0,0,.872-.072v2.246a6.135,6.135,0,0,1-1.794.266q-3.119,0-3.179-3.148v-5.978h-1.62v-2.174h1.62v-2.727Z" fill="#12263f"/>
        <path id="Path_102028" data-name="Path 102028" d="M1728.332,4408.87a5.445,5.445,0,0,1-3.973-1.5,5.321,5.321,0,0,1-1.533-3.989v-.287a6.684,6.684,0,0,1,.647-2.989,4.722,4.722,0,0,1,1.83-2.03,5.132,5.132,0,0,1,2.7-.713,4.607,4.607,0,0,1,3.584,1.436,5.833,5.833,0,0,1,1.308,4.071v1.209h-7.066a2.752,2.752,0,0,0,.867,1.744,2.616,2.616,0,0,0,1.83.656,3.2,3.2,0,0,0,2.676-1.241l1.457,1.63a4.448,4.448,0,0,1-1.805,1.472A5.92,5.92,0,0,1,1728.332,4408.87Zm-.338-9.115a1.852,1.852,0,0,0-1.431.6,3.1,3.1,0,0,0-.7,1.71h4.122v-.238a2.2,2.2,0,0,0-.533-1.529A1.912,1.912,0,0,0,1727.994,4399.755Z" fill="#12263f"/>
      </g>
    </g>
  </g>
</svg>
